<?xml version="1.0" encoding="UTF-8" standalone="no"?>
<!DOCTYPE svg PUBLIC "-//W3C//DTD SVG 1.1//EN" "http://www.w3.org/Graphics/SVG/1.1/DTD/svg11.dtd">
<svg xmlns="http://www.w3.org/2000/svg" version="1.1" viewBox="0.00 0.00 1773.00 1773.00">
<g stroke-width="2.00" fill="none" stroke-linecap="butt">
<path stroke="#9099a1" vector-effect="non-scaling-stroke" d="
  M 555.91 566.88
  Q 552.98 570.15 549.27 572.78
  Q 545.80 575.23 544.48 577.06
  Q 540.34 582.75 539.72 590.23"
/>
<path stroke="#d9e6f4" vector-effect="non-scaling-stroke" d="
  M 539.72 590.23
  Q 530.78 592.53 522.81 597.57
  Q 511.78 604.54 501.52 614.97"
/>
<path stroke="#e6f4fe" vector-effect="non-scaling-stroke" d="
  M 501.52 614.97
  Q 494.90 625.07 493.90 638.53
  Q 493.09 649.58 495.35 658.92
  C 497.42 667.52 500.47 677.14 501.77 686.78
  Q 502.51 692.25 502.77 698.38
  Q 503.35 712.50 505.04 730.29
  C 505.22 732.26 505.23 734.36 504.61 736.35
  Q 503.01 741.52 503.05 746.69"
/>
<path stroke="#9099a1" vector-effect="non-scaling-stroke" d="
  M 503.05 746.69
  L 498.52 749.78"
/>
<path stroke="#9aacba" vector-effect="non-scaling-stroke" d="
  M 498.52 749.78
  Q 475.14 760.29 463.34 781.16
  Q 456.19 793.80 451.86 809.21
  C 445.09 833.32 443.17 856.47 441.44 883.27
  Q 440.73 894.42 439.35 904.04
  Q 435.93 927.98 424.11 952.57
  Q 419.17 962.83 412.79 972.33
  Q 412.43 972.86 411.87 973.68"
/>
<path stroke="#c9d8e7" vector-effect="non-scaling-stroke" d="
  M 411.87 973.68
  Q 412.08 972.25 412.38 971.01
  Q 412.76 969.44 412.83 968.34
  C 414.50 941.22 412.57 914.21 407.71 887.50
  Q 406.75 882.21 405.52 877.35"
/>
<path stroke="#e6f4fe" vector-effect="non-scaling-stroke" d="
  M 405.52 877.35
  Q 391.55 854.04 377.76 831.25
  Q 377.60 830.99 377.59 830.23"
/>
<path stroke="#9aacba" vector-effect="non-scaling-stroke" d="
  M 377.59 830.23
  C 383.13 802.56 371.40 765.87 334.47 782.41
  Q 309.09 793.77 286.50 810.36
  Q 275.18 818.67 267.70 830.95
  Q 260.42 842.91 255.70 854.03"
/>
<path stroke="#d9e6f4" vector-effect="non-scaling-stroke" d="
  M 255.70 854.03
  Q 247.72 854.56 240.11 856.58
  Q 219.27 862.12 212.28 882.06
  C 208.36 893.22 208.51 904.57 208.44 916.25
  Q 208.22 951.92 208.29 988.00
  Q 208.30 995.30 208.71 999.26
  Q 209.58 1007.67 211.87 1019.76"
/>
<path stroke="#9099a1" vector-effect="non-scaling-stroke" d="
  M 211.87 1019.76
  Q 210.90 1022.42 209.81 1026.04
  Q 205.86 1039.16 205.98 1053.99
  C 206.14 1072.71 214.79 1088.40 231.11 1097.89
  Q 246.44 1106.80 263.84 1109.61"
/>
<path stroke="#eef4fb" vector-effect="non-scaling-stroke" d="
  M 263.84 1109.61
  Q 328.78 1159.28 409.61 1147.75
  C 416.79 1146.73 423.70 1145.01 430.77 1143.63
  A 0.85 0.84 82.1 0 1 431.77 1144.39
  L 432.26 1149.66"
/>
<path stroke="#c9d8e7" vector-effect="non-scaling-stroke" d="
  M 432.26 1149.66
  Q 430.21 1154.51 426.98 1157.29"
/>
<path stroke="#eef4fb" vector-effect="non-scaling-stroke" d="
  M 426.98 1157.29
  Q 414.35 1159.02 403.51 1165.27
  C 395.13 1170.10 387.70 1180.74 391.00 1190.62
  C 394.76 1201.88 401.82 1205.92 412.29 1210.33
  Q 421.67 1214.29 434.52 1214.89
  Q 447.05 1215.48 457.32 1211.77"
/>
<path stroke="#c9d8e7" vector-effect="non-scaling-stroke" d="
  M 457.32 1211.77
  Q 463.77 1213.78 471.24 1213.04"
/>
<path stroke="#eef4fb" vector-effect="non-scaling-stroke" d="
  M 471.24 1213.04
  Q 483.93 1216.18 496.19 1219.43
  Q 504.90 1221.75 515.09 1225.95
  Q 530.23 1232.19 539.67 1243.63
  Q 544.85 1249.91 550.46 1256.65
  C 556.98 1264.49 565.17 1269.27 574.45 1273.01
  Q 580.12 1275.29 584.80 1276.21
  Q 595.46 1278.30 600.50 1278.61
  Q 616.05 1279.54 631.37 1274.11
  Q 640.29 1270.95 649.66 1267.66
  Q 656.50 1265.26 662.19 1262.16
  C 675.78 1254.76 679.49 1238.66 669.26 1226.75
  Q 652.51 1207.23 626.23 1204.77
  Q 617.85 1203.99 612.54 1204.40"
/>
<path stroke="#9099a1" vector-effect="non-scaling-stroke" d="
  M 612.54 1204.40
  Q 616.96 1154.71 620.92 1104.71
  Q 621.68 1095.10 622.64 1084.78
  Q 623.70 1073.40 624.91 1058.02
  Q 628.52 1012.14 632.33 966.23
  Q 633.21 955.72 634.07 946.31
  Q 637.44 909.33 634.26 873.00
  Q 632.51 853.01 629.00 828.26"
/>
<path stroke="#fcd4cd" vector-effect="non-scaling-stroke" d="
  M 629.00 828.26
  Q 640.91 832.83 646.62 836.62
  C 652.06 840.24 655.14 844.77 659.37 849.25
  C 669.72 860.18 685.57 863.32 699.71 858.96"
/>
<path stroke="#c9d8e7" vector-effect="non-scaling-stroke" d="
  M 699.71 858.96
  L 722.66 878.28"
/>
<path stroke="#d9e6f4" vector-effect="non-scaling-stroke" d="
  M 722.66 878.28
  Q 722.52 880.34 722.85 881.89
  C 731.34 921.02 734.21 960.90 734.00 1001.10
  Q 733.95 1010.98 735.59 1016.76
  Q 739.14 1029.31 750.22 1036.99"
/>
<path stroke="#9aacba" vector-effect="non-scaling-stroke" d="
  M 750.22 1036.99
  Q 752.99 1044.11 759.09 1048.26"
/>
<path stroke="#eef4fb" vector-effect="non-scaling-stroke" d="
  M 759.09 1048.26
  Q 766.16 1060.07 778.25 1067.74
  Q 808.63 1086.99 829.50 1099.76
  Q 841.69 1107.21 883.16 1131.66
  Q 892.00 1136.86 900.44 1141.72
  Q 956.44 1173.90 1012.48 1206.00
  C 1017.50 1208.87 1022.17 1212.94 1026.14 1217.35
  C 1031.33 1223.13 1038.21 1224.60 1045.55 1225.23
  C 1049.59 1225.58 1053.80 1228.66 1057.54 1230.87
  Q 1146.81 1283.52 1236.42 1337.23
  C 1248.05 1344.20 1258.28 1349.85 1270.94 1354.08
  Q 1275.28 1355.53 1279.53 1356.89
  C 1284.07 1358.34 1289.20 1359.27 1294.04 1360.16
  Q 1320.33 1365.02 1348.05 1362.08
  Q 1362.50 1360.55 1373.35 1354.02
  C 1384.47 1347.32 1395.12 1339.48 1407.25 1334.10
  Q 1423.97 1326.69 1436.93 1319.15
  Q 1470.73 1299.48 1508.41 1277.44
  Q 1564.96 1244.36 1643.71 1199.88
  C 1654.55 1193.76 1666.97 1186.31 1672.63 1174.82
  C 1680.87 1158.11 1675.80 1143.88 1663.00 1131.84
  C 1653.78 1123.16 1643.49 1116.68 1632.62 1110.12
  Q 1567.16 1070.60 1499.87 1033.63
  Q 1498.98 1033.14 1497.52 1033.72"
/>
<path stroke="#c9d8e7" vector-effect="non-scaling-stroke" d="
  M 1497.52 1033.72
  L 1497.20 916.39"
/>
<path stroke="#9aacba" vector-effect="non-scaling-stroke" d="
  M 1497.20 916.39
  Q 1499.28 910.69 1499.59 909.01
  C 1500.79 902.50 1496.59 896.31 1491.06 892.97
  Q 1487.97 891.10 1486.61 890.22"
/>
<path stroke="#e6f4fe" vector-effect="non-scaling-stroke" d="
  M 1486.61 890.22
  Q 1487.33 863.28 1486.35 837.29
  C 1485.71 820.37 1481.15 804.69 1468.45 793.50
  Q 1464.21 789.77 1451.61 782.78
  Q 1423.35 767.11 1396.79 751.95
  Q 1329.88 713.74 1263.28 675.76
  C 1252.01 669.33 1237.11 667.77 1224.10 672.31
  C 1221.82 673.10 1219.33 671.71 1218.61 669.57
  Q 1209.85 643.37 1185.56 629.50
  Q 1086.18 572.73 994.05 520.21
  C 984.66 514.85 976.17 510.85 965.73 516.25
  Q 960.08 519.17 956.73 523.76"
/>
<path stroke="#d9e6f4" vector-effect="non-scaling-stroke" d="
  M 956.73 523.76
  Q 952.62 525.95 949.68 528.44
  Q 944.37 532.93 944.40 540.00
  Q 944.45 553.43 942.66 566.73
  Q 941.77 573.33 940.96 580.11"
/>
<path stroke="#9aacba" vector-effect="non-scaling-stroke" d="
  M 940.96 580.11
  Q 932.34 580.91 927.96 583.45
  Q 816.01 648.39 704.02 713.26
  Q 697.15 717.24 699.00 725.15"
/>
<path stroke="#9099a1" vector-effect="non-scaling-stroke" d="
  M 699.00 725.15
  Q 698.85 727.59 699.63 729.63
  Q 700.28 731.36 702.52 732.82
  Q 717.20 742.44 731.45 751.47"
/>
<path stroke="#d9e6f4" vector-effect="non-scaling-stroke" d="
  M 731.45 751.47
  Q 731.71 759.30 731.65 763.50
  Q 731.23 790.43 730.11 835.87"
/>
<path stroke="#fcd4cd" vector-effect="non-scaling-stroke" d="
  M 730.11 835.87
  Q 721.56 817.49 716.56 801.72
  Q 711.14 784.67 704.72 761.61
  Q 702.02 751.91 699.04 742.44
  C 689.44 711.87 681.32 682.63 673.48 651.42"
/>
<path stroke="#d9e6f4" vector-effect="non-scaling-stroke" d="
  M 673.48 651.42
  Q 673.22 646.60 672.60 643.20
  Q 667.62 615.61 658.14 589.22
  Q 656.18 583.75 652.77 577.99
  Q 642.33 560.32 622.12 557.76"
/>
<path stroke="#fcd4cd" vector-effect="non-scaling-stroke" d="
  M 622.12 557.76
  L 634.50 526.16"
/>
<path stroke="#99a1ad" vector-effect="non-scaling-stroke" d="
  M 634.50 526.16
  C 655.73 499.65 648.92 467.13 620.54 450.45
  Q 608.87 443.59 595.40 444.11
  Q 587.03 444.43 578.81 444.87
  Q 574.63 445.10 570.26 444.70
  C 562.87 444.02 552.67 446.51 546.81 452.31
  C 514.19 484.52 526.28 536.08 555.41 565.60
  Q 555.83 566.03 555.91 566.88"
/>
<path stroke="#96767b" vector-effect="non-scaling-stroke" d="
  M 634.50 526.16
  Q 634.19 520.41 633.73 514.84
  C 633.08 506.90 628.36 504.98 621.27 507.84
  Q 602.57 515.37 590.51 531.04
  Q 587.84 534.51 584.09 532.39
  C 579.27 529.67 583.23 520.55 577.07 518.68
  Q 570.42 516.66 563.69 514.45
  Q 562.15 513.94 560.81 514.71
  Q 556.63 517.10 558.59 521.26
  C 560.37 525.06 562.24 528.79 565.21 531.62
  C 567.04 533.37 568.45 536.01 567.85 538.03
  Q 563.43 552.96 558.87 567.89"
/>
<path stroke="#2a3b4f" vector-effect="non-scaling-stroke" d="
  M 558.87 567.89
  L 555.91 566.88"
/>
<path stroke="#d6bbc2" vector-effect="non-scaling-stroke" d="
  M 622.12 557.76
  L 605.59 576.40"
/>
<path stroke="#8d6e6f" vector-effect="non-scaling-stroke" d="
  M 605.59 576.40
  L 599.75 579.89"
/>
<path stroke="#d6bbc2" vector-effect="non-scaling-stroke" d="
  M 599.75 579.89
  Q 597.84 579.72 597.63 582.26
  C 597.51 583.64 597.87 586.23 598.30 587.90
  Q 601.62 600.96 605.61 614.15
  Q 606.09 615.76 606.00 617.44
  Q 605.97 618.07 605.35 617.91
  Q 603.36 617.40 601.93 615.91
  Q 596.26 610.01 590.56 605.66
  C 583.87 600.56 575.42 601.23 567.80 598.61
  C 564.91 597.62 559.48 596.33 558.73 592.97
  Q 557.08 585.51 555.56 578.02"
/>
<path stroke="#8d6e6f" vector-effect="non-scaling-stroke" d="
  M 555.56 578.02
  L 558.87 567.89"
/>
<path stroke="#6a8096" vector-effect="non-scaling-stroke" d="
  M 555.56 578.02
  C 551.21 582.25 547.94 585.68 549.45 592.29
  Q 550.53 596.98 553.16 600.45
  Q 562.04 612.12 574.18 627.96
  C 588.75 646.96 601.45 667.57 607.51 690.51
  Q 607.97 692.26 609.38 693.61
  A 0.99 0.98 -28.9 0 0 610.25 693.86
  Q 611.57 693.62 612.75 692.93
  Q 627.72 684.14 645.78 673.37
  C 651.53 669.94 649.79 665.86 648.36 659.95
  Q 638.41 619.05 608.54 588.69
  Q 604.27 584.34 599.75 579.89"
/>
<path stroke="#8d6e6f" vector-effect="non-scaling-stroke" d="
  M 657.03 657.27
  C 659.80 666.25 660.80 676.84 657.39 685.95
  Q 655.84 690.08 655.82 690.14
  Q 652.54 700.13 650.74 709.70"
/>
<path stroke="#9099a1" vector-effect="non-scaling-stroke" d="
  M 650.74 709.70
  Q 642.59 738.61 634.74 766.66
  Q 633.39 771.49 637.48 774.54
  Q 641.22 777.33 643.90 778.78"
/>
<path stroke="#5a7289" vector-effect="non-scaling-stroke" d="
  M 643.90 778.78
  Q 643.56 780.57 643.50 782.11
  Q 643.41 784.17 642.66 785.20
  C 641.27 787.14 638.04 788.71 635.92 789.67
  Q 630.21 792.23 624.03 794.75"
/>
<path stroke="#8d6e6f" vector-effect="non-scaling-stroke" d="
  M 624.03 794.75
  Q 613.18 790.21 602.34 782.64
  Q 589.37 773.57 581.97 760.14
  C 581.48 759.26 581.68 758.44 581.89 757.54"
/>
<path stroke="#5a7289" vector-effect="non-scaling-stroke" d="
  M 581.89 757.54
  L 590.46 719.15"
/>
<path stroke="#6a8096" vector-effect="non-scaling-stroke" d="
  M 590.46 719.15
  Q 595.51 709.20 600.97 699.00
  Q 602.40 696.32 602.00 694.76
  Q 597.25 675.97 587.96 659.03
  C 581.53 647.28 572.41 636.88 564.23 626.22
  Q 554.64 613.73 544.21 597.79
  Q 541.78 594.07 539.72 590.23"
/>
<path stroke="#d6bbc2" vector-effect="non-scaling-stroke" d="
  M 673.48 651.42
  L 657.03 657.27"
/>
<path stroke="#6a8096" vector-effect="non-scaling-stroke" d="
  M 657.03 657.27
  Q 642.37 609.63 605.59 576.40"
/>
<path stroke="#c9d8e7" vector-effect="non-scaling-stroke" d="
  M 699.94 825.91
  L 643.90 778.78"
/>
<path stroke="#c6adb5" vector-effect="non-scaling-stroke" d="
  M 569.14 716.23
  C 569.09 722.32 569.22 729.47 571.97 735.03
  Q 577.67 746.56 580.89 756.99
  Q 581.01 757.38 581.37 757.56
  Q 581.69 757.72 581.89 757.54"
/>
<path stroke="#c6adb5" vector-effect="non-scaling-stroke" d="
  M 624.03 794.75
  Q 627.33 795.81 630.60 796.02
  C 633.96 796.23 635.65 796.95 637.45 799.54
  C 648.55 815.50 664.09 829.01 683.57 831.70
  Q 685.38 831.95 686.47 833.33
  Q 686.79 833.74 686.81 834.27
  C 686.87 836.67 686.67 838.97 687.19 841.37
  C 688.60 847.90 693.67 853.53 698.85 857.67
  A 2.05 1.94 -86.2 0 1 699.38 858.31
  L 699.71 858.96"
/>
<path stroke="#8d6e6f" vector-effect="non-scaling-stroke" d="
  M 629.00 828.26
  Q 586.96 810.39 549.33 784.37"
/>
<path stroke="#c6adb5" vector-effect="non-scaling-stroke" d="
  M 549.33 784.37
  Q 548.95 781.80 547.91 779.30
  Q 546.08 774.94 546.05 774.87
  Q 535.99 746.69 525.86 718.21"
/>
<path stroke="#a3bfdb" vector-effect="non-scaling-stroke" d="
  M 590.46 719.15
  C 587.03 719.63 583.86 720.31 580.52 719.79
  Q 574.65 718.88 569.14 716.23"
/>
<path stroke="#d6bbc2" vector-effect="non-scaling-stroke" d="
  M 569.14 716.23
  C 566.06 710.51 561.39 705.39 554.21 707.52"
/>
<path stroke="#c0dbf3" vector-effect="non-scaling-stroke" d="
  M 554.21 707.52
  Q 552.49 703.61 552.33 701.10
  Q 551.15 682.53 544.71 663.53
  Q 533.35 630.02 501.52 614.97"
/>
<path stroke="#a3bfdb" vector-effect="non-scaling-stroke" d="
  M 794.75 909.70
  Q 796.95 913.32 799.43 916.08
  Q 808.38 926.00 818.32 934.87
  Q 861.78 973.70 903.34 1012.78
  A 1.93 1.93 0.0 0 1 903.40 1015.54
  L 902.69 1016.27
  Q 902.20 1016.77 902.73 1017.23
  L 998.28 1099.55"
/>
<path stroke="#5a7289" vector-effect="non-scaling-stroke" d="
  M 998.28 1099.55
  Q 991.11 1102.72 989.54 1109.09"
/>
<path stroke="#a3bfdb" vector-effect="non-scaling-stroke" d="
  M 989.54 1109.09
  Q 948.95 1074.19 908.02 1038.98
  C 905.26 1036.62 901.90 1034.63 899.39 1032.58
  C 847.32 989.98 796.96 945.47 747.62 899.75
  C 743.56 895.99 739.65 893.12 734.76 890.97
  C 731.77 889.65 729.44 889.02 727.77 885.73
  Q 726.76 883.74 725.79 881.74
  Q 724.95 880.01 722.66 878.28"
/>
<path stroke="#d6bbc2" vector-effect="non-scaling-stroke" d="
  M 730.11 835.87
  Q 732.64 843.16 740.67 848.75"
/>
<path stroke="#c6adb5" vector-effect="non-scaling-stroke" d="
  M 747.15 868.32
  C 744.89 867.41 743.63 865.51 741.03 865.35
  A 1.41 1.40 -80.5 0 0 739.58 866.39
  C 739.01 868.53 738.44 871.53 736.57 872.90
  A 1.53 1.53 0.0 0 1 734.57 872.72
  C 731.48 869.48 731.53 866.20 731.00 862.00
  C 730.16 855.34 726.06 849.67 720.65 844.09
  Q 714.38 837.64 709.69 834.05
  Q 703.24 829.12 699.94 825.91"
/>
<path stroke="#fcd4cd" vector-effect="non-scaling-stroke" d="
  M 699.94 825.91
  C 703.81 824.16 703.01 820.27 701.55 817.28
  Q 690.82 795.33 681.93 778.35
  Q 668.08 751.93 658.32 724.95
  Q 656.42 719.73 650.74 709.70"
/>
<path stroke="#7f8e9d" vector-effect="non-scaling-stroke" d="
  M 612.54 1204.40
  L 610.93 1211.61"
/>
<path stroke="#5a7289" vector-effect="non-scaling-stroke" d="
  M 610.93 1211.61
  Q 602.97 1216.11 593.75 1215.14
  Q 590.22 1214.77 586.93 1214.26"
/>
<path stroke="#7f8e9d" vector-effect="non-scaling-stroke" d="
  M 586.93 1214.26
  L 584.24 1204.41"
/>
<path stroke="#9099a1" vector-effect="non-scaling-stroke" d="
  M 584.24 1204.41
  C 580.51 1175.73 576.86 1148.99 573.56 1118.19
  Q 572.43 1107.61 571.77 1098.26
  C 570.18 1075.95 569.13 1053.02 570.76 1031.44
  Q 572.00 1015.07 571.89 1011.08
  Q 571.47 997.18 568.66 985.19
  Q 564.93 969.28 558.58 955.12
  A 1.17 1.16 -32.9 0 0 556.75 954.73
  Q 556.00 955.39 555.78 956.36
  Q 552.29 972.11 548.58 988.81
  C 545.66 1001.97 541.24 1017.98 534.89 1029.89
  Q 504.84 1086.32 465.05 1154.07"
/>
<path stroke="#7f8e9d" vector-effect="non-scaling-stroke" d="
  M 465.05 1154.07
  L 459.38 1159.21"
/>
<path stroke="#5a7289" vector-effect="non-scaling-stroke" d="
  M 459.38 1159.21
  Q 447.74 1156.70 440.69 1147.33"
/>
<path stroke="#7f8e9d" vector-effect="non-scaling-stroke" d="
  M 440.69 1147.33
  L 466.34 1058.05"
/>
<path stroke="#9099a1" vector-effect="non-scaling-stroke" d="
  M 466.34 1058.05
  Q 471.16 1041.47 474.74 1033.00
  Q 479.26 1022.30 482.63 1013.17
  Q 488.61 996.98 489.08 978.58
  Q 489.68 955.43 487.94 922.53
  Q 487.32 910.77 485.44 899.12
  Q 483.21 885.32 481.04 870.33
  C 477.27 844.42 480.42 818.38 488.06 793.70
  C 489.35 789.50 491.64 783.88 493.08 778.85"
/>
<path stroke="#2b465c" vector-effect="non-scaling-stroke" d="
  M 493.08 778.85
  Q 496.75 764.82 498.52 749.78"
/>
<path stroke="#5a7289" vector-effect="non-scaling-stroke" d="
  M 549.33 784.37
  Q 538.69 781.25 530.96 777.55
  Q 527.50 775.90 522.87 772.71"
/>
<path stroke="#e3c9cc" vector-effect="non-scaling-stroke" d="
  M 554.21 707.52
  L 525.86 718.21"
/>
<path stroke="#b0cce6" vector-effect="non-scaling-stroke" d="
  M 525.86 718.21
  Q 524.50 717.58 522.37 718.08
  C 520.92 718.42 520.29 719.30 520.29 720.77
  Q 520.28 725.96 520.54 731.50
  Q 521.34 749.30 522.32 767.89
  Q 522.37 768.69 522.68 770.28
  Q 522.93 771.55 522.87 772.71"
/>
<path stroke="#778ea0" vector-effect="non-scaling-stroke" d="
  M 522.87 772.71
  Q 512.15 764.93 506.38 753.41
  Q 504.75 750.15 503.05 746.69"
/>
<path stroke="#6a8096" vector-effect="non-scaling-stroke" d="
  M 989.54 1109.09
  Q 990.82 1115.76 994.34 1120.18
  Q 1007.97 1137.31 1027.21 1151.61
  Q 1027.62 1151.91 1027.67 1152.42
  Q 1027.83 1153.94 1027.49 1155.46"
/>
<path stroke="#7493af" vector-effect="non-scaling-stroke" d="
  M 1027.49 1155.46
  L 1025.31 1193.63"
/>
<path stroke="#c8dbf0" vector-effect="non-scaling-stroke" d="
  M 1025.31 1193.63
  Q 1021.41 1191.55 1017.74 1189.47
  Q 988.09 1172.65 957.26 1155.19
  Q 897.65 1121.44 844.28 1090.13
  C 826.46 1079.68 807.49 1067.78 790.82 1059.41
  Q 782.51 1055.24 767.03 1049.78"
/>
<path stroke="#7493af" vector-effect="non-scaling-stroke" d="
  M 767.03 1049.78
  Q 763.27 1037.73 750.22 1036.99"
/>
<path stroke="#81a0b9" vector-effect="non-scaling-stroke" d="
  M 1486.61 890.22
  L 1459.87 874.88"
/>
<path stroke="#c0dbf3" vector-effect="non-scaling-stroke" d="
  M 1459.87 874.88
  Q 1464.49 861.64 1464.08 847.50
  C 1463.65 832.66 1457.60 818.86 1446.85 808.75
  Q 1439.48 801.82 1433.30 798.40
  C 1379.85 768.84 1324.98 736.62 1265.71 701.01
  Q 1249.79 691.44 1233.12 681.59
  C 1224.35 676.40 1211.95 676.13 1210.49 689.08
  Q 1206.12 727.75 1207.33 763.70
  Q 1208.53 799.05 1213.07 833.82
  Q 1214.07 841.53 1215.51 849.00
  C 1218.63 865.19 1229.49 875.14 1243.09 883.11
  Q 1285.09 907.71 1326.06 930.13
  C 1328.86 931.66 1331.19 933.88 1334.17 934.76
  Q 1334.62 934.90 1334.72 935.36
  L 1334.80 935.70"
/>
<path stroke="#81a0b9" vector-effect="non-scaling-stroke" d="
  M 1334.80 935.70
  Q 1278.31 967.71 1222.41 1000.73
  Q 1218.63 1002.97 1215.16 1005.04
  C 1212.86 1006.41 1210.22 1008.55 1208.95 1010.51
  Q 1205.28 1016.19 1210.09 1021.81"
/>
<path stroke="#8095ac" vector-effect="non-scaling-stroke" d="
  M 1210.09 1021.81
  L 1237.99 1042.05"
/>
<path stroke="#c0dbf3" vector-effect="non-scaling-stroke" d="
  M 1237.99 1042.05
  L 1230.99 1120.43"
/>
<path stroke="#b0cce6" vector-effect="non-scaling-stroke" d="
  M 1230.99 1120.43
  L 1200.68 1127.45"
/>
<path stroke="#c0dbf3" vector-effect="non-scaling-stroke" d="
  M 1200.68 1127.45
  Q 1185.55 1124.86 1180.83 1123.46
  C 1162.84 1118.10 1145.13 1109.69 1128.47 1099.69
  Q 1101.62 1083.56 1085.49 1075.71
  Q 1080.85 1073.46 1065.24 1067.30"
/>
<path stroke="#81a0b9" vector-effect="non-scaling-stroke" d="
  M 1065.24 1067.30
  Q 1061.42 1048.53 1042.50 1044.49
  Q 1037.58 1043.44 1031.28 1043.65"
/>
<path stroke="#c0dbf3" vector-effect="non-scaling-stroke" d="
  M 1031.28 1043.65
  Q 926.42 982.98 821.47 922.03
  Q 809.94 915.33 794.75 909.70"
/>
<path stroke="#b0cce6" vector-effect="non-scaling-stroke" d="
  M 794.75 909.70
  Q 758.84 878.99 749.26 870.74
  Q 748.10 869.73 747.15 868.32"
/>
<path stroke="#e3c9cc" vector-effect="non-scaling-stroke" d="
  M 747.15 868.32
  Q 744.88 857.33 740.67 848.75"
/>
<path stroke="#c0dbf3" vector-effect="non-scaling-stroke" d="
  M 740.67 848.75
  Q 740.02 845.34 740.63 843.43
  Q 741.61 840.39 744.93 838.60
  Q 751.27 835.19 757.90 832.26"
/>
<path stroke="#b0cce6" vector-effect="non-scaling-stroke" d="
  M 757.90 832.26
  L 956.97 717.85"
/>
<path stroke="#c0dbf3" vector-effect="non-scaling-stroke" d="
  M 956.97 717.85
  Q 958.21 718.08 959.53 718.95
  Q 960.46 719.56 961.37 720.10
  Q 1057.81 776.46 1165.98 839.02
  C 1173.00 843.08 1180.37 845.26 1188.33 842.57
  Q 1195.89 840.01 1196.43 831.64
  Q 1196.97 823.12 1197.22 814.26
  C 1198.25 777.02 1198.98 740.88 1198.66 705.00
  Q 1198.56 694.79 1197.01 685.76
  Q 1193.16 663.33 1175.08 649.17
  Q 1168.68 644.15 1162.80 640.94
  Q 1132.45 624.38 1102.34 607.36
  Q 1029.23 566.03 956.73 523.76"
/>
<path stroke="#7493af" vector-effect="non-scaling-stroke" d="
  M 1031.28 1043.65
  Q 1025.37 1060.22 1024.65 1077.72
  Q 1023.86 1096.80 1026.46 1115.76"
/>
<path stroke="#6a8096" vector-effect="non-scaling-stroke" d="
  M 1026.46 1115.76
  Q 1019.20 1111.86 1012.28 1107.47
  C 1009.58 1105.75 1006.26 1102.47 1002.74 1101.01
  Q 1001.71 1100.58 998.28 1099.55"
/>
<path stroke="#9aacba" vector-effect="non-scaling-stroke" d="
  M 493.08 778.85
  Q 481.92 789.40 475.76 803.19
  Q 472.77 809.86 470.25 821.06
  Q 468.32 829.63 466.99 838.21
  Q 463.77 859.18 462.94 879.48
  C 461.93 904.28 456.79 929.29 448.09 951.32
  Q 440.74 969.93 428.47 989.18"
/>
<path stroke="#6484a2" vector-effect="non-scaling-stroke" d="
  M 428.47 989.18
  Q 422.34 993.78 418.33 999.10
  C 415.87 1002.36 413.91 1006.76 410.79 1009.40
  C 407.02 1012.57 403.68 1015.83 400.87 1019.90
  Q 398.85 1022.81 395.71 1023.56
  Q 385.11 1026.08 372.80 1029.28
  Q 369.36 1030.17 367.60 1027.76
  C 363.74 1022.46 371.04 1010.90 374.34 1008.03
  Q 389.26 995.02 401.81 983.56
  Q 406.41 979.37 411.87 973.68"
/>
<path stroke="#b8cde3" vector-effect="non-scaling-stroke" d="
  M 586.93 1214.26
  C 585.05 1218.77 583.05 1229.67 587.36 1233.44
  Q 593.29 1238.62 597.17 1242.38
  C 605.74 1250.68 613.05 1258.87 623.90 1264.21
  Q 631.52 1267.97 641.38 1266.37
  C 646.32 1265.57 651.27 1262.40 650.04 1256.83
  C 649.47 1254.26 647.02 1251.75 645.24 1249.76
  Q 627.98 1230.55 610.93 1211.61"
/>
<path stroke="#b8cde3" vector-effect="non-scaling-stroke" d="
  M 459.38 1159.21
  Q 463.10 1178.05 473.37 1199.93
  Q 475.07 1203.54 473.73 1208.24
  C 473.27 1209.85 472.09 1211.36 471.24 1213.04"
/>
<path stroke="#b8cde3" vector-effect="non-scaling-stroke" d="
  M 457.32 1211.77
  Q 443.20 1205.55 437.90 1193.13
  Q 434.91 1186.11 432.28 1178.93
  C 430.49 1174.03 428.36 1169.90 425.95 1165.63
  C 424.26 1162.63 426.28 1160.13 426.98 1157.29"
/>
<path stroke="#eef4fb" vector-effect="non-scaling-stroke" d="
  M 466.34 1058.05
  L 408.04 1020.70"
/>
<path stroke="#c9d8e7" vector-effect="non-scaling-stroke" d="
  M 408.04 1020.70
  Q 418.74 1011.41 425.89 998.64
  Q 428.45 994.07 428.47 989.18"
/>
<path stroke="#eef4fb" vector-effect="non-scaling-stroke" d="
  M 584.24 1204.41
  Q 575.06 1204.20 566.00 1204.21
  Q 560.19 1204.22 543.87 1201.24
  Q 528.26 1198.38 510.28 1189.82
  C 499.24 1184.56 491.14 1176.17 482.08 1168.47
  Q 477.79 1164.83 472.20 1162.00
  C 468.61 1160.18 466.23 1157.78 465.05 1154.07"
/>
<path stroke="#b8cde3" vector-effect="non-scaling-stroke" d="
  M 440.69 1147.33
  C 438.10 1148.07 435.31 1148.24 432.26 1149.66"
/>
<path stroke="#7493af" vector-effect="non-scaling-stroke" d="
  M 1065.24 1067.30
  Q 1065.77 1078.20 1066.24 1088.50
  Q 1067.79 1123.13 1066.28 1157.75
  Q 1065.02 1186.62 1062.14 1215.06"
/>
<path stroke="#2b465c" vector-effect="non-scaling-stroke" d="
  M 1027.49 1155.46
  Q 1029.19 1155.67 1032.22 1156.57
  C 1037.58 1158.17 1047.22 1158.24 1048.09 1150.81
  Q 1048.47 1147.50 1047.66 1142.89
  Q 1044.35 1124.21 1026.46 1115.76"
/>
<path stroke="#89a1b6" vector-effect="non-scaling-stroke" d="
  M 759.09 1048.26
  L 767.03 1049.78"
/>
<path stroke="#89a1b6" vector-effect="non-scaling-stroke" d="
  M 1025.31 1193.63
  Q 1034.52 1210.80 1054.08 1214.15
  Q 1057.30 1214.71 1062.14 1215.06"
/>
<path stroke="#c8dbf0" vector-effect="non-scaling-stroke" d="
  M 1062.14 1215.06
  Q 1076.28 1224.05 1090.16 1232.84
  Q 1101.18 1239.83 1132.13 1257.31
  Q 1152.53 1268.83 1163.91 1274.32
  C 1173.15 1278.78 1184.52 1281.63 1194.92 1280.63
  Q 1199.01 1280.23 1202.34 1279.88"
/>
<path stroke="#b8cde3" vector-effect="non-scaling-stroke" d="
  M 1202.34 1279.88
  L 1210.31 1282.51"
/>
<path stroke="#7f8e9d" vector-effect="non-scaling-stroke" d="
  M 1210.31 1282.51
  Q 1208.87 1291.35 1212.50 1299.43
  Q 1213.75 1302.22 1216.93 1303.29
  Q 1225.51 1306.19 1234.95 1303.50
  C 1238.37 1302.52 1241.07 1301.73 1241.09 1297.31
  Q 1241.12 1290.64 1242.31 1271.96"
/>
<path stroke="#c8dbf0" vector-effect="non-scaling-stroke" d="
  M 1242.31 1271.96
  Q 1246.52 1269.36 1251.06 1267.35
  Q 1253.82 1266.12 1256.38 1265.60"
/>
<path stroke="#7f8e9d" vector-effect="non-scaling-stroke" d="
  M 1431.59 1177.88
  Q 1433.53 1189.61 1444.46 1190.73
  Q 1451.57 1191.46 1456.09 1190.40
  Q 1459.86 1189.52 1461.75 1185.45
  Q 1462.61 1183.61 1462.74 1179.44
  Q 1463.06 1168.84 1463.13 1157.99"
/>
<path stroke="#7493af" vector-effect="non-scaling-stroke" d="
  M 1459.87 874.88
  C 1452.07 872.13 1445.52 872.31 1438.52 876.25
  Q 1379.95 909.26 1334.80 935.70"
/>
<path stroke="#a3bfdb" vector-effect="non-scaling-stroke" d="
  M 1200.68 1127.45
  L 1202.34 1279.88"
/>
<path stroke="#a3bfdb" vector-effect="non-scaling-stroke" d="
  M 757.90 832.26
  Q 756.48 822.71 755.04 813.25
  Q 752.80 798.40 755.17 775.45
  Q 755.77 769.65 756.90 764.24
  C 757.46 761.57 752.02 758.68 749.96 758.12
  Q 748.32 757.68 746.44 757.17"
/>
<path stroke="#6a8096" vector-effect="non-scaling-stroke" d="
  M 1242.31 1271.96
  L 1241.19 1270.38"
/>
<path stroke="#a3bfdb" vector-effect="non-scaling-stroke" d="
  M 1241.19 1270.38
  Q 1241.18 1267.87 1240.95 1265.02
  Q 1240.73 1262.29 1239.96 1259.84
  C 1238.18 1254.22 1236.20 1248.56 1235.31 1242.64
  Q 1234.63 1238.13 1234.57 1234.75
  Q 1233.91 1196.98 1234.30 1125.50
  Q 1234.32 1121.49 1230.99 1120.43"
/>
<path stroke="#637995" vector-effect="non-scaling-stroke" d="
  M 1492.67 917.78
  L 1450.77 941.92
  Q 1450.43 942.11 1450.04 942.12
  Q 1449.70 942.12 1449.45 942.35
  Q 1449.14 942.66 1448.75 942.89
  Q 1412.37 963.76 1375.95 984.66
  C 1374.15 985.69 1372.67 987.05 1370.80 987.97
  Q 1368.82 988.93 1367.04 989.93
  Q 1350.82 999.02 1333.62 1009.08
  Q 1332.86 1009.52 1332.02 1009.82
  Q 1331.17 1010.12 1330.51 1010.54
  Q 1324.80 1014.16 1316.49 1018.94
  Q 1287.98 1035.32 1259.49 1051.73
  Q 1259.24 1051.88 1258.44 1051.86"
/>
<path stroke="#7388a2" vector-effect="non-scaling-stroke" d="
  M 1258.44 1051.86
  L 1237.99 1042.05"
/>
<path stroke="#5a7289" vector-effect="non-scaling-stroke" d="
  M 1241.19 1270.38
  L 1210.31 1282.51"
/>
<path stroke="#a3bfdb" vector-effect="non-scaling-stroke" d="
  M 956.97 717.85
  L 944.87 647.30"
/>
<path stroke="#7493af" vector-effect="non-scaling-stroke" d="
  M 944.87 647.30
  Q 944.61 644.42 944.86 641.25
  Q 945.28 635.97 945.30 635.24
  Q 946.02 607.36 940.96 580.11"
/>
<path stroke="#6484a2" vector-effect="non-scaling-stroke" d="
  M 1497.20 916.39
  Q 1494.68 916.59 1492.67 917.78"
/>
<path stroke="#344d68" vector-effect="non-scaling-stroke" d="
  M 1492.67 917.78
  L 1491.68 912.95
  A 1.79 1.78 -89.5 0 0 1490.32 911.56
  C 1483.39 910.00 1479.38 912.47 1472.23 916.41
  C 1459.86 923.24 1448.06 930.16 1435.79 936.97
  Q 1428.36 941.10 1419.82 946.00
  C 1390.13 963.05 1361.58 979.91 1332.86 996.70
  C 1311.90 1008.95 1290.84 1021.89 1271.17 1033.64
  C 1265.96 1036.75 1256.83 1039.54 1251.31 1035.20
  C 1238.95 1025.49 1226.21 1019.50 1210.09 1021.81"
/>
<path stroke="#5a7289" vector-effect="non-scaling-stroke" d="
  M 943.01 647.94
  Q 916.41 663.47 889.84 679.05
  Q 827.10 715.83 763.99 751.99
  Q 755.97 756.58 746.44 757.17"
/>
<path stroke="#6a8096" vector-effect="non-scaling-stroke" d="
  M 746.44 757.17
  Q 739.36 755.96 731.45 751.47"
/>
<path stroke="#b8cde3" vector-effect="non-scaling-stroke" d="
  M 408.04 1020.70
  Q 407.48 1028.70 403.41 1034.98
  C 400.78 1039.03 396.39 1042.12 392.32 1044.66
  C 367.71 1060.08 341.88 1073.60 316.34 1087.43"
/>
<path stroke="#a3bfdb" vector-effect="non-scaling-stroke" d="
  M 315.00 929.74
  Q 314.91 936.38 317.13 943.84
  Q 319.56 952.05 319.98 954.21
  Q 321.99 964.59 322.18 974.44
  Q 322.74 1005.07 321.67 1048.71
  Q 321.54 1054.35 321.06 1057.88
  Q 319.14 1072.29 315.41 1086.23
  Q 315.21 1086.97 316.34 1087.43"
/>
<path stroke="#c8dbf0" vector-effect="non-scaling-stroke" d="
  M 316.34 1087.43
  Q 309.80 1091.58 302.96 1094.97
  Q 297.72 1097.56 292.26 1097.70
  Q 285.77 1097.87 281.20 1095.00"
/>
<path stroke="#6a8096" vector-effect="non-scaling-stroke" d="
  M 281.20 1095.00
  Q 284.92 1087.66 285.72 1079.23"
/>
<path stroke="#a3bfdb" vector-effect="non-scaling-stroke" d="
  M 285.72 1079.23
  Q 288.25 1081.08 291.31 1080.04
  Q 293.70 1079.22 296.25 1078.32
  C 305.41 1075.06 311.36 1065.89 312.75 1056.58
  Q 314.33 1045.97 315.03 1036.21
  Q 316.77 1011.76 315.80 981.18
  C 314.66 944.99 299.54 910.52 270.61 887.92
  Q 268.71 886.44 267.12 888.25
  Q 266.86 888.54 266.74 888.94
  Q 265.86 891.96 268.01 894.07
  Q 288.46 914.04 297.46 939.13
  Q 304.87 959.78 305.32 980.83
  Q 305.73 999.89 305.98 1016.66
  Q 306.23 1033.37 304.02 1048.29
  C 302.83 1056.33 299.48 1067.85 292.65 1072.66
  Q 290.49 1074.19 285.72 1075.30"
/>
<path stroke="#6a8096" vector-effect="non-scaling-stroke" d="
  M 285.72 1075.30
  Q 281.30 1041.61 255.09 1020.16
  C 245.46 1012.28 233.33 1012.20 221.91 1015.99
  Q 217.42 1017.48 211.87 1019.76"
/>
<path stroke="#7f8e9d" vector-effect="non-scaling-stroke" d="
  M 281.20 1095.00
  L 263.84 1109.61"
/>
<path stroke="#b8cde3" vector-effect="non-scaling-stroke" d="
  M 1497.52 1033.72
  Q 1496.28 1072.83 1497.16 1111.95
  Q 1497.41 1122.98 1496.35 1127.51
  C 1494.36 1135.97 1487.97 1142.48 1480.61 1146.87
  Q 1471.36 1152.38 1463.13 1157.99"
/>
<path stroke="#5a7289" vector-effect="non-scaling-stroke" d="
  M 1463.13 1157.99
  L 1431.59 1177.88"
/>
<path stroke="#b8cde3" vector-effect="non-scaling-stroke" d="
  M 1431.59 1177.88
  Q 1430.40 1177.66 1428.63 1178.14
  C 1421.72 1179.98 1416.97 1183.87 1411.47 1187.92
  Q 1407.58 1190.77 1402.74 1193.63
  Q 1372.28 1211.61 1340.72 1230.26
  Q 1312.45 1246.96 1282.40 1264.86
  C 1274.08 1269.81 1264.73 1271.64 1256.38 1265.60"
/>
<path stroke="#a3bfdb" vector-effect="non-scaling-stroke" d="
  M 1256.38 1265.60
  Q 1257.70 1167.20 1258.87 1068.74
  Q 1258.97 1060.63 1258.90 1052.52
  Q 1258.90 1052.27 1258.80 1052.12
  Q 1258.65 1051.91 1258.44 1051.86"
/>
<path stroke="#6484a2" vector-effect="non-scaling-stroke" d="
  M 944.87 647.30
  Q 943.44 648.23 943.01 647.94"
/>
<path stroke="#2b465c" vector-effect="non-scaling-stroke" d="
  M 943.01 647.94
  L 942.10 643.83
  A 1.10 1.09 85.6 0 0 941.12 642.98
  C 936.69 642.63 932.62 644.57 928.80 646.69
  Q 920.19 651.48 911.51 656.96
  C 907.41 659.54 902.95 661.49 898.94 664.05
  Q 894.32 667.01 889.94 669.24
  C 883.97 672.27 878.55 676.26 872.24 678.86
  Q 863.67 682.38 856.21 687.60
  C 850.88 691.32 844.90 694.01 839.25 697.17
  C 835.99 698.99 832.40 700.20 829.36 702.27
  Q 825.90 704.63 822.25 706.64
  C 807.07 715.00 791.04 723.43 775.33 732.12
  C 763.42 738.71 747.66 751.69 734.25 739.89
  C 732.12 738.01 728.33 735.85 725.75 735.49
  Q 712.49 733.69 702.59 724.39
  Q 700.63 722.55 699.00 725.15"
/>
<path stroke="#b0cce6" vector-effect="non-scaling-stroke" d="
  M 405.52 877.35
  L 315.00 929.74"
/>
<path stroke="#c0dbf3" vector-effect="non-scaling-stroke" d="
  M 315.00 929.74
  Q 313.66 927.66 312.10 925.63
  Q 310.53 923.58 309.83 921.43
  Q 307.08 912.94 303.55 905.64
  Q 293.77 885.40 274.42 873.62
  Q 268.27 869.88 261.50 867.15"
/>
<path stroke="#5a7289" vector-effect="non-scaling-stroke" d="
  M 285.72 1079.23
  L 285.72 1075.30"
/>
<path stroke="#81a0b9" vector-effect="non-scaling-stroke" d="
  M 377.59 830.23
  Q 377.46 830.66 376.89 830.51
  Q 376.59 830.43 376.37 830.21
  C 370.70 824.44 371.15 816.62 370.78 808.98
  C 370.38 800.83 367.76 795.25 361.62 789.98
  C 354.55 783.92 343.72 785.86 336.21 789.64
  Q 326.69 794.44 317.42 799.28
  C 308.97 803.69 300.46 808.63 293.37 814.60
  Q 268.89 835.21 261.50 867.15"
/>
<path stroke="#7493af" vector-effect="non-scaling-stroke" d="
  M 261.50 867.15
  Q 260.70 875.60 259.91 883.90
  Q 259.07 892.75 259.20 900.61
  Q 259.85 940.90 260.07 981.57
  Q 260.08 982.73 258.67 983.16
  A 1.86 1.84 49.6 0 1 257.31 983.04
  C 253.98 981.39 249.15 979.86 249.40 975.21
  Q 250.88 946.85 251.26 938.11
  Q 252.20 915.97 250.84 890.49
  C 250.47 883.55 250.59 877.28 251.99 871.26
  Q 254.73 859.46 255.70 854.03"
/>
<path stroke="#c9d8e7" vector-effect="non-scaling-stroke" d="
  M 840.48 1178.24
  C 839.10 1176.96 838.57 1174.54 840.28 1173.26
  Q 852.05 1164.43 864.97 1155.14
  C 866.73 1153.88 866.56 1151.45 865.07 1150.05
  C 862.51 1147.66 857.06 1148.67 854.35 1150.14
  Q 837.18 1159.48 821.06 1168.59
  C 818.54 1170.01 815.55 1171.45 813.95 1173.83
  C 810.38 1179.14 812.19 1186.04 817.88 1188.94
  Q 827.36 1193.77 837.93 1191.71
  C 840.58 1191.20 845.46 1190.69 846.84 1188.12
  Q 848.02 1185.94 845.82 1183.58
  Q 843.20 1180.78 840.48 1178.24"
/>
<path stroke="#eef4fb" vector-effect="non-scaling-stroke" d="
  M 836.92 1343.56
  Q 849.67 1346.90 862.53 1346.39
  Q 872.94 1345.98 878.71 1342.71
  Q 886.61 1338.23 890.41 1329.94
  C 891.32 1327.97 892.21 1325.96 891.36 1323.81
  Q 890.25 1321.02 888.73 1318.85
  Q 882.20 1309.55 871.47 1306.43
  Q 864.39 1304.37 857.06 1301.80"
/>
<path stroke="#d9e6f4" vector-effect="non-scaling-stroke" d="
  M 857.06 1301.80
  Q 857.45 1250.76 857.85 1199.75
  Q 857.86 1197.79 857.07 1195.84
  C 856.42 1194.26 854.71 1194.33 853.57 1195.25
  C 850.92 1197.41 848.93 1200.35 845.98 1202.04
  Q 839.43 1205.82 833.61 1205.01
  C 824.27 1203.71 815.19 1200.17 806.71 1196.09
  C 803.61 1194.61 799.33 1194.76 798.91 1199.14
  Q 798.71 1201.22 798.69 1203.36
  Q 798.34 1252.99 798.38 1302.62
  C 798.38 1308.85 798.25 1314.84 799.17 1320.94
  C 800.62 1330.52 806.75 1337.72 815.97 1340.64
  C 822.91 1342.83 829.81 1342.78 836.92 1343.56"
/>
<path stroke="#c8dbf0" vector-effect="non-scaling-stroke" d="
  M 857.06 1301.80
  Q 857.42 1305.78 857.79 1309.75
  C 858.74 1320.04 856.72 1333.70 847.13 1339.54
  C 844.04 1341.42 840.41 1342.30 836.92 1343.56"
/>
<path stroke="#5a7289" vector-effect="non-scaling-stroke" d="
  M 253.2939 1087.8511
  A 27.95 14.94 57.8 0 0 251.0421 1056.2388
  A 27.95 14.94 57.8 0 0 223.5061 1040.5489
  A 27.95 14.94 57.8 0 0 225.7579 1072.1612
  A 27.95 14.94 57.8 0 0 253.2939 1087.8511"
/>
<path stroke="#5a7289" vector-effect="non-scaling-stroke" d="
  M 247.3907 1077.9249
  A 15.74 8.31 58.6 0 0 246.2830 1060.1604
  A 15.74 8.31 58.6 0 0 230.9893 1051.0551
  A 15.74 8.31 58.6 0 0 232.0970 1068.8196
  A 15.74 8.31 58.6 0 0 247.3907 1077.9249"
/>
</g>
<path fill="#ffffff" d="
  M 1773.00 0.00
  L 1773.00 1773.00
  L 0.00 1773.00
  L 0.00 0.00
  L 1773.00 0.00
  Z
  M 555.91 566.88
  Q 552.98 570.15 549.27 572.78
  Q 545.80 575.23 544.48 577.06
  Q 540.34 582.75 539.72 590.23
  Q 530.78 592.53 522.81 597.57
  Q 511.78 604.54 501.52 614.97
  Q 494.90 625.07 493.90 638.53
  Q 493.09 649.58 495.35 658.92
  C 497.42 667.52 500.47 677.14 501.77 686.78
  Q 502.51 692.25 502.77 698.38
  Q 503.35 712.50 505.04 730.29
  C 505.22 732.26 505.23 734.36 504.61 736.35
  Q 503.01 741.52 503.05 746.69
  L 498.52 749.78
  Q 475.14 760.29 463.34 781.16
  Q 456.19 793.80 451.86 809.21
  C 445.09 833.32 443.17 856.47 441.44 883.27
  Q 440.73 894.42 439.35 904.04
  Q 435.93 927.98 424.11 952.57
  Q 419.17 962.83 412.79 972.33
  Q 412.43 972.86 411.87 973.68
  Q 412.08 972.25 412.38 971.01
  Q 412.76 969.44 412.83 968.34
  C 414.50 941.22 412.57 914.21 407.71 887.50
  Q 406.75 882.21 405.52 877.35
  Q 391.55 854.04 377.76 831.25
  Q 377.60 830.99 377.59 830.23
  C 383.13 802.56 371.40 765.87 334.47 782.41
  Q 309.09 793.77 286.50 810.36
  Q 275.18 818.67 267.70 830.95
  Q 260.42 842.91 255.70 854.03
  Q 247.72 854.56 240.11 856.58
  Q 219.27 862.12 212.28 882.06
  C 208.36 893.22 208.51 904.57 208.44 916.25
  Q 208.22 951.92 208.29 988.00
  Q 208.30 995.30 208.71 999.26
  Q 209.58 1007.67 211.87 1019.76
  Q 210.90 1022.42 209.81 1026.04
  Q 205.86 1039.16 205.98 1053.99
  C 206.14 1072.71 214.79 1088.40 231.11 1097.89
  Q 246.44 1106.80 263.84 1109.61
  Q 328.78 1159.28 409.61 1147.75
  C 416.79 1146.73 423.70 1145.01 430.77 1143.63
  A 0.85 0.84 82.1 0 1 431.77 1144.39
  L 432.26 1149.66
  Q 430.21 1154.51 426.98 1157.29
  Q 414.35 1159.02 403.51 1165.27
  C 395.13 1170.10 387.70 1180.74 391.00 1190.62
  C 394.76 1201.88 401.82 1205.92 412.29 1210.33
  Q 421.67 1214.29 434.52 1214.89
  Q 447.05 1215.48 457.32 1211.77
  Q 463.77 1213.78 471.24 1213.04
  Q 483.93 1216.18 496.19 1219.43
  Q 504.90 1221.75 515.09 1225.95
  Q 530.23 1232.19 539.67 1243.63
  Q 544.85 1249.91 550.46 1256.65
  C 556.98 1264.49 565.17 1269.27 574.45 1273.01
  Q 580.12 1275.29 584.80 1276.21
  Q 595.46 1278.30 600.50 1278.61
  Q 616.05 1279.54 631.37 1274.11
  Q 640.29 1270.95 649.66 1267.66
  Q 656.50 1265.26 662.19 1262.16
  C 675.78 1254.76 679.49 1238.66 669.26 1226.75
  Q 652.51 1207.23 626.23 1204.77
  Q 617.85 1203.99 612.54 1204.40
  Q 616.96 1154.71 620.92 1104.71
  Q 621.68 1095.10 622.64 1084.78
  Q 623.70 1073.40 624.91 1058.02
  Q 628.52 1012.14 632.33 966.23
  Q 633.21 955.72 634.07 946.31
  Q 637.44 909.33 634.26 873.00
  Q 632.51 853.01 629.00 828.26
  Q 640.91 832.83 646.62 836.62
  C 652.06 840.24 655.14 844.77 659.37 849.25
  C 669.72 860.18 685.57 863.32 699.71 858.96
  L 722.66 878.28
  Q 722.52 880.34 722.85 881.89
  C 731.34 921.02 734.21 960.90 734.00 1001.10
  Q 733.95 1010.98 735.59 1016.76
  Q 739.14 1029.31 750.22 1036.99
  Q 752.99 1044.11 759.09 1048.26
  Q 766.16 1060.07 778.25 1067.74
  Q 808.63 1086.99 829.50 1099.76
  Q 841.69 1107.21 883.16 1131.66
  Q 892.00 1136.86 900.44 1141.72
  Q 956.44 1173.90 1012.48 1206.00
  C 1017.50 1208.87 1022.17 1212.94 1026.14 1217.35
  C 1031.33 1223.13 1038.21 1224.60 1045.55 1225.23
  C 1049.59 1225.58 1053.80 1228.66 1057.54 1230.87
  Q 1146.81 1283.52 1236.42 1337.23
  C 1248.05 1344.20 1258.28 1349.85 1270.94 1354.08
  Q 1275.28 1355.53 1279.53 1356.89
  C 1284.07 1358.34 1289.20 1359.27 1294.04 1360.16
  Q 1320.33 1365.02 1348.05 1362.08
  Q 1362.50 1360.55 1373.35 1354.02
  C 1384.47 1347.32 1395.12 1339.48 1407.25 1334.10
  Q 1423.97 1326.69 1436.93 1319.15
  Q 1470.73 1299.48 1508.41 1277.44
  Q 1564.96 1244.36 1643.71 1199.88
  C 1654.55 1193.76 1666.97 1186.31 1672.63 1174.82
  C 1680.87 1158.11 1675.80 1143.88 1663.00 1131.84
  C 1653.78 1123.16 1643.49 1116.68 1632.62 1110.12
  Q 1567.16 1070.60 1499.87 1033.63
  Q 1498.98 1033.14 1497.52 1033.72
  L 1497.20 916.39
  Q 1499.28 910.69 1499.59 909.01
  C 1500.79 902.50 1496.59 896.31 1491.06 892.97
  Q 1487.97 891.10 1486.61 890.22
  Q 1487.33 863.28 1486.35 837.29
  C 1485.71 820.37 1481.15 804.69 1468.45 793.50
  Q 1464.21 789.77 1451.61 782.78
  Q 1423.35 767.11 1396.79 751.95
  Q 1329.88 713.74 1263.28 675.76
  C 1252.01 669.33 1237.11 667.77 1224.10 672.31
  C 1221.82 673.10 1219.33 671.71 1218.61 669.57
  Q 1209.85 643.37 1185.56 629.50
  Q 1086.18 572.73 994.05 520.21
  C 984.66 514.85 976.17 510.85 965.73 516.25
  Q 960.08 519.17 956.73 523.76
  Q 952.62 525.95 949.68 528.44
  Q 944.37 532.93 944.40 540.00
  Q 944.45 553.43 942.66 566.73
  Q 941.77 573.33 940.96 580.11
  Q 932.34 580.91 927.96 583.45
  Q 816.01 648.39 704.02 713.26
  Q 697.15 717.24 699.00 725.15
  Q 698.85 727.59 699.63 729.63
  Q 700.28 731.36 702.52 732.82
  Q 717.20 742.44 731.45 751.47
  Q 731.71 759.30 731.65 763.50
  Q 731.23 790.43 730.11 835.87
  Q 721.56 817.49 716.56 801.72
  Q 711.14 784.67 704.72 761.61
  Q 702.02 751.91 699.04 742.44
  C 689.44 711.87 681.32 682.63 673.48 651.42
  Q 673.22 646.60 672.60 643.20
  Q 667.62 615.61 658.14 589.22
  Q 656.18 583.75 652.77 577.99
  Q 642.33 560.32 622.12 557.76
  L 634.50 526.16
  C 655.73 499.65 648.92 467.13 620.54 450.45
  Q 608.87 443.59 595.40 444.11
  Q 587.03 444.43 578.81 444.87
  Q 574.63 445.10 570.26 444.70
  C 562.87 444.02 552.67 446.51 546.81 452.31
  C 514.19 484.52 526.28 536.08 555.41 565.60
  Q 555.83 566.03 555.91 566.88
  Z
  M 840.48 1178.24
  C 839.10 1176.96 838.57 1174.54 840.28 1173.26
  Q 852.05 1164.43 864.97 1155.14
  C 866.73 1153.88 866.56 1151.45 865.07 1150.05
  C 862.51 1147.66 857.06 1148.67 854.35 1150.14
  Q 837.18 1159.48 821.06 1168.59
  C 818.54 1170.01 815.55 1171.45 813.95 1173.83
  C 810.38 1179.14 812.19 1186.04 817.88 1188.94
  Q 827.36 1193.77 837.93 1191.71
  C 840.58 1191.20 845.46 1190.69 846.84 1188.12
  Q 848.02 1185.94 845.82 1183.58
  Q 843.20 1180.78 840.48 1178.24
  Z
  M 836.92 1343.56
  Q 849.67 1346.90 862.53 1346.39
  Q 872.94 1345.98 878.71 1342.71
  Q 886.61 1338.23 890.41 1329.94
  C 891.32 1327.97 892.21 1325.96 891.36 1323.81
  Q 890.25 1321.02 888.73 1318.85
  Q 882.20 1309.55 871.47 1306.43
  Q 864.39 1304.37 857.06 1301.80
  Q 857.45 1250.76 857.85 1199.75
  Q 857.86 1197.79 857.07 1195.84
  C 856.42 1194.26 854.71 1194.33 853.57 1195.25
  C 850.92 1197.41 848.93 1200.35 845.98 1202.04
  Q 839.43 1205.82 833.61 1205.01
  C 824.27 1203.71 815.19 1200.17 806.71 1196.09
  C 803.61 1194.61 799.33 1194.76 798.91 1199.14
  Q 798.71 1201.22 798.69 1203.36
  Q 798.34 1252.99 798.38 1302.62
  C 798.38 1308.85 798.25 1314.84 799.17 1320.94
  C 800.62 1330.52 806.75 1337.72 815.97 1340.64
  C 822.91 1342.83 829.81 1342.78 836.92 1343.56
  Z"
/>
<path fill="#32425b" d="
  M 634.50 526.16
  Q 634.19 520.41 633.73 514.84
  C 633.08 506.90 628.36 504.98 621.27 507.84
  Q 602.57 515.37 590.51 531.04
  Q 587.84 534.51 584.09 532.39
  C 579.27 529.67 583.23 520.55 577.07 518.68
  Q 570.42 516.66 563.69 514.45
  Q 562.15 513.94 560.81 514.71
  Q 556.63 517.10 558.59 521.26
  C 560.37 525.06 562.24 528.79 565.21 531.62
  C 567.04 533.37 568.45 536.01 567.85 538.03
  Q 563.43 552.96 558.87 567.89
  L 555.91 566.88
  Q 555.83 566.03 555.41 565.60
  C 526.28 536.08 514.19 484.52 546.81 452.31
  C 552.67 446.51 562.87 444.02 570.26 444.70
  Q 574.63 445.10 578.81 444.87
  Q 587.03 444.43 595.40 444.11
  Q 608.87 443.59 620.54 450.45
  C 648.92 467.13 655.73 499.65 634.50 526.16
  Z"
/>
<path fill="#f9a99b" d="
  M 634.50 526.16
  L 622.12 557.76
  L 605.59 576.40
  L 599.75 579.89
  Q 597.84 579.72 597.63 582.26
  C 597.51 583.64 597.87 586.23 598.30 587.90
  Q 601.62 600.96 605.61 614.15
  Q 606.09 615.76 606.00 617.44
  Q 605.97 618.07 605.35 617.91
  Q 603.36 617.40 601.93 615.91
  Q 596.26 610.01 590.56 605.66
  C 583.87 600.56 575.42 601.23 567.80 598.61
  C 564.91 597.62 559.48 596.33 558.73 592.97
  Q 557.08 585.51 555.56 578.02
  L 558.87 567.89
  Q 563.43 552.96 567.85 538.03
  C 568.45 536.01 567.04 533.37 565.21 531.62
  C 562.24 528.79 560.37 525.06 558.59 521.26
  Q 556.63 517.10 560.81 514.71
  Q 562.15 513.94 563.69 514.45
  Q 570.42 516.66 577.07 518.68
  C 583.23 520.55 579.27 529.67 584.09 532.39
  Q 587.84 534.51 590.51 531.04
  Q 602.57 515.37 621.27 507.84
  C 628.36 504.98 633.08 506.90 633.73 514.84
  Q 634.19 520.41 634.50 526.16
  Z"
/>
<path fill="#cde8fd" d="
  M 1486.61 890.22
  L 1459.87 874.88
  Q 1464.49 861.64 1464.08 847.50
  C 1463.65 832.66 1457.60 818.86 1446.85 808.75
  Q 1439.48 801.82 1433.30 798.40
  C 1379.85 768.84 1324.98 736.62 1265.71 701.01
  Q 1249.79 691.44 1233.12 681.59
  C 1224.35 676.40 1211.95 676.13 1210.49 689.08
  Q 1206.12 727.75 1207.33 763.70
  Q 1208.53 799.05 1213.07 833.82
  Q 1214.07 841.53 1215.51 849.00
  C 1218.63 865.19 1229.49 875.14 1243.09 883.11
  Q 1285.09 907.71 1326.06 930.13
  C 1328.86 931.66 1331.19 933.88 1334.17 934.76
  Q 1334.62 934.90 1334.72 935.36
  L 1334.80 935.70
  Q 1278.31 967.71 1222.41 1000.73
  Q 1218.63 1002.97 1215.16 1005.04
  C 1212.86 1006.41 1210.22 1008.55 1208.95 1010.51
  Q 1205.28 1016.19 1210.09 1021.81
  L 1237.99 1042.05
  L 1230.99 1120.43
  L 1200.68 1127.45
  Q 1185.55 1124.86 1180.83 1123.46
  C 1162.84 1118.10 1145.13 1109.69 1128.47 1099.69
  Q 1101.62 1083.56 1085.49 1075.71
  Q 1080.85 1073.46 1065.24 1067.30
  Q 1061.42 1048.53 1042.50 1044.49
  Q 1037.58 1043.44 1031.28 1043.65
  Q 926.42 982.98 821.47 922.03
  Q 809.94 915.33 794.75 909.70
  Q 758.84 878.99 749.26 870.74
  Q 748.10 869.73 747.15 868.32
  Q 744.88 857.33 740.67 848.75
  Q 740.02 845.34 740.63 843.43
  Q 741.61 840.39 744.93 838.60
  Q 751.27 835.19 757.90 832.26
  L 956.97 717.85
  Q 958.21 718.08 959.53 718.95
  Q 960.46 719.56 961.37 720.10
  Q 1057.81 776.46 1165.98 839.02
  C 1173.00 843.08 1180.37 845.26 1188.33 842.57
  Q 1195.89 840.01 1196.43 831.64
  Q 1196.97 823.12 1197.22 814.26
  C 1198.25 777.02 1198.98 740.88 1198.66 705.00
  Q 1198.56 694.79 1197.01 685.76
  Q 1193.16 663.33 1175.08 649.17
  Q 1168.68 644.15 1162.80 640.94
  Q 1132.45 624.38 1102.34 607.36
  Q 1029.23 566.03 956.73 523.76
  Q 960.08 519.17 965.73 516.25
  C 976.17 510.85 984.66 514.85 994.05 520.21
  Q 1086.18 572.73 1185.56 629.50
  Q 1209.85 643.37 1218.61 669.57
  C 1219.33 671.71 1221.82 673.10 1224.10 672.31
  C 1237.11 667.77 1252.01 669.33 1263.28 675.76
  Q 1329.88 713.74 1396.79 751.95
  Q 1423.35 767.11 1451.61 782.78
  Q 1464.21 789.77 1468.45 793.50
  C 1481.15 804.69 1485.71 820.37 1486.35 837.29
  Q 1487.33 863.28 1486.61 890.22
  Z"
/>
<path fill="#b3cde8" d="
  M 956.73 523.76
  Q 1029.23 566.03 1102.34 607.36
  Q 1132.45 624.38 1162.80 640.94
  Q 1168.68 644.15 1175.08 649.17
  Q 1193.16 663.33 1197.01 685.76
  Q 1198.56 694.79 1198.66 705.00
  C 1198.98 740.88 1198.25 777.02 1197.22 814.26
  Q 1196.97 823.12 1196.43 831.64
  Q 1195.89 840.01 1188.33 842.57
  C 1180.37 845.26 1173.00 843.08 1165.98 839.02
  Q 1057.81 776.46 961.37 720.10
  Q 960.46 719.56 959.53 718.95
  Q 958.21 718.08 956.97 717.85
  L 944.87 647.30
  Q 944.61 644.42 944.86 641.25
  Q 945.28 635.97 945.30 635.24
  Q 946.02 607.36 940.96 580.11
  Q 941.77 573.33 942.66 566.73
  Q 944.45 553.43 944.40 540.00
  Q 944.37 532.93 949.68 528.44
  Q 952.62 525.95 956.73 523.76
  Z"
/>
<path fill="#b3cde8" d="
  M 673.48 651.42
  L 657.03 657.27
  Q 642.37 609.63 605.59 576.40
  L 622.12 557.76
  Q 642.33 560.32 652.77 577.99
  Q 656.18 583.75 658.14 589.22
  Q 667.62 615.61 672.60 643.20
  Q 673.22 646.60 673.48 651.42
  Z"
/>
<path fill="#213343" d="
  M 558.87 567.89
  L 555.56 578.02
  C 551.21 582.25 547.94 585.68 549.45 592.29
  Q 550.53 596.98 553.16 600.45
  Q 562.04 612.12 574.18 627.96
  C 588.75 646.96 601.45 667.57 607.51 690.51
  Q 607.97 692.26 609.38 693.61
  A 0.99 0.98 -28.9 0 0 610.25 693.86
  Q 611.57 693.62 612.75 692.93
  Q 627.72 684.14 645.78 673.37
  C 651.53 669.94 649.79 665.86 648.36 659.95
  Q 638.41 619.05 608.54 588.69
  Q 604.27 584.34 599.75 579.89
  L 605.59 576.40
  Q 642.37 609.63 657.03 657.27
  C 659.80 666.25 660.80 676.84 657.39 685.95
  Q 655.84 690.08 655.82 690.14
  Q 652.54 700.13 650.74 709.70
  Q 642.59 738.61 634.74 766.66
  Q 633.39 771.49 637.48 774.54
  Q 641.22 777.33 643.90 778.78
  Q 643.56 780.57 643.50 782.11
  Q 643.41 784.17 642.66 785.20
  C 641.27 787.14 638.04 788.71 635.92 789.67
  Q 630.21 792.23 624.03 794.75
  Q 613.18 790.21 602.34 782.64
  Q 589.37 773.57 581.97 760.14
  C 581.48 759.26 581.68 758.44 581.89 757.54
  L 590.46 719.15
  Q 595.51 709.20 600.97 699.00
  Q 602.40 696.32 602.00 694.76
  Q 597.25 675.97 587.96 659.03
  C 581.53 647.28 572.41 636.88 564.23 626.22
  Q 554.64 613.73 544.21 597.79
  Q 541.78 594.07 539.72 590.23
  Q 540.34 582.75 544.48 577.06
  Q 545.80 575.23 549.27 572.78
  Q 552.98 570.15 555.91 566.88
  L 558.87 567.89
  Z"
/>
<path fill="#b3cde8" d="
  M 555.56 578.02
  Q 557.08 585.51 558.73 592.97
  C 559.48 596.33 564.91 597.62 567.80 598.61
  C 575.42 601.23 583.87 600.56 590.56 605.66
  Q 596.26 610.01 601.93 615.91
  Q 603.36 617.40 605.35 617.91
  Q 605.97 618.07 606.00 617.44
  Q 606.09 615.76 605.61 614.15
  Q 601.62 600.96 598.30 587.90
  C 597.87 586.23 597.51 583.64 597.63 582.26
  Q 597.84 579.72 599.75 579.89
  Q 604.27 584.34 608.54 588.69
  Q 638.41 619.05 648.36 659.95
  C 649.79 665.86 651.53 669.94 645.78 673.37
  Q 627.72 684.14 612.75 692.93
  Q 611.57 693.62 610.25 693.86
  A 0.99 0.98 -28.9 0 1 609.38 693.61
  Q 607.97 692.26 607.51 690.51
  C 601.45 667.57 588.75 646.96 574.18 627.96
  Q 562.04 612.12 553.16 600.45
  Q 550.53 596.98 549.45 592.29
  C 547.94 585.68 551.21 582.25 555.56 578.02
  Z"
/>
<path fill="#355875" d="
  M 940.96 580.11
  Q 946.02 607.36 945.30 635.24
  Q 945.28 635.97 944.86 641.25
  Q 944.61 644.42 944.87 647.30
  Q 943.44 648.23 943.01 647.94
  L 942.10 643.83
  A 1.10 1.09 85.6 0 0 941.12 642.98
  C 936.69 642.63 932.62 644.57 928.80 646.69
  Q 920.19 651.48 911.51 656.96
  C 907.41 659.54 902.95 661.49 898.94 664.05
  Q 894.32 667.01 889.94 669.24
  C 883.97 672.27 878.55 676.26 872.24 678.86
  Q 863.67 682.38 856.21 687.60
  C 850.88 691.32 844.90 694.01 839.25 697.17
  C 835.99 698.99 832.40 700.20 829.36 702.27
  Q 825.90 704.63 822.25 706.64
  C 807.07 715.00 791.04 723.43 775.33 732.12
  C 763.42 738.71 747.66 751.69 734.25 739.89
  C 732.12 738.01 728.33 735.85 725.75 735.49
  Q 712.49 733.69 702.59 724.39
  Q 700.63 722.55 699.00 725.15
  Q 697.15 717.24 704.02 713.26
  Q 816.01 648.39 927.96 583.45
  Q 932.34 580.91 940.96 580.11
  Z"
/>
<path fill="#b3cde8" d="
  M 539.72 590.23
  Q 541.78 594.07 544.21 597.79
  Q 554.64 613.73 564.23 626.22
  C 572.41 636.88 581.53 647.28 587.96 659.03
  Q 597.25 675.97 602.00 694.76
  Q 602.40 696.32 600.97 699.00
  Q 595.51 709.20 590.46 719.15
  C 587.03 719.63 583.86 720.31 580.52 719.79
  Q 574.65 718.88 569.14 716.23
  C 566.06 710.51 561.39 705.39 554.21 707.52
  Q 552.49 703.61 552.33 701.10
  Q 551.15 682.53 544.71 663.53
  Q 533.35 630.02 501.52 614.97
  Q 511.78 604.54 522.81 597.57
  Q 530.78 592.53 539.72 590.23
  Z"
/>
<path fill="#cde8fd" d="
  M 501.52 614.97
  Q 533.35 630.02 544.71 663.53
  Q 551.15 682.53 552.33 701.10
  Q 552.49 703.61 554.21 707.52
  L 525.86 718.21
  Q 524.50 717.58 522.37 718.08
  C 520.92 718.42 520.29 719.30 520.29 720.77
  Q 520.28 725.96 520.54 731.50
  Q 521.34 749.30 522.32 767.89
  Q 522.37 768.69 522.68 770.28
  Q 522.93 771.55 522.87 772.71
  Q 512.15 764.93 506.38 753.41
  Q 504.75 750.15 503.05 746.69
  Q 503.01 741.52 504.61 736.35
  C 505.23 734.36 505.22 732.26 505.04 730.29
  Q 503.35 712.50 502.77 698.38
  Q 502.51 692.25 501.77 686.78
  C 500.47 677.14 497.42 667.52 495.35 658.92
  Q 493.09 649.58 493.90 638.53
  Q 494.90 625.07 501.52 614.97
  Z"
/>
<path fill="#213343" d="
  M 943.01 647.94
  Q 916.41 663.47 889.84 679.05
  Q 827.10 715.83 763.99 751.99
  Q 755.97 756.58 746.44 757.17
  Q 739.36 755.96 731.45 751.47
  Q 717.20 742.44 702.52 732.82
  Q 700.28 731.36 699.63 729.63
  Q 698.85 727.59 699.00 725.15
  Q 700.63 722.55 702.59 724.39
  Q 712.49 733.69 725.75 735.49
  C 728.33 735.85 732.12 738.01 734.25 739.89
  C 747.66 751.69 763.42 738.71 775.33 732.12
  C 791.04 723.43 807.07 715.00 822.25 706.64
  Q 825.90 704.63 829.36 702.27
  C 832.40 700.20 835.99 698.99 839.25 697.17
  C 844.90 694.01 850.88 691.32 856.21 687.60
  Q 863.67 682.38 872.24 678.86
  C 878.55 676.26 883.97 672.27 889.94 669.24
  Q 894.32 667.01 898.94 664.05
  C 902.95 661.49 907.41 659.54 911.51 656.96
  Q 920.19 651.48 928.80 646.69
  C 932.62 644.57 936.69 642.63 941.12 642.98
  A 1.10 1.09 85.6 0 1 942.10 643.83
  L 943.01 647.94
  Z"
/>
<path fill="#93b0ce" d="
  M 944.87 647.30
  L 956.97 717.85
  L 757.90 832.26
  Q 756.48 822.71 755.04 813.25
  Q 752.80 798.40 755.17 775.45
  Q 755.77 769.65 756.90 764.24
  C 757.46 761.57 752.02 758.68 749.96 758.12
  Q 748.32 757.68 746.44 757.17
  Q 755.97 756.58 763.99 751.99
  Q 827.10 715.83 889.84 679.05
  Q 916.41 663.47 943.01 647.94
  Q 943.44 648.23 944.87 647.30
  Z"
/>
<path fill="#f9a99b" d="
  M 673.48 651.42
  C 681.32 682.63 689.44 711.87 699.04 742.44
  Q 702.02 751.91 704.72 761.61
  Q 711.14 784.67 716.56 801.72
  Q 721.56 817.49 730.11 835.87
  Q 732.64 843.16 740.67 848.75
  Q 744.88 857.33 747.15 868.32
  C 744.89 867.41 743.63 865.51 741.03 865.35
  A 1.41 1.40 -80.5 0 0 739.58 866.39
  C 739.01 868.53 738.44 871.53 736.57 872.90
  A 1.53 1.53 0.0 0 1 734.57 872.72
  C 731.48 869.48 731.53 866.20 731.00 862.00
  C 730.16 855.34 726.06 849.67 720.65 844.09
  Q 714.38 837.64 709.69 834.05
  Q 703.24 829.12 699.94 825.91
  C 703.81 824.16 703.01 820.27 701.55 817.28
  Q 690.82 795.33 681.93 778.35
  Q 668.08 751.93 658.32 724.95
  Q 656.42 719.73 650.74 709.70
  Q 652.54 700.13 655.82 690.14
  Q 655.84 690.08 657.39 685.95
  C 660.80 676.84 659.80 666.25 657.03 657.27
  L 673.48 651.42
  Z"
/>
<path fill="#b3cde8" d="
  M 1459.87 874.88
  C 1452.07 872.13 1445.52 872.31 1438.52 876.25
  Q 1379.95 909.26 1334.80 935.70
  L 1334.72 935.36
  Q 1334.62 934.90 1334.17 934.76
  C 1331.19 933.88 1328.86 931.66 1326.06 930.13
  Q 1285.09 907.71 1243.09 883.11
  C 1229.49 875.14 1218.63 865.19 1215.51 849.00
  Q 1214.07 841.53 1213.07 833.82
  Q 1208.53 799.05 1207.33 763.70
  Q 1206.12 727.75 1210.49 689.08
  C 1211.95 676.13 1224.35 676.40 1233.12 681.59
  Q 1249.79 691.44 1265.71 701.01
  C 1324.98 736.62 1379.85 768.84 1433.30 798.40
  Q 1439.48 801.82 1446.85 808.75
  C 1457.60 818.86 1463.65 832.66 1464.08 847.50
  Q 1464.49 861.64 1459.87 874.88
  Z"
/>
<path fill="#f9a99b" d="
  M 569.14 716.23
  C 569.09 722.32 569.22 729.47 571.97 735.03
  Q 577.67 746.56 580.89 756.99
  Q 581.01 757.38 581.37 757.56
  Q 581.69 757.72 581.89 757.54
  C 581.68 758.44 581.48 759.26 581.97 760.14
  Q 589.37 773.57 602.34 782.64
  Q 613.18 790.21 624.03 794.75
  Q 627.33 795.81 630.60 796.02
  C 633.96 796.23 635.65 796.95 637.45 799.54
  C 648.55 815.50 664.09 829.01 683.57 831.70
  Q 685.38 831.95 686.47 833.33
  Q 686.79 833.74 686.81 834.27
  C 686.87 836.67 686.67 838.97 687.19 841.37
  C 688.60 847.90 693.67 853.53 698.85 857.67
  A 2.05 1.94 -86.2 0 1 699.38 858.31
  L 699.71 858.96
  C 685.57 863.32 669.72 860.18 659.37 849.25
  C 655.14 844.77 652.06 840.24 646.62 836.62
  Q 640.91 832.83 629.00 828.26
  Q 586.96 810.39 549.33 784.37
  Q 548.95 781.80 547.91 779.30
  Q 546.08 774.94 546.05 774.87
  Q 535.99 746.69 525.86 718.21
  L 554.21 707.52
  C 561.39 705.39 566.06 710.51 569.14 716.23
  Z"
/>
<path fill="#ffffff" d="
  M 699.94 825.91
  L 643.90 778.78
  Q 641.22 777.33 637.48 774.54
  Q 633.39 771.49 634.74 766.66
  Q 642.59 738.61 650.74 709.70
  Q 656.42 719.73 658.32 724.95
  Q 668.08 751.93 681.93 778.35
  Q 690.82 795.33 701.55 817.28
  C 703.01 820.27 703.81 824.16 699.94 825.91
  Z"
/>
<path fill="#93b0ce" d="
  M 569.14 716.23
  Q 574.65 718.88 580.52 719.79
  C 583.86 720.31 587.03 719.63 590.46 719.15
  L 581.89 757.54
  Q 581.69 757.72 581.37 757.56
  Q 581.01 757.38 580.89 756.99
  Q 577.67 746.56 571.97 735.03
  C 569.22 729.47 569.09 722.32 569.14 716.23
  Z"
/>
<path fill="#93b0ce" d="
  M 525.86 718.21
  Q 535.99 746.69 546.05 774.87
  Q 546.08 774.94 547.91 779.30
  Q 548.95 781.80 549.33 784.37
  Q 538.69 781.25 530.96 777.55
  Q 527.50 775.90 522.87 772.71
  Q 522.93 771.55 522.68 770.28
  Q 522.37 768.69 522.32 767.89
  Q 521.34 749.30 520.54 731.50
  Q 520.28 725.96 520.29 720.77
  C 520.29 719.30 520.92 718.42 522.37 718.08
  Q 524.50 717.58 525.86 718.21
  Z"
/>
<path fill="#213343" d="
  M 522.87 772.71
  Q 527.50 775.90 530.96 777.55
  Q 538.69 781.25 549.33 784.37
  Q 586.96 810.39 629.00 828.26
  Q 632.51 853.01 634.26 873.00
  Q 637.44 909.33 634.07 946.31
  Q 633.21 955.72 632.33 966.23
  Q 628.52 1012.14 624.91 1058.02
  Q 623.70 1073.40 622.64 1084.78
  Q 621.68 1095.10 620.92 1104.71
  Q 616.96 1154.71 612.54 1204.40
  L 610.93 1211.61
  Q 602.97 1216.11 593.75 1215.14
  Q 590.22 1214.77 586.93 1214.26
  L 584.24 1204.41
  C 580.51 1175.73 576.86 1148.99 573.56 1118.19
  Q 572.43 1107.61 571.77 1098.26
  C 570.18 1075.95 569.13 1053.02 570.76 1031.44
  Q 572.00 1015.07 571.89 1011.08
  Q 571.47 997.18 568.66 985.19
  Q 564.93 969.28 558.58 955.12
  A 1.17 1.16 -32.9 0 0 556.75 954.73
  Q 556.00 955.39 555.78 956.36
  Q 552.29 972.11 548.58 988.81
  C 545.66 1001.97 541.24 1017.98 534.89 1029.89
  Q 504.84 1086.32 465.05 1154.07
  L 459.38 1159.21
  Q 447.74 1156.70 440.69 1147.33
  L 466.34 1058.05
  Q 471.16 1041.47 474.74 1033.00
  Q 479.26 1022.30 482.63 1013.17
  Q 488.61 996.98 489.08 978.58
  Q 489.68 955.43 487.94 922.53
  Q 487.32 910.77 485.44 899.12
  Q 483.21 885.32 481.04 870.33
  C 477.27 844.42 480.42 818.38 488.06 793.70
  C 489.35 789.50 491.64 783.88 493.08 778.85
  Q 496.75 764.82 498.52 749.78
  L 503.05 746.69
  Q 504.75 750.15 506.38 753.41
  Q 512.15 764.93 522.87 772.71
  Z"
/>
<path fill="#355875" d="
  M 498.52 749.78
  Q 496.75 764.82 493.08 778.85
  Q 481.92 789.40 475.76 803.19
  Q 472.77 809.86 470.25 821.06
  Q 468.32 829.63 466.99 838.21
  Q 463.77 859.18 462.94 879.48
  C 461.93 904.28 456.79 929.29 448.09 951.32
  Q 440.74 969.93 428.47 989.18
  Q 422.34 993.78 418.33 999.10
  C 415.87 1002.36 413.91 1006.76 410.79 1009.40
  C 407.02 1012.57 403.68 1015.83 400.87 1019.90
  Q 398.85 1022.81 395.71 1023.56
  Q 385.11 1026.08 372.80 1029.28
  Q 369.36 1030.17 367.60 1027.76
  C 363.74 1022.46 371.04 1010.90 374.34 1008.03
  Q 389.26 995.02 401.81 983.56
  Q 406.41 979.37 411.87 973.68
  Q 412.43 972.86 412.79 972.33
  Q 419.17 962.83 424.11 952.57
  Q 435.93 927.98 439.35 904.04
  Q 440.73 894.42 441.44 883.27
  C 443.17 856.47 445.09 833.32 451.86 809.21
  Q 456.19 793.80 463.34 781.16
  Q 475.14 760.29 498.52 749.78
  Z"
/>
<path fill="#b3cde8" d="
  M 731.45 751.47
  Q 739.36 755.96 746.44 757.17
  Q 748.32 757.68 749.96 758.12
  C 752.02 758.68 757.46 761.57 756.90 764.24
  Q 755.77 769.65 755.17 775.45
  Q 752.80 798.40 755.04 813.25
  Q 756.48 822.71 757.90 832.26
  Q 751.27 835.19 744.93 838.60
  Q 741.61 840.39 740.63 843.43
  Q 740.02 845.34 740.67 848.75
  Q 732.64 843.16 730.11 835.87
  Q 731.23 790.43 731.65 763.50
  Q 731.71 759.30 731.45 751.47
  Z"
/>
<path fill="#355875" d="
  M 377.59 830.23
  Q 377.46 830.66 376.89 830.51
  Q 376.59 830.43 376.37 830.21
  C 370.70 824.44 371.15 816.62 370.78 808.98
  C 370.38 800.83 367.76 795.25 361.62 789.98
  C 354.55 783.92 343.72 785.86 336.21 789.64
  Q 326.69 794.44 317.42 799.28
  C 308.97 803.69 300.46 808.63 293.37 814.60
  Q 268.89 835.21 261.50 867.15
  Q 260.70 875.60 259.91 883.90
  Q 259.07 892.75 259.20 900.61
  Q 259.85 940.90 260.07 981.57
  Q 260.08 982.73 258.67 983.16
  A 1.86 1.84 49.6 0 1 257.31 983.04
  C 253.98 981.39 249.15 979.86 249.40 975.21
  Q 250.88 946.85 251.26 938.11
  Q 252.20 915.97 250.84 890.49
  C 250.47 883.55 250.59 877.28 251.99 871.26
  Q 254.73 859.46 255.70 854.03
  Q 260.42 842.91 267.70 830.95
  Q 275.18 818.67 286.50 810.36
  Q 309.09 793.77 334.47 782.41
  C 371.40 765.87 383.13 802.56 377.59 830.23
  Z"
/>
<path fill="#ffffff" d="
  M 493.08 778.85
  C 491.64 783.88 489.35 789.50 488.06 793.70
  C 480.42 818.38 477.27 844.42 481.04 870.33
  Q 483.21 885.32 485.44 899.12
  Q 487.32 910.77 487.94 922.53
  Q 489.68 955.43 489.08 978.58
  Q 488.61 996.98 482.63 1013.17
  Q 479.26 1022.30 474.74 1033.00
  Q 471.16 1041.47 466.34 1058.05
  L 408.04 1020.70
  Q 418.74 1011.41 425.89 998.64
  Q 428.45 994.07 428.47 989.18
  Q 440.74 969.93 448.09 951.32
  C 456.79 929.29 461.93 904.28 462.94 879.48
  Q 463.77 859.18 466.99 838.21
  Q 468.32 829.63 470.25 821.06
  Q 472.77 809.86 475.76 803.19
  Q 481.92 789.40 493.08 778.85
  Z"
/>
<path fill="#93b0ce" d="
  M 699.94 825.91
  Q 703.24 829.12 709.69 834.05
  Q 714.38 837.64 720.65 844.09
  C 726.06 849.67 730.16 855.34 731.00 862.00
  C 731.53 866.20 731.48 869.48 734.57 872.72
  A 1.53 1.53 0.0 0 0 736.57 872.90
  C 738.44 871.53 739.01 868.53 739.58 866.39
  A 1.41 1.40 -80.5 0 1 741.03 865.35
  C 743.63 865.51 744.89 867.41 747.15 868.32
  Q 748.10 869.73 749.26 870.74
  Q 758.84 878.99 794.75 909.70
  Q 796.95 913.32 799.43 916.08
  Q 808.38 926.00 818.32 934.87
  Q 861.78 973.70 903.34 1012.78
  A 1.93 1.93 0.0 0 1 903.40 1015.54
  L 902.69 1016.27
  Q 902.20 1016.77 902.73 1017.23
  L 998.28 1099.55
  Q 991.11 1102.72 989.54 1109.09
  Q 948.95 1074.19 908.02 1038.98
  C 905.26 1036.62 901.90 1034.63 899.39 1032.58
  C 847.32 989.98 796.96 945.47 747.62 899.75
  C 743.56 895.99 739.65 893.12 734.76 890.97
  C 731.77 889.65 729.44 889.02 727.77 885.73
  Q 726.76 883.74 725.79 881.74
  Q 724.95 880.01 722.66 878.28
  L 699.71 858.96
  L 699.38 858.31
  A 2.05 1.94 -86.2 0 0 698.85 857.67
  C 693.67 853.53 688.60 847.90 687.19 841.37
  C 686.67 838.97 686.87 836.67 686.81 834.27
  Q 686.79 833.74 686.47 833.33
  Q 685.38 831.95 683.57 831.70
  C 664.09 829.01 648.55 815.50 637.45 799.54
  C 635.65 796.95 633.96 796.23 630.60 796.02
  Q 627.33 795.81 624.03 794.75
  Q 630.21 792.23 635.92 789.67
  C 638.04 788.71 641.27 787.14 642.66 785.20
  Q 643.41 784.17 643.50 782.11
  Q 643.56 780.57 643.90 778.78
  L 699.94 825.91
  Z"
/>
<path fill="#cde8fd" d="
  M 377.59 830.23
  Q 377.60 830.99 377.76 831.25
  Q 391.55 854.04 405.52 877.35
  L 315.00 929.74
  Q 313.66 927.66 312.10 925.63
  Q 310.53 923.58 309.83 921.43
  Q 307.08 912.94 303.55 905.64
  Q 293.77 885.40 274.42 873.62
  Q 268.27 869.88 261.50 867.15
  Q 268.89 835.21 293.37 814.60
  C 300.46 808.63 308.97 803.69 317.42 799.28
  Q 326.69 794.44 336.21 789.64
  C 343.72 785.86 354.55 783.92 361.62 789.98
  C 367.76 795.25 370.38 800.83 370.78 808.98
  C 371.15 816.62 370.70 824.44 376.37 830.21
  Q 376.59 830.43 376.89 830.51
  Q 377.46 830.66 377.59 830.23
  Z"
/>
<path fill="#b3cde8" d="
  M 255.70 854.03
  Q 254.73 859.46 251.99 871.26
  C 250.59 877.28 250.47 883.55 250.84 890.49
  Q 252.20 915.97 251.26 938.11
  Q 250.88 946.85 249.40 975.21
  C 249.15 979.86 253.98 981.39 257.31 983.04
  A 1.86 1.84 49.6 0 0 258.67 983.16
  Q 260.08 982.73 260.07 981.57
  Q 259.85 940.90 259.20 900.61
  Q 259.07 892.75 259.91 883.90
  Q 260.70 875.60 261.50 867.15
  Q 268.27 869.88 274.42 873.62
  Q 293.77 885.40 303.55 905.64
  Q 307.08 912.94 309.83 921.43
  Q 310.53 923.58 312.10 925.63
  Q 313.66 927.66 315.00 929.74
  Q 314.91 936.38 317.13 943.84
  Q 319.56 952.05 319.98 954.21
  Q 321.99 964.59 322.18 974.44
  Q 322.74 1005.07 321.67 1048.71
  Q 321.54 1054.35 321.06 1057.88
  Q 319.14 1072.29 315.41 1086.23
  Q 315.21 1086.97 316.34 1087.43
  Q 309.80 1091.58 302.96 1094.97
  Q 297.72 1097.56 292.26 1097.70
  Q 285.77 1097.87 281.20 1095.00
  Q 284.92 1087.66 285.72 1079.23
  Q 288.25 1081.08 291.31 1080.04
  Q 293.70 1079.22 296.25 1078.32
  C 305.41 1075.06 311.36 1065.89 312.75 1056.58
  Q 314.33 1045.97 315.03 1036.21
  Q 316.77 1011.76 315.80 981.18
  C 314.66 944.99 299.54 910.52 270.61 887.92
  Q 268.71 886.44 267.12 888.25
  Q 266.86 888.54 266.74 888.94
  Q 265.86 891.96 268.01 894.07
  Q 288.46 914.04 297.46 939.13
  Q 304.87 959.78 305.32 980.83
  Q 305.73 999.89 305.98 1016.66
  Q 306.23 1033.37 304.02 1048.29
  C 302.83 1056.33 299.48 1067.85 292.65 1072.66
  Q 290.49 1074.19 285.72 1075.30
  Q 281.30 1041.61 255.09 1020.16
  C 245.46 1012.28 233.33 1012.20 221.91 1015.99
  Q 217.42 1017.48 211.87 1019.76
  Q 209.58 1007.67 208.71 999.26
  Q 208.30 995.30 208.29 988.00
  Q 208.22 951.92 208.44 916.25
  C 208.51 904.57 208.36 893.22 212.28 882.06
  Q 219.27 862.12 240.11 856.58
  Q 247.72 854.56 255.70 854.03
  Z"
/>
<path fill="#355875" d="
  M 1459.87 874.88
  L 1486.61 890.22
  Q 1487.97 891.10 1491.06 892.97
  C 1496.59 896.31 1500.79 902.50 1499.59 909.01
  Q 1499.28 910.69 1497.20 916.39
  Q 1494.68 916.59 1492.67 917.78
  L 1491.68 912.95
  A 1.79 1.78 -89.5 0 0 1490.32 911.56
  C 1483.39 910.00 1479.38 912.47 1472.23 916.41
  C 1459.86 923.24 1448.06 930.16 1435.79 936.97
  Q 1428.36 941.10 1419.82 946.00
  C 1390.13 963.05 1361.58 979.91 1332.86 996.70
  C 1311.90 1008.95 1290.84 1021.89 1271.17 1033.64
  C 1265.96 1036.75 1256.83 1039.54 1251.31 1035.20
  C 1238.95 1025.49 1226.21 1019.50 1210.09 1021.81
  Q 1205.28 1016.19 1208.95 1010.51
  C 1210.22 1008.55 1212.86 1006.41 1215.16 1005.04
  Q 1218.63 1002.97 1222.41 1000.73
  Q 1278.31 967.71 1334.80 935.70
  Q 1379.95 909.26 1438.52 876.25
  C 1445.52 872.31 1452.07 872.13 1459.87 874.88
  Z"
/>
<path fill="#93b0ce" d="
  M 405.52 877.35
  Q 406.75 882.21 407.71 887.50
  C 412.57 914.21 414.50 941.22 412.83 968.34
  Q 412.76 969.44 412.38 971.01
  Q 412.08 972.25 411.87 973.68
  Q 406.41 979.37 401.81 983.56
  Q 389.26 995.02 374.34 1008.03
  C 371.04 1010.90 363.74 1022.46 367.60 1027.76
  Q 369.36 1030.17 372.80 1029.28
  Q 385.11 1026.08 395.71 1023.56
  Q 398.85 1022.81 400.87 1019.90
  C 403.68 1015.83 407.02 1012.57 410.79 1009.40
  C 413.91 1006.76 415.87 1002.36 418.33 999.10
  Q 422.34 993.78 428.47 989.18
  Q 428.45 994.07 425.89 998.64
  Q 418.74 1011.41 408.04 1020.70
  Q 407.48 1028.70 403.41 1034.98
  C 400.78 1039.03 396.39 1042.12 392.32 1044.66
  C 367.71 1060.08 341.88 1073.60 316.34 1087.43
  Q 315.21 1086.97 315.41 1086.23
  Q 319.14 1072.29 321.06 1057.88
  Q 321.54 1054.35 321.67 1048.71
  Q 322.74 1005.07 322.18 974.44
  Q 321.99 964.59 319.98 954.21
  Q 319.56 952.05 317.13 943.84
  Q 314.91 936.38 315.00 929.74
  L 405.52 877.35
  Z"
/>
<path fill="#b3cde8" d="
  M 989.54 1109.09
  Q 990.82 1115.76 994.34 1120.18
  Q 1007.97 1137.31 1027.21 1151.61
  Q 1027.62 1151.91 1027.67 1152.42
  Q 1027.83 1153.94 1027.49 1155.46
  L 1025.31 1193.63
  Q 1021.41 1191.55 1017.74 1189.47
  Q 988.09 1172.65 957.26 1155.19
  Q 897.65 1121.44 844.28 1090.13
  C 826.46 1079.68 807.49 1067.78 790.82 1059.41
  Q 782.51 1055.24 767.03 1049.78
  Q 763.27 1037.73 750.22 1036.99
  Q 739.14 1029.31 735.59 1016.76
  Q 733.95 1010.98 734.00 1001.10
  C 734.21 960.90 731.34 921.02 722.85 881.89
  Q 722.52 880.34 722.66 878.28
  Q 724.95 880.01 725.79 881.74
  Q 726.76 883.74 727.77 885.73
  C 729.44 889.02 731.77 889.65 734.76 890.97
  C 739.65 893.12 743.56 895.99 747.62 899.75
  C 796.96 945.47 847.32 989.98 899.39 1032.58
  C 901.90 1034.63 905.26 1036.62 908.02 1038.98
  Q 948.95 1074.19 989.54 1109.09
  Z"
/>
<path fill="#93b0ce" d="
  M 285.72 1079.23
  L 285.72 1075.30
  Q 290.49 1074.19 292.65 1072.66
  C 299.48 1067.85 302.83 1056.33 304.02 1048.29
  Q 306.23 1033.37 305.98 1016.66
  Q 305.73 999.89 305.32 980.83
  Q 304.87 959.78 297.46 939.13
  Q 288.46 914.04 268.01 894.07
  Q 265.86 891.96 266.74 888.94
  Q 266.86 888.54 267.12 888.25
  Q 268.71 886.44 270.61 887.92
  C 299.54 910.52 314.66 944.99 315.80 981.18
  Q 316.77 1011.76 315.03 1036.21
  Q 314.33 1045.97 312.75 1056.58
  C 311.36 1065.89 305.41 1075.06 296.25 1078.32
  Q 293.70 1079.22 291.31 1080.04
  Q 288.25 1081.08 285.72 1079.23
  Z"
/>
<path fill="#b3cde8" d="
  M 1031.28 1043.65
  Q 1025.37 1060.22 1024.65 1077.72
  Q 1023.86 1096.80 1026.46 1115.76
  Q 1019.20 1111.86 1012.28 1107.47
  C 1009.58 1105.75 1006.26 1102.47 1002.74 1101.01
  Q 1001.71 1100.58 998.28 1099.55
  L 902.73 1017.23
  Q 902.20 1016.77 902.69 1016.27
  L 903.40 1015.54
  A 1.93 1.93 0.0 0 0 903.34 1012.78
  Q 861.78 973.70 818.32 934.87
  Q 808.38 926.00 799.43 916.08
  Q 796.95 913.32 794.75 909.70
  Q 809.94 915.33 821.47 922.03
  Q 926.42 982.98 1031.28 1043.65
  Z"
/>
<path fill="#32425b" d="
  M 1492.67 917.78
  L 1450.77 941.92
  Q 1450.43 942.11 1450.04 942.12
  Q 1449.70 942.12 1449.45 942.35
  Q 1449.14 942.66 1448.75 942.89
  Q 1412.37 963.76 1375.95 984.66
  C 1374.15 985.69 1372.67 987.05 1370.80 987.97
  Q 1368.82 988.93 1367.04 989.93
  Q 1350.82 999.02 1333.62 1009.08
  Q 1332.86 1009.52 1332.02 1009.82
  Q 1331.17 1010.12 1330.51 1010.54
  Q 1324.80 1014.16 1316.49 1018.94
  Q 1287.98 1035.32 1259.49 1051.73
  Q 1259.24 1051.88 1258.44 1051.86
  L 1237.99 1042.05
  L 1210.09 1021.81
  C 1226.21 1019.50 1238.95 1025.49 1251.31 1035.20
  C 1256.83 1039.54 1265.96 1036.75 1271.17 1033.64
  C 1290.84 1021.89 1311.90 1008.95 1332.86 996.70
  C 1361.58 979.91 1390.13 963.05 1419.82 946.00
  Q 1428.36 941.10 1435.79 936.97
  C 1448.06 930.16 1459.86 923.24 1472.23 916.41
  C 1479.38 912.47 1483.39 910.00 1490.32 911.56
  A 1.79 1.78 -89.5 0 1 1491.68 912.95
  L 1492.67 917.78
  Z"
/>
<path fill="#93b0ce" d="
  M 1497.20 916.39
  L 1497.52 1033.72
  Q 1496.28 1072.83 1497.16 1111.95
  Q 1497.41 1122.98 1496.35 1127.51
  C 1494.36 1135.97 1487.97 1142.48 1480.61 1146.87
  Q 1471.36 1152.38 1463.13 1157.99
  L 1431.59 1177.88
  Q 1430.40 1177.66 1428.63 1178.14
  C 1421.72 1179.98 1416.97 1183.87 1411.47 1187.92
  Q 1407.58 1190.77 1402.74 1193.63
  Q 1372.28 1211.61 1340.72 1230.26
  Q 1312.45 1246.96 1282.40 1264.86
  C 1274.08 1269.81 1264.73 1271.64 1256.38 1265.60
  Q 1257.70 1167.20 1258.87 1068.74
  Q 1258.97 1060.63 1258.90 1052.52
  Q 1258.90 1052.27 1258.80 1052.12
  Q 1258.65 1051.91 1258.44 1051.86
  Q 1259.24 1051.88 1259.49 1051.73
  Q 1287.98 1035.32 1316.49 1018.94
  Q 1324.80 1014.16 1330.51 1010.54
  Q 1331.17 1010.12 1332.02 1009.82
  Q 1332.86 1009.52 1333.62 1009.08
  Q 1350.82 999.02 1367.04 989.93
  Q 1368.82 988.93 1370.80 987.97
  C 1372.67 987.05 1374.15 985.69 1375.95 984.66
  Q 1412.37 963.76 1448.75 942.89
  Q 1449.14 942.66 1449.45 942.35
  Q 1449.70 942.12 1450.04 942.12
  Q 1450.43 942.11 1450.77 941.92
  L 1492.67 917.78
  Q 1494.68 916.59 1497.20 916.39
  Z"
/>
<path fill="#ffffff" d="
  M 584.24 1204.41
  Q 575.06 1204.20 566.00 1204.21
  Q 560.19 1204.22 543.87 1201.24
  Q 528.26 1198.38 510.28 1189.82
  C 499.24 1184.56 491.14 1176.17 482.08 1168.47
  Q 477.79 1164.83 472.20 1162.00
  C 468.61 1160.18 466.23 1157.78 465.05 1154.07
  Q 504.84 1086.32 534.89 1029.89
  C 541.24 1017.98 545.66 1001.97 548.58 988.81
  Q 552.29 972.11 555.78 956.36
  Q 556.00 955.39 556.75 954.73
  A 1.17 1.16 -32.9 0 1 558.58 955.12
  Q 564.93 969.28 568.66 985.19
  Q 571.47 997.18 571.89 1011.08
  Q 572.00 1015.07 570.76 1031.44
  C 569.13 1053.02 570.18 1075.95 571.77 1098.26
  Q 572.43 1107.61 573.56 1118.19
  C 576.86 1148.99 580.51 1175.73 584.24 1204.41
  Z"
/>
<path fill="#213343" d="
  M 285.72 1075.30
  L 285.72 1079.23
  Q 284.92 1087.66 281.20 1095.00
  L 263.84 1109.61
  Q 246.44 1106.80 231.11 1097.89
  C 214.79 1088.40 206.14 1072.71 205.98 1053.99
  Q 205.86 1039.16 209.81 1026.04
  Q 210.90 1022.42 211.87 1019.76
  Q 217.42 1017.48 221.91 1015.99
  C 233.33 1012.20 245.46 1012.28 255.09 1020.16
  Q 281.30 1041.61 285.72 1075.30
  Z
  M 253.2939 1087.8511
  A 27.95 14.94 57.8 0 0 251.0421 1056.2388
  A 27.95 14.94 57.8 0 0 223.5061 1040.5489
  A 27.95 14.94 57.8 0 0 225.7579 1072.1612
  A 27.95 14.94 57.8 0 0 253.2939 1087.8511
  Z"
/>
<path fill="#dde9f7" d="
  M 408.04 1020.70
  L 466.34 1058.05
  L 440.69 1147.33
  C 438.10 1148.07 435.31 1148.24 432.26 1149.66
  L 431.77 1144.39
  A 0.85 0.84 82.1 0 0 430.77 1143.63
  C 423.70 1145.01 416.79 1146.73 409.61 1147.75
  Q 328.78 1159.28 263.84 1109.61
  L 281.20 1095.00
  Q 285.77 1097.87 292.26 1097.70
  Q 297.72 1097.56 302.96 1094.97
  Q 309.80 1091.58 316.34 1087.43
  C 341.88 1073.60 367.71 1060.08 392.32 1044.66
  C 396.39 1042.12 400.78 1039.03 403.41 1034.98
  Q 407.48 1028.70 408.04 1020.70
  Z"
/>
<path fill="#dde9f7" d="
  M 759.09 1048.26
  L 767.03 1049.78
  Q 782.51 1055.24 790.82 1059.41
  C 807.49 1067.78 826.46 1079.68 844.28 1090.13
  Q 897.65 1121.44 957.26 1155.19
  Q 988.09 1172.65 1017.74 1189.47
  Q 1021.41 1191.55 1025.31 1193.63
  Q 1034.52 1210.80 1054.08 1214.15
  Q 1057.30 1214.71 1062.14 1215.06
  Q 1076.28 1224.05 1090.16 1232.84
  Q 1101.18 1239.83 1132.13 1257.31
  Q 1152.53 1268.83 1163.91 1274.32
  C 1173.15 1278.78 1184.52 1281.63 1194.92 1280.63
  Q 1199.01 1280.23 1202.34 1279.88
  L 1210.31 1282.51
  Q 1208.87 1291.35 1212.50 1299.43
  Q 1213.75 1302.22 1216.93 1303.29
  Q 1225.51 1306.19 1234.95 1303.50
  C 1238.37 1302.52 1241.07 1301.73 1241.09 1297.31
  Q 1241.12 1290.64 1242.31 1271.96
  Q 1246.52 1269.36 1251.06 1267.35
  Q 1253.82 1266.12 1256.38 1265.60
  C 1264.73 1271.64 1274.08 1269.81 1282.40 1264.86
  Q 1312.45 1246.96 1340.72 1230.26
  Q 1372.28 1211.61 1402.74 1193.63
  Q 1407.58 1190.77 1411.47 1187.92
  C 1416.97 1183.87 1421.72 1179.98 1428.63 1178.14
  Q 1430.40 1177.66 1431.59 1177.88
  Q 1433.53 1189.61 1444.46 1190.73
  Q 1451.57 1191.46 1456.09 1190.40
  Q 1459.86 1189.52 1461.75 1185.45
  Q 1462.61 1183.61 1462.74 1179.44
  Q 1463.06 1168.84 1463.13 1157.99
  Q 1471.36 1152.38 1480.61 1146.87
  C 1487.97 1142.48 1494.36 1135.97 1496.35 1127.51
  Q 1497.41 1122.98 1497.16 1111.95
  Q 1496.28 1072.83 1497.52 1033.72
  Q 1498.98 1033.14 1499.87 1033.63
  Q 1567.16 1070.60 1632.62 1110.12
  C 1643.49 1116.68 1653.78 1123.16 1663.00 1131.84
  C 1675.80 1143.88 1680.87 1158.11 1672.63 1174.82
  C 1666.97 1186.31 1654.55 1193.76 1643.71 1199.88
  Q 1564.96 1244.36 1508.41 1277.44
  Q 1470.73 1299.48 1436.93 1319.15
  Q 1423.97 1326.69 1407.25 1334.10
  C 1395.12 1339.48 1384.47 1347.32 1373.35 1354.02
  Q 1362.50 1360.55 1348.05 1362.08
  Q 1320.33 1365.02 1294.04 1360.16
  C 1289.20 1359.27 1284.07 1358.34 1279.53 1356.89
  Q 1275.28 1355.53 1270.94 1354.08
  C 1258.28 1349.85 1248.05 1344.20 1236.42 1337.23
  Q 1146.81 1283.52 1057.54 1230.87
  C 1053.80 1228.66 1049.59 1225.58 1045.55 1225.23
  C 1038.21 1224.60 1031.33 1223.13 1026.14 1217.35
  C 1022.17 1212.94 1017.50 1208.87 1012.48 1206.00
  Q 956.44 1173.90 900.44 1141.72
  Q 892.00 1136.86 883.16 1131.66
  Q 841.69 1107.21 829.50 1099.76
  Q 808.63 1086.99 778.25 1067.74
  Q 766.16 1060.07 759.09 1048.26
  Z"
/>
<path fill="#355875" d="
  M 767.03 1049.78
  L 759.09 1048.26
  Q 752.99 1044.11 750.22 1036.99
  Q 763.27 1037.73 767.03 1049.78
  Z"
/>
<path fill="#93b0ce" d="
  M 253.2939 1087.8511
  A 27.95 14.94 57.8 0 1 225.7579 1072.1612
  A 27.95 14.94 57.8 0 1 223.5061 1040.5489
  A 27.95 14.94 57.8 0 1 251.0421 1056.2388
  A 27.95 14.94 57.8 0 1 253.2939 1087.8511
  Z
  M 247.3907 1077.9249
  A 15.74 8.31 58.6 0 0 246.2830 1060.1604
  A 15.74 8.31 58.6 0 0 230.9893 1051.0551
  A 15.74 8.31 58.6 0 0 232.0970 1068.8196
  A 15.74 8.31 58.6 0 0 247.3907 1077.9249
  Z"
/>
<path fill="#b3cde8" d="
  M 1258.44 1051.86
  Q 1258.65 1051.91 1258.80 1052.12
  Q 1258.90 1052.27 1258.90 1052.52
  Q 1258.97 1060.63 1258.87 1068.74
  Q 1257.70 1167.20 1256.38 1265.60
  Q 1253.82 1266.12 1251.06 1267.35
  Q 1246.52 1269.36 1242.31 1271.96
  L 1241.19 1270.38
  Q 1241.18 1267.87 1240.95 1265.02
  Q 1240.73 1262.29 1239.96 1259.84
  C 1238.18 1254.22 1236.20 1248.56 1235.31 1242.64
  Q 1234.63 1238.13 1234.57 1234.75
  Q 1233.91 1196.98 1234.30 1125.50
  Q 1234.32 1121.49 1230.99 1120.43
  L 1237.99 1042.05
  L 1258.44 1051.86
  Z"
/>
<path fill="#355875" d="
  M 1065.24 1067.30
  Q 1065.77 1078.20 1066.24 1088.50
  Q 1067.79 1123.13 1066.28 1157.75
  Q 1065.02 1186.62 1062.14 1215.06
  Q 1057.30 1214.71 1054.08 1214.15
  Q 1034.52 1210.80 1025.31 1193.63
  L 1027.49 1155.46
  Q 1029.19 1155.67 1032.22 1156.57
  C 1037.58 1158.17 1047.22 1158.24 1048.09 1150.81
  Q 1048.47 1147.50 1047.66 1142.89
  Q 1044.35 1124.21 1026.46 1115.76
  Q 1023.86 1096.80 1024.65 1077.72
  Q 1025.37 1060.22 1031.28 1043.65
  Q 1037.58 1043.44 1042.50 1044.49
  Q 1061.42 1048.53 1065.24 1067.30
  Z"
/>
<ellipse fill="#213343" cx="0.00" cy="0.00" transform="translate(239.19,1064.49) rotate(58.6)" rx="15.74" ry="8.31"/>
<path fill="#b3cde8" d="
  M 1200.68 1127.45
  L 1202.34 1279.88
  Q 1199.01 1280.23 1194.92 1280.63
  C 1184.52 1281.63 1173.15 1278.78 1163.91 1274.32
  Q 1152.53 1268.83 1132.13 1257.31
  Q 1101.18 1239.83 1090.16 1232.84
  Q 1076.28 1224.05 1062.14 1215.06
  Q 1065.02 1186.62 1066.28 1157.75
  Q 1067.79 1123.13 1066.24 1088.50
  Q 1065.77 1078.20 1065.24 1067.30
  Q 1080.85 1073.46 1085.49 1075.71
  Q 1101.62 1083.56 1128.47 1099.69
  C 1145.13 1109.69 1162.84 1118.10 1180.83 1123.46
  Q 1185.55 1124.86 1200.68 1127.45
  Z"
/>
<path fill="#213343" d="
  M 998.28 1099.55
  Q 1001.71 1100.58 1002.74 1101.01
  C 1006.26 1102.47 1009.58 1105.75 1012.28 1107.47
  Q 1019.20 1111.86 1026.46 1115.76
  Q 1044.35 1124.21 1047.66 1142.89
  Q 1048.47 1147.50 1048.09 1150.81
  C 1047.22 1158.24 1037.58 1158.17 1032.22 1156.57
  Q 1029.19 1155.67 1027.49 1155.46
  Q 1027.83 1153.94 1027.67 1152.42
  Q 1027.62 1151.91 1027.21 1151.61
  Q 1007.97 1137.31 994.34 1120.18
  Q 990.82 1115.76 989.54 1109.09
  Q 991.11 1102.72 998.28 1099.55
  Z"
/>
<path fill="#93b0ce" d="
  M 1230.99 1120.43
  Q 1234.32 1121.49 1234.30 1125.50
  Q 1233.91 1196.98 1234.57 1234.75
  Q 1234.63 1238.13 1235.31 1242.64
  C 1236.20 1248.56 1238.18 1254.22 1239.96 1259.84
  Q 1240.73 1262.29 1240.95 1265.02
  Q 1241.18 1267.87 1241.19 1270.38
  L 1210.31 1282.51
  L 1202.34 1279.88
  L 1200.68 1127.45
  L 1230.99 1120.43
  Z"
/>
<path fill="#93b0ce" d="
  M 440.69 1147.33
  Q 447.74 1156.70 459.38 1159.21
  Q 463.10 1178.05 473.37 1199.93
  Q 475.07 1203.54 473.73 1208.24
  C 473.27 1209.85 472.09 1211.36 471.24 1213.04
  Q 463.77 1213.78 457.32 1211.77
  Q 443.20 1205.55 437.90 1193.13
  Q 434.91 1186.11 432.28 1178.93
  C 430.49 1174.03 428.36 1169.90 425.95 1165.63
  C 424.26 1162.63 426.28 1160.13 426.98 1157.29
  Q 430.21 1154.51 432.26 1149.66
  C 435.31 1148.24 438.10 1148.07 440.69 1147.33
  Z"
/>
<path fill="#93b0ce" d="
  M 840.28 1173.26
  C 838.57 1174.54 839.10 1176.96 840.48 1178.24
  Q 843.20 1180.78 845.82 1183.58
  Q 848.02 1185.94 846.84 1188.12
  C 845.46 1190.69 840.58 1191.20 837.93 1191.71
  Q 827.36 1193.77 817.88 1188.94
  C 812.19 1186.04 810.38 1179.14 813.95 1173.83
  C 815.55 1171.45 818.54 1170.01 821.06 1168.59
  Q 837.18 1159.48 854.35 1150.14
  C 857.06 1148.67 862.51 1147.66 865.07 1150.05
  C 866.56 1151.45 866.73 1153.88 864.97 1155.14
  Q 852.05 1164.43 840.28 1173.26
  Z"
/>
<path fill="#dde9f7" d="
  M 465.05 1154.07
  C 466.23 1157.78 468.61 1160.18 472.20 1162.00
  Q 477.79 1164.83 482.08 1168.47
  C 491.14 1176.17 499.24 1184.56 510.28 1189.82
  Q 528.26 1198.38 543.87 1201.24
  Q 560.19 1204.22 566.00 1204.21
  Q 575.06 1204.20 584.24 1204.41
  L 586.93 1214.26
  C 585.05 1218.77 583.05 1229.67 587.36 1233.44
  Q 593.29 1238.62 597.17 1242.38
  C 605.74 1250.68 613.05 1258.87 623.90 1264.21
  Q 631.52 1267.97 641.38 1266.37
  C 646.32 1265.57 651.27 1262.40 650.04 1256.83
  C 649.47 1254.26 647.02 1251.75 645.24 1249.76
  Q 627.98 1230.55 610.93 1211.61
  L 612.54 1204.40
  Q 617.85 1203.99 626.23 1204.77
  Q 652.51 1207.23 669.26 1226.75
  C 679.49 1238.66 675.78 1254.76 662.19 1262.16
  Q 656.50 1265.26 649.66 1267.66
  Q 640.29 1270.95 631.37 1274.11
  Q 616.05 1279.54 600.50 1278.61
  Q 595.46 1278.30 584.80 1276.21
  Q 580.12 1275.29 574.45 1273.01
  C 565.17 1269.27 556.98 1264.49 550.46 1256.65
  Q 544.85 1249.91 539.67 1243.63
  Q 530.23 1232.19 515.09 1225.95
  Q 504.90 1221.75 496.19 1219.43
  Q 483.93 1216.18 471.24 1213.04
  C 472.09 1211.36 473.27 1209.85 473.73 1208.24
  Q 475.07 1203.54 473.37 1199.93
  Q 463.10 1178.05 459.38 1159.21
  L 465.05 1154.07
  Z"
/>
<path fill="#dde9f7" d="
  M 426.98 1157.29
  C 426.28 1160.13 424.26 1162.63 425.95 1165.63
  C 428.36 1169.90 430.49 1174.03 432.28 1178.93
  Q 434.91 1186.11 437.90 1193.13
  Q 443.20 1205.55 457.32 1211.77
  Q 447.05 1215.48 434.52 1214.89
  Q 421.67 1214.29 412.29 1210.33
  C 401.82 1205.92 394.76 1201.88 391.00 1190.62
  C 387.70 1180.74 395.13 1170.10 403.51 1165.27
  Q 414.35 1159.02 426.98 1157.29
  Z"
/>
<path fill="#213343" d="
  M 1463.13 1157.99
  Q 1463.06 1168.84 1462.74 1179.44
  Q 1462.61 1183.61 1461.75 1185.45
  Q 1459.86 1189.52 1456.09 1190.40
  Q 1451.57 1191.46 1444.46 1190.73
  Q 1433.53 1189.61 1431.59 1177.88
  L 1463.13 1157.99
  Z"
/>
<path fill="#b3cde8" d="
  M 857.06 1301.80
  Q 857.42 1305.78 857.79 1309.75
  C 858.74 1320.04 856.72 1333.70 847.13 1339.54
  C 844.04 1341.42 840.41 1342.30 836.92 1343.56
  C 829.81 1342.78 822.91 1342.83 815.97 1340.64
  C 806.75 1337.72 800.62 1330.52 799.17 1320.94
  C 798.25 1314.84 798.38 1308.85 798.38 1302.62
  Q 798.34 1252.99 798.69 1203.36
  Q 798.71 1201.22 798.91 1199.14
  C 799.33 1194.76 803.61 1194.61 806.71 1196.09
  C 815.19 1200.17 824.27 1203.71 833.61 1205.01
  Q 839.43 1205.82 845.98 1202.04
  C 848.93 1200.35 850.92 1197.41 853.57 1195.25
  C 854.71 1194.33 856.42 1194.26 857.07 1195.84
  Q 857.86 1197.79 857.85 1199.75
  Q 857.45 1250.76 857.06 1301.80
  Z"
/>
<path fill="#93b0ce" d="
  M 610.93 1211.61
  Q 627.98 1230.55 645.24 1249.76
  C 647.02 1251.75 649.47 1254.26 650.04 1256.83
  C 651.27 1262.40 646.32 1265.57 641.38 1266.37
  Q 631.52 1267.97 623.90 1264.21
  C 613.05 1258.87 605.74 1250.68 597.17 1242.38
  Q 593.29 1238.62 587.36 1233.44
  C 583.05 1229.67 585.05 1218.77 586.93 1214.26
  Q 590.22 1214.77 593.75 1215.14
  Q 602.97 1216.11 610.93 1211.61
  Z"
/>
<path fill="#213343" d="
  M 1241.19 1270.38
  L 1242.31 1271.96
  Q 1241.12 1290.64 1241.09 1297.31
  C 1241.07 1301.73 1238.37 1302.52 1234.95 1303.50
  Q 1225.51 1306.19 1216.93 1303.29
  Q 1213.75 1302.22 1212.50 1299.43
  Q 1208.87 1291.35 1210.31 1282.51
  L 1241.19 1270.38
  Z"
/>
<path fill="#dde9f7" d="
  M 836.92 1343.56
  C 840.41 1342.30 844.04 1341.42 847.13 1339.54
  C 856.72 1333.70 858.74 1320.04 857.79 1309.75
  Q 857.42 1305.78 857.06 1301.80
  Q 864.39 1304.37 871.47 1306.43
  Q 882.20 1309.55 888.73 1318.85
  Q 890.25 1321.02 891.36 1323.81
  C 892.21 1325.96 891.32 1327.97 890.41 1329.94
  Q 886.61 1338.23 878.71 1342.71
  Q 872.94 1345.98 862.53 1346.39
  Q 849.67 1346.90 836.92 1343.56
  Z"
/>
</svg>
