<?xml version="1.0" encoding="UTF-8" standalone="no"?>
<!DOCTYPE svg PUBLIC "-//W3C//DTD SVG 1.1//EN" "http://www.w3.org/Graphics/SVG/1.1/DTD/svg11.dtd">
<svg xmlns="http://www.w3.org/2000/svg" version="1.1" viewBox="0.00 0.00 1773.00 1773.00">
<g stroke-width="2.00" fill="none" stroke-linecap="butt">
<path stroke="#fcd4ce" vector-effect="non-scaling-stroke" d="
  M 657.02 268.54
  C 654.29 271.10 651.77 272.43 650.02 276.36
  C 649.76 276.95 649.26 277.29 648.72 277.58"
/>
<path stroke="#99a1ad" vector-effect="non-scaling-stroke" d="
  M 648.72 277.58
  L 648.28 277.35"
/>
<path stroke="#e6f4fe" vector-effect="non-scaling-stroke" d="
  M 648.28 277.35
  Q 648.76 277.27 648.90 277.09
  Q 649.02 276.93 648.75 276.61
  Q 646.52 273.96 643.31 272.40
  Q 635.30 268.49 627.18 264.92
  C 613.45 258.89 596.24 255.79 581.95 260.91
  C 557.30 269.76 549.72 301.15 549.41 324.38
  Q 548.83 367.61 548.55 424.45
  C 548.34 466.07 550.28 506.74 555.72 548.05
  Q 557.64 562.68 559.62 588.29
  Q 559.98 593.01 560.11 597.12
  Q 560.24 601.38 560.60 605.83"
/>
<path stroke="#a3acb4" vector-effect="non-scaling-stroke" d="
  M 560.60 605.83
  Q 534.22 590.47 508.31 575.19
  Q 495.36 567.55 482.41 573.26
  C 472.43 577.66 466.08 587.97 466.39 598.50
  Q 467.71 643.22 468.49 687.96"
/>
<path stroke="#e6f4fe" vector-effect="non-scaling-stroke" d="
  M 468.49 687.96
  L 383.46 767.88"
/>
<path stroke="#d9e6f3" vector-effect="non-scaling-stroke" d="
  M 383.46 767.88
  Q 354.95 796.10 326.55 823.90
  C 314.38 835.81 300.07 848.73 290.05 859.31
  C 269.91 880.58 256.26 906.58 250.74 935.31
  Q 247.76 950.80 247.44 964.81
  C 247.17 976.19 248.08 988.19 248.30 999.90
  Q 249.22 1047.84 248.05 1093.33
  Q 246.34 1159.87 241.71 1222.77
  Q 240.99 1232.52 240.41 1241.92
  C 239.41 1258.13 237.78 1274.78 237.11 1290.71
  Q 236.08 1315.59 235.62 1340.28
  Q 235.34 1355.06 236.17 1368.97
  C 237.78 1395.98 245.02 1421.95 260.18 1444.16
  Q 272.35 1462.00 290.27 1476.58
  Q 297.13 1482.16 306.54 1488.82
  Q 327.56 1503.70 343.02 1511.70
  Q 358.04 1519.48 363.80 1521.51
  Q 393.47 1531.98 421.72 1544.01
  Q 426.70 1546.13 435.77 1551.10"
/>
<path stroke="#edf1f9" vector-effect="non-scaling-stroke" d="
  M 435.77 1551.10
  Q 437.89 1555.25 441.47 1560.05
  Q 449.34 1570.56 452.55 1574.46
  Q 485.87 1614.91 531.86 1639.79
  Q 561.77 1655.98 595.40 1665.28
  Q 614.35 1670.53 626.53 1672.73
  Q 658.75 1678.56 695.19 1682.24
  Q 728.56 1685.62 770.94 1685.50
  Q 871.57 1685.22 966.84 1653.99
  C 992.29 1645.65 1017.02 1635.09 1041.71 1622.94
  C 1076.36 1605.89 1111.94 1586.36 1146.44 1565.91
  Q 1206.75 1530.17 1250.03 1504.83
  Q 1345.98 1448.65 1431.64 1399.70
  Q 1473.67 1375.67 1514.50 1352.47
  Q 1518.96 1349.93 1523.08 1347.62
  Q 1559.43 1327.23 1592.47 1299.10
  C 1631.48 1265.88 1659.98 1219.57 1662.55 1167.59
  C 1664.45 1129.26 1650.62 1093.63 1624.19 1066.09
  C 1590.42 1030.88 1548.42 1006.75 1501.52 994.34
  Q 1493.39 992.19 1485.05 990.20
  Q 1481.84 989.44 1478.34 989.33"
/>
<path stroke="#c9d8e7" vector-effect="non-scaling-stroke" d="
  M 1478.34 989.33
  L 1476.09 934.81"
/>
<path stroke="#d9e6f3" vector-effect="non-scaling-stroke" d="
  M 1476.09 934.81
  C 1482.17 900.52 1479.83 866.91 1465.85 835.90
  Q 1463.52 830.72 1460.57 825.64"
/>
<path stroke="#c9d8e7" vector-effect="non-scaling-stroke" d="
  M 1460.57 825.64
  Q 1453.02 812.56 1448.18 798.26
  Q 1445.83 791.29 1443.23 778.90
  C 1423.81 686.30 1406.33 593.53 1389.12 500.31"
/>
<path stroke="#d9e6f3" vector-effect="non-scaling-stroke" d="
  M 1389.12 500.31
  Q 1384.98 472.71 1362.81 454.70
  C 1350.24 444.48 1336.68 437.31 1322.12 429.21
  C 1308.96 421.89 1295.41 413.09 1282.60 403.96
  Q 1244.61 376.87 1205.12 351.97"
/>
<path stroke="#99a6af" vector-effect="non-scaling-stroke" d="
  M 1205.12 351.97
  C 1213.69 336.31 1218.60 317.83 1215.77 300.32
  C 1210.94 270.37 1187.74 249.53 1162.01 236.22
  Q 1133.62 221.53 1100.11 215.98
  Q 1051.39 207.91 1002.13 215.60
  Q 975.16 219.81 950.66 230.12
  C 912.62 246.12 876.92 278.60 886.50 324.02
  Q 889.78 339.57 896.04 351.61"
/>
<path stroke="#fcd4ce" vector-effect="non-scaling-stroke" d="
  M 896.04 351.61
  Q 895.03 360.87 887.31 366.31
  C 872.85 376.50 853.66 379.48 836.61 382.83"
/>
<path stroke="#e6f4fe" vector-effect="non-scaling-stroke" d="
  M 836.61 382.83
  L 785.77 333.00"
/>
<path stroke="#99a1ad" vector-effect="non-scaling-stroke" d="
  M 785.77 333.00
  Q 778.49 321.02 762.57 318.17
  Q 749.23 315.79 734.72 316.42
  Q 728.42 316.69 725.79 316.95"
/>
<path stroke="#fcd4ce" vector-effect="non-scaling-stroke" d="
  M 725.79 316.95
  C 725.77 316.01 726.06 315.28 726.05 314.34
  Q 725.71 291.74 725.47 269.19
  C 725.38 261.30 730.42 256.94 737.73 255.08
  C 755.10 250.67 769.81 244.36 775.66 225.67
  Q 785.93 192.83 780.77 157.99"
/>
<path stroke="#99a1ad" vector-effect="non-scaling-stroke" d="
  M 780.77 157.99
  Q 786.76 152.02 792.66 143.93
  C 801.91 131.23 806.98 115.70 803.14 99.97
  C 799.18 83.77 786.40 71.64 771.74 62.60
  C 759.99 55.35 749.60 53.71 734.98 53.67
  Q 716.75 53.62 697.74 52.90
  C 684.48 52.39 668.32 54.02 656.64 60.89
  Q 615.47 85.11 611.08 134.58
  Q 609.46 152.79 612.13 169.28
  Q 621.00 224.06 657.02 268.54"
/>
<path stroke="#96767c" vector-effect="non-scaling-stroke" d="
  M 780.77 157.99
  Q 760.07 170.25 740.79 182.06
  C 735.58 185.24 731.76 188.23 736.22 194.59
  Q 739.17 198.79 741.42 202.88
  C 743.92 207.41 740.04 212.24 737.63 215.84
  C 718.53 244.53 691.69 263.35 657.02 268.54"
/>
<path stroke="#96767c" vector-effect="non-scaling-stroke" d="
  M 725.79 316.95
  Q 704.69 321.23 683.00 320.29
  Q 677.71 320.06 672.59 319.77
  Q 666.06 319.41 662.47 317.79
  Q 652.63 313.35 650.19 302.61
  C 649.35 298.88 650.15 295.20 650.27 291.45
  Q 650.46 285.36 648.62 278.76
  Q 648.50 278.32 648.72 277.58"
/>
<path stroke="#8095ac" vector-effect="non-scaling-stroke" d="
  M 648.28 277.35
  Q 648.08 277.35 647.92 277.45
  Q 640.18 282.00 635.96 289.04
  C 628.47 301.53 633.09 315.80 645.91 322.45
  C 655.74 327.55 666.38 331.28 677.56 331.58
  C 691.40 331.96 706.26 330.29 719.82 330.03
  Q 752.62 329.41 785.77 333.00"
/>
<path stroke="#e3c9cd" vector-effect="non-scaling-stroke" d="
  M 836.61 382.83
  Q 846.04 404.71 855.47 426.06
  C 855.66 426.50 856.01 426.76 856.34 427.16"
/>
<path stroke="#e6f4fe" vector-effect="non-scaling-stroke" d="
  M 856.34 427.16
  Q 856.28 427.85 857.01 428.98
  Q 867.91 446.09 874.10 465.36
  Q 881.86 489.53 878.65 512.42"
/>
<path stroke="#e3c9cd" vector-effect="non-scaling-stroke" d="
  M 878.65 512.42
  Q 849.69 523.73 821.11 534.86
  C 816.20 536.77 813.71 538.43 813.47 543.75
  Q 813.01 553.96 812.53 564.24"
/>
<path stroke="#7a91a3" vector-effect="non-scaling-stroke" d="
  M 812.53 564.24
  Q 811.65 564.86 809.11 567.11
  Q 804.44 571.25 797.86 572.00
  C 794.79 572.35 791.72 570.03 792.05 566.62
  Q 793.00 556.86 795.81 550.78
  C 798.01 546.01 806.27 539.58 801.64 534.13
  Q 799.63 531.77 796.00 530.85"
/>
<path stroke="#c0dbf2" vector-effect="non-scaling-stroke" d="
  M 796.00 530.85
  Q 784.38 515.71 777.12 497.64
  C 775.36 493.24 774.09 487.19 770.90 484.20
  C 767.44 480.95 761.49 481.07 758.08 484.55
  C 747.38 495.46 739.26 507.66 734.04 522.03
  Q 731.17 529.91 729.05 541.37
  Q 726.75 553.75 725.27 564.54
  Q 721.99 588.40 721.67 616.05
  C 721.47 633.25 722.08 649.87 718.38 666.67
  Q 716.78 673.97 713.71 679.44
  Q 709.36 687.21 698.34 687.17"
/>
<path stroke="#8aa0b3" vector-effect="non-scaling-stroke" d="
  M 698.34 687.17
  Q 698.01 686.34 696.37 685.38
  Q 628.28 645.51 560.60 605.83"
/>
<path stroke="#907273" vector-effect="non-scaling-stroke" d="
  M 1020.77 598.45
  Q 1010.19 600.70 999.30 602.81
  C 976.03 607.32 952.79 612.71 929.98 617.78
  C 916.22 620.83 902.43 624.31 888.83 627.70
  C 879.29 630.08 871.22 630.49 862.64 626.86
  C 852.99 622.77 845.14 613.25 840.04 603.93
  Q 832.75 590.62 826.04 572.06
  C 823.54 565.18 818.55 565.64 812.53 564.24"
/>
<path stroke="#6d8498" vector-effect="non-scaling-stroke" d="
  M 796.00 530.85
  C 785.70 568.17 774.82 605.30 763.03 642.19
  Q 759.30 653.85 756.22 660.97
  Q 747.85 680.37 735.71 697.68"
/>
<path stroke="#7d93a8" vector-effect="non-scaling-stroke" d="
  M 735.71 697.68
  Q 729.91 699.19 725.25 699.32
  Q 709.39 699.79 698.34 687.17"
/>
<path stroke="#fcd4ce" vector-effect="non-scaling-stroke" d="
  M 959.66 394.69
  Q 959.19 394.82 958.67 395.17
  Q 958.18 395.51 957.64 395.72
  C 945.76 400.27 932.67 401.92 919.79 402.99
  Q 907.29 404.04 894.98 408.61
  Q 890.02 410.45 876.75 416.81
  Q 866.45 421.76 856.34 427.16"
/>
<path stroke="#5d758c" vector-effect="non-scaling-stroke" d="
  M 1077.07 922.73
  C 1080.00 935.46 1077.55 947.89 1066.20 955.52
  Q 1060.81 959.13 1056.88 960.14
  Q 1047.55 962.54 1044.87 962.79
  Q 1030.56 964.16 1014.63 959.07"
/>
<path stroke="#5d758c" vector-effect="non-scaling-stroke" d="
  M 1013.52 957.47
  C 1012.02 955.81 1010.67 954.47 1009.84 952.33
  Q 1005.98 942.43 1004.65 937.59
  Q 995.79 905.32 997.00 872.13"
/>
<path stroke="#6d8498" vector-effect="non-scaling-stroke" d="
  M 997.00 872.13
  Q 1000.94 839.39 993.30 807.99
  Q 989.38 791.91 978.70 780.05
  C 971.19 771.70 966.92 763.26 964.59 751.84
  Q 962.73 742.76 962.57 734.13
  C 962.44 727.01 954.82 718.33 947.31 723.58
  C 942.66 726.84 941.55 732.22 944.64 736.91
  C 947.75 741.65 949.93 746.10 951.16 751.88
  C 952.61 758.69 949.35 759.91 943.54 758.23
  Q 937.43 756.46 933.58 753.12
  C 929.86 749.89 926.54 749.03 921.46 749.66
  Q 909.98 751.06 904.19 751.96
  C 890.89 754.03 875.94 758.36 865.13 765.13
  Q 816.82 795.38 771.53 822.35
  Q 771.02 822.66 769.95 823.08
  Q 769.13 823.41 768.39 823.89
  Q 759.78 829.43 750.28 834.82"
/>
<path stroke="#374959" vector-effect="non-scaling-stroke" d="
  M 750.28 834.82
  Q 749.64 799.18 748.88 763.76
  Q 748.59 749.99 747.82 743.79
  C 745.88 728.22 740.46 710.81 735.71 697.68"
/>
<path stroke="#fcd4ce" vector-effect="non-scaling-stroke" d="
  M 1019.25 545.34
  Q 1006.58 546.58 993.77 547.70
  Q 967.51 550.01 941.26 552.32
  Q 921.76 554.04 902.24 555.42
  Q 893.02 556.07 890.22 547.52
  Q 884.47 530.01 878.65 512.42"
/>
<path stroke="#7d93a8" vector-effect="non-scaling-stroke" d="
  M 750.28 834.82
  Q 742.80 837.23 735.63 841.88
  Q 730.25 845.36 726.61 850.61
  Q 726.34 850.99 726.07 851.04
  Q 725.70 851.12 725.31 850.86"
/>
<path stroke="#8aa0b3" vector-effect="non-scaling-stroke" d="
  M 725.31 850.86
  Q 715.13 844.84 704.87 838.83
  Q 592.61 773.06 483.47 708.03
  C 476.39 703.81 465.90 698.16 468.49 687.96"
/>
<path stroke="#907273" vector-effect="non-scaling-stroke" d="
  M 1163.73 529.47
  L 1126.19 522.00"
/>
<path stroke="#a3bfdb" vector-effect="non-scaling-stroke" d="
  M 1389.12 500.31
  Q 1371.89 520.95 1351.36 537.11
  Q 1324.82 557.99 1293.46 567.95
  Q 1272.55 574.59 1250.94 582.37
  C 1247.96 583.45 1244.36 584.93 1244.41 588.65
  Q 1244.68 609.16 1245.70 629.32
  C 1246.64 647.99 1246.83 666.40 1247.64 685.07
  C 1248.47 704.23 1248.84 723.61 1249.69 742.52
  C 1250.64 763.60 1251.08 784.60 1251.95 805.82
  Q 1252.35 815.73 1252.65 825.82
  C 1253.77 863.56 1255.54 900.11 1256.69 938.80
  Q 1256.88 945.20 1257.83 947.64
  C 1260.11 953.50 1264.33 954.94 1268.55 958.25"
/>
<path stroke="#c0dbf2" vector-effect="non-scaling-stroke" d="
  M 1268.55 958.25
  Q 1252.81 960.39 1237.45 961.50
  C 1232.73 961.84 1227.77 962.48 1227.02 967.31
  Q 1226.04 973.56 1224.71 979.33
  C 1219.22 1003.25 1200.46 1023.02 1180.17 1035.41
  Q 1153.82 1051.52 1122.90 1058.35
  Q 1118.37 1059.35 1113.56 1060.30
  Q 1108.35 1061.33 1106.56 1062.89
  Q 1102.99 1065.99 1103.22 1070.13
  C 1103.51 1075.17 1104.64 1080.12 1105.05 1085.15
  Q 1107.98 1121.71 1091.87 1154.62
  C 1074.42 1190.28 1042.64 1218.54 1008.45 1239.09
  Q 941.73 1279.21 867.99 1319.42
  Q 808.10 1352.07 736.25 1362.77
  Q 731.50 1363.47 728.47 1362.41"
/>
<path stroke="#a3bfdb" vector-effect="non-scaling-stroke" d="
  M 728.47 1362.41
  Q 769.67 1337.92 807.86 1309.37
  Q 815.02 1304.01 823.62 1297.06
  Q 844.36 1280.31 855.88 1270.38
  Q 857.41 1269.07 858.87 1265.94"
/>
<path stroke="#6d8498" vector-effect="non-scaling-stroke" d="
  M 858.87 1265.94
  L 863.72 1262.50
  A 1.47 1.44 -8.8 0 0 864.27 1261.76
  Q 865.16 1259.20 867.23 1258.67"
/>
<path stroke="#a3bfdb" vector-effect="non-scaling-stroke" d="
  M 867.23 1258.67
  L 892.71 1243.93"
/>
<path stroke="#6d8498" vector-effect="non-scaling-stroke" d="
  M 892.71 1243.93
  Q 895.95 1243.73 898.14 1242.51"
/>
<path stroke="#a3bfdb" vector-effect="non-scaling-stroke" d="
  M 898.14 1242.51
  Q 902.69 1241.77 905.49 1240.74
  Q 914.46 1237.42 924.73 1232.32
  Q 957.43 1216.06 975.40 1185.62
  C 987.88 1164.49 994.08 1141.18 997.39 1115.69
  Q 998.97 1103.54 999.47 1094.47
  C 1001.00 1067.19 1000.22 1038.69 999.02 1010.33
  Q 998.57 999.86 999.55 993.05
  Q 1000.98 983.12 1004.56 972.15
  Q 1007.19 964.09 1010.20 956.56
  A 0.77 0.77 0.0 0 1 1011.51 956.35
  Q 1012.52 957.56 1013.52 957.47"
/>
<path stroke="#6d8498" vector-effect="non-scaling-stroke" d="
  M 1013.52 957.47
  L 1014.63 959.07"
/>
<path stroke="#a3bfdb" vector-effect="non-scaling-stroke" d="
  M 1014.63 959.07
  Q 1015.62 960.86 1015.66 961.43
  Q 1016.72 976.96 1021.69 991.12
  C 1024.19 998.26 1027.78 1005.46 1035.75 1007.29
  Q 1039.14 1008.07 1045.65 1006.56
  C 1067.98 1001.42 1089.96 998.51 1112.56 997.08
  Q 1132.02 995.84 1148.42 986.44
  C 1161.82 978.76 1169.68 968.42 1168.22 952.80
  Q 1167.31 943.13 1163.65 934.84
  Q 1162.01 931.11 1157.77 931.17
  Q 1127.72 931.63 1093.29 933.18
  C 1090.14 933.32 1087.37 932.01 1085.72 929.30
  C 1084.23 926.85 1081.47 923.14 1078.91 922.09
  Q 1077.89 921.67 1077.07 922.73"
/>
<path stroke="#6d8498" vector-effect="non-scaling-stroke" d="
  M 1077.07 922.73
  Q 1064.05 817.59 1049.43 712.66
  Q 1044.98 680.70 1040.54 648.74
  Q 1038.26 632.31 1037.10 626.70
  C 1034.82 615.72 1028.44 607.03 1020.77 598.45"
/>
<path stroke="#d6bbc2" vector-effect="non-scaling-stroke" d="
  M 1020.77 598.45
  Q 1021.53 598.28 1024.08 597.40
  Q 1044.83 590.20 1068.59 585.12
  Q 1072.82 584.22 1088.58 581.76
  C 1112.97 577.97 1136.67 571.28 1159.33 560.25
  C 1173.34 553.43 1170.19 540.93 1163.73 529.47"
/>
<path stroke="#6d8498" vector-effect="non-scaling-stroke" d="
  M 1163.73 529.47
  Q 1170.91 524.47 1179.09 522.30
  Q 1181.92 521.55 1184.96 522.13
  A 1.47 1.46 75.5 0 1 1185.79 522.62
  Q 1187.11 524.21 1187.00 526.39
  Q 1186.07 544.38 1185.38 561.83
  C 1185.18 566.78 1189.65 569.38 1193.95 570.22
  Q 1199.32 571.27 1201.51 571.13
  Q 1205.71 570.87 1210.40 570.46
  C 1212.98 570.25 1215.69 569.26 1218.58 568.92"
/>
<path stroke="#a3bfdb" vector-effect="non-scaling-stroke" d="
  M 1218.58 568.92
  Q 1225.82 568.96 1234.00 569.01
  Q 1240.91 569.05 1245.08 568.09
  Q 1253.76 566.11 1265.96 560.73
  C 1288.14 550.96 1309.76 537.07 1330.31 522.71
  C 1338.65 516.88 1342.45 505.98 1340.27 496.33
  Q 1339.15 491.39 1333.95 483.18
  Q 1320.42 461.87 1307.32 440.69
  C 1304.32 435.85 1300.02 431.53 1293.75 433.39
  Q 1290.29 434.41 1288.02 436.81
  Q 1274.72 450.89 1256.98 460.67
  Q 1237.13 471.61 1215.70 478.99"
/>
<path stroke="#6d8498" vector-effect="non-scaling-stroke" d="
  M 1215.70 478.99
  Q 1208.57 477.35 1201.38 478.62
  C 1192.05 480.27 1187.44 487.43 1186.26 496.27
  C 1185.98 498.41 1184.80 501.42 1183.21 502.72
  Q 1158.53 522.93 1126.19 522.00"
/>
<path stroke="#d6bbc2" vector-effect="non-scaling-stroke" d="
  M 1126.19 522.00
  Q 1108.66 520.30 1093.34 529.37
  Q 1089.69 531.53 1077.28 540.04
  Q 1063.69 549.37 1045.76 549.17
  Q 1032.23 549.02 1019.25 545.34"
/>
<path stroke="#d9e6f3" vector-effect="non-scaling-stroke" d="
  M 1019.25 545.34
  Q 1021.12 528.17 1024.06 511.53
  Q 1027.87 489.88 1035.21 469.14
  Q 1039.36 457.42 1046.56 447.29
  Q 1059.31 429.37 1074.61 412.50"
/>
<path stroke="#738da3" vector-effect="non-scaling-stroke" d="
  M 1205.12 351.97
  Q 1199.34 356.64 1195.68 364.12
  C 1193.55 368.47 1192.14 371.79 1193.46 376.09
  Q 1194.21 378.51 1195.07 380.85
  C 1198.98 391.37 1192.65 401.25 1183.50 406.20
  C 1180.75 407.69 1177.06 408.58 1173.99 408.39
  Q 1166.32 407.91 1157.50 406.50
  Q 1150.97 405.46 1137.43 404.80
  Q 1104.76 403.20 1074.61 412.50"
/>
<path stroke="#99a6af" vector-effect="non-scaling-stroke" d="
  M 1074.61 412.50
  Q 1042.45 413.17 1014.06 409.14
  Q 986.66 405.26 959.66 394.69"
/>
<path stroke="#967b7e" vector-effect="non-scaling-stroke" d="
  M 959.66 394.69
  C 954.55 387.32 950.00 377.51 961.07 372.33
  Q 968.25 368.97 977.34 368.11"
/>
<path stroke="#99a6af" vector-effect="non-scaling-stroke" d="
  M 977.34 368.11
  Q 1005.47 375.12 1034.49 382.24
  Q 1039.82 383.55 1043.44 383.79
  C 1054.71 384.55 1057.18 375.99 1055.56 366.92
  C 1051.45 343.95 1041.53 319.55 1016.29 314.46
  Q 1011.74 313.54 1007.26 312.96
  Q 969.94 308.05 929.15 302.69
  C 921.38 301.67 919.48 308.27 920.90 314.44
  Q 924.02 327.95 930.67 335.81
  Q 932.01 337.41 937.74 343.29"
/>
<path stroke="#967b7e" vector-effect="non-scaling-stroke" d="
  M 937.74 343.29
  Q 929.04 348.05 919.52 351.06
  C 911.88 353.47 903.80 353.94 896.04 351.61"
/>
<path stroke="#fcd4ce" vector-effect="non-scaling-stroke" d="
  M 977.34 368.11
  Q 961.55 349.43 937.74 343.29"
/>
<path stroke="#5d758c" vector-effect="non-scaling-stroke" d="
  M 898.14 1242.51
  C 902.57 1236.80 905.74 1232.08 907.08 1225.11
  Q 908.12 1219.74 903.38 1217.13
  Q 900.36 1215.47 897.53 1216.91
  Q 887.26 1222.11 884.76 1234.95
  C 883.68 1240.48 886.85 1244.35 892.71 1243.93"
/>
<path stroke="#5d758c" vector-effect="non-scaling-stroke" d="
  M 867.23 1258.67
  C 868.09 1252.92 869.21 1243.83 862.95 1240.97
  Q 860.61 1239.90 858.60 1240.62
  C 851.47 1243.17 848.00 1252.79 847.14 1260.09
  Q 846.86 1262.47 847.61 1263.65
  Q 851.69 1270.15 858.87 1265.94"
/>
<path stroke="#b0cce6" vector-effect="non-scaling-stroke" d="
  M 728.47 1362.41
  Q 726.68 1363.66 722.52 1364.52
  Q 664.65 1376.52 606.67 1388.42"
/>
<path stroke="#a3bfdb" vector-effect="non-scaling-stroke" d="
  M 997.00 872.13
  Q 992.58 878.32 982.15 890.65
  Q 973.47 900.91 954.64 926.59
  Q 936.93 950.74 913.45 967.65
  Q 903.77 974.62 890.13 982.61
  Q 815.95 1026.04 740.89 1065.92
  Q 730.70 1071.33 722.97 1075.01
  Q 671.00 1099.76 612.95 1104.19
  Q 607.90 1104.57 607.87 1110.50
  Q 607.11 1249.22 606.67 1388.42"
/>
<path stroke="#c0dbf2" vector-effect="non-scaling-stroke" d="
  M 606.67 1388.42
  Q 601.66 1388.93 597.50 1389.39
  Q 561.88 1393.39 526.73 1393.38
  Q 493.34 1393.36 459.18 1390.44
  Q 448.98 1389.57 439.38 1388.21
  Q 424.83 1386.16 409.11 1383.96
  A 2.10 2.05 36.6 0 0 408.00 1384.11
  Q 404.14 1385.75 408.42 1388.63
  A 2.28 2.24 67.4 0 0 409.20 1388.96
  Q 444.94 1397.45 476.05 1402.02
  Q 519.49 1408.39 563.23 1409.61
  Q 593.18 1410.45 628.51 1408.41
  C 630.41 1408.30 632.45 1408.56 634.34 1408.79"
/>
<path stroke="#a3bfdb" vector-effect="non-scaling-stroke" d="
  M 634.34 1408.79
  Q 631.26 1410.41 628.19 1411.76
  Q 624.78 1413.26 624.78 1416.31
  Q 624.79 1480.21 624.90 1544.10
  C 624.90 1548.03 625.51 1551.09 629.60 1551.95
  Q 638.22 1553.78 643.02 1555.33"
/>
<path stroke="#c7d8ed" vector-effect="non-scaling-stroke" d="
  M 643.02 1555.33
  Q 640.81 1555.86 638.54 1556.11
  Q 592.52 1561.24 549.23 1559.67
  Q 540.55 1559.36 529.29 1558.29
  Q 506.63 1556.13 484.00 1554.04
  Q 457.02 1551.54 435.77 1551.10"
/>
<path stroke="#c0dbf2" vector-effect="non-scaling-stroke" d="
  M 725.31 850.86
  Q 725.11 851.84 724.62 852.10
  Q 625.60 906.81 512.49 891.92
  Q 498.17 890.03 482.41 885.13
  Q 464.33 879.51 446.32 871.54
  Q 436.38 867.14 429.15 862.40
  C 401.10 844.04 386.80 812.40 384.77 779.76
  Q 384.33 772.67 383.46 767.88"
/>
<path stroke="#5d758c" vector-effect="non-scaling-stroke" d="
  M 1218.58 568.92
  L 1215.70 478.99"
/>
<path stroke="#b0cce6" vector-effect="non-scaling-stroke" d="
  M 1469.12 936.78
  C 1462.45 957.23 1449.84 976.06 1435.37 992.67
  C 1407.99 1024.09 1374.07 1049.35 1337.98 1070.32
  Q 1118.75 1197.71 897.58 1324.37
  Q 861.35 1345.12 828.85 1359.33
  Q 749.39 1394.05 662.65 1405.13
  Q 662.56 1405.14 649.77 1406.44
  Q 641.95 1407.24 634.34 1408.79"
/>
<path stroke="#a3bfdb" vector-effect="non-scaling-stroke" d="
  M 1460.57 825.64
  Q 1457.80 832.93 1455.04 839.88
  Q 1447.15 859.75 1434.23 875.39
  C 1424.55 887.11 1411.83 897.55 1398.83 904.12
  Q 1368.63 919.40 1344.93 934.17
  C 1333.03 941.58 1321.83 951.19 1308.03 954.80
  Q 1300.33 956.81 1285.81 958.42"
/>
<path stroke="#b0cce6" vector-effect="non-scaling-stroke" d="
  M 1285.81 958.42
  L 1268.55 958.25"
/>
<path stroke="#818f9e" vector-effect="non-scaling-stroke" d="
  M 758.62 1542.90
  Q 763.81 1558.95 777.46 1570.28
  Q 784.56 1576.18 793.65 1581.50
  C 807.83 1589.80 822.56 1597.55 838.24 1599.91
  Q 847.09 1601.24 856.02 1599.03
  Q 862.33 1597.47 871.21 1591.18
  Q 883.65 1582.38 892.85 1574.01
  Q 933.97 1536.57 943.96 1481.49
  Q 947.39 1462.61 947.07 1442.34"
/>
<path stroke="#818f9e" vector-effect="non-scaling-stroke" d="
  M 1006.88 1414.89
  C 1013.84 1423.66 1024.10 1415.17 1029.78 1409.20
  C 1032.22 1406.62 1035.73 1404.31 1038.34 1408.48
  C 1041.59 1413.68 1043.77 1418.80 1050.48 1419.79
  Q 1059.46 1421.11 1064.40 1413.85
  C 1066.42 1410.89 1068.91 1405.70 1071.89 1403.80
  A 1.45 1.43 -33.2 0 1 1073.86 1404.20
  C 1075.62 1406.84 1076.49 1409.90 1078.44 1412.37
  Q 1085.17 1420.84 1096.26 1416.61
  C 1101.86 1414.47 1103.90 1407.57 1106.05 1404.06
  Q 1106.74 1402.93 1108.06 1402.17
  Q 1108.50 1401.91 1109.00 1402.01
  C 1112.42 1402.66 1117.41 1408.65 1119.97 1411.13
  C 1127.67 1418.60 1137.29 1409.90 1140.14 1402.56
  C 1141.36 1399.41 1143.24 1395.24 1147.55 1398.26
  Q 1153.00 1402.06 1159.06 1406.50
  C 1168.32 1413.28 1176.75 1398.28 1179.01 1391.14
  C 1180.06 1387.82 1183.66 1386.68 1185.89 1389.61
  C 1190.67 1395.91 1201.52 1402.65 1208.38 1395.79
  Q 1212.37 1391.79 1214.82 1386.01
  Q 1215.69 1383.98 1216.83 1382.76
  C 1219.83 1379.58 1222.60 1381.86 1225.96 1382.46
  Q 1237.51 1384.52 1244.44 1376.73
  C 1247.95 1372.80 1250.37 1368.48 1256.60 1369.05
  C 1266.45 1369.96 1273.81 1367.97 1277.04 1358.16
  C 1277.58 1356.53 1277.85 1354.96 1277.92 1353.25
  C 1278.06 1349.61 1281.65 1346.36 1285.34 1347.97
  C 1295.97 1352.59 1305.97 1352.66 1311.52 1340.84
  C 1312.77 1338.18 1313.25 1334.80 1315.33 1332.61
  C 1317.92 1329.88 1321.55 1330.12 1324.85 1329.34
  Q 1333.87 1327.23 1336.12 1317.66
  C 1337.21 1312.99 1336.74 1308.70 1341.99 1306.21
  Q 1346.70 1303.99 1351.81 1301.82
  C 1355.78 1300.15 1357.98 1297.96 1358.88 1293.64
  Q 1364.27 1267.66 1370.01 1240.20"
/>
<path stroke="#b7cae0" vector-effect="non-scaling-stroke" d="
  M 1478.34 989.33
  Q 1477.32 1056.46 1476.73 1123.49
  Q 1476.57 1140.89 1476.46 1143.50
  C 1474.88 1178.15 1463.93 1211.17 1443.45 1239.18
  Q 1435.52 1250.04 1424.36 1261.74
  Q 1420.42 1265.86 1417.15 1267.02
  C 1410.45 1269.40 1403.16 1267.54 1398.57 1261.99
  C 1391.12 1252.97 1382.16 1245.64 1371.99 1240.55
  Q 1371.54 1240.33 1371.05 1240.39
  Q 1370.14 1240.51 1370.01 1240.20"
/>
<path stroke="#5d758c" vector-effect="non-scaling-stroke" d="
  M 1370.01 1240.20
  Q 1365.02 1230.26 1354.63 1222.90
  C 1349.23 1219.08 1345.24 1216.89 1340.21 1222.58
  Q 1313.63 1252.68 1278.49 1274.04
  Q 1246.94 1293.22 1213.50 1304.26
  Q 1191.30 1311.59 1173.04 1318.07
  Q 1155.18 1324.41 1143.88 1330.88
  Q 1077.91 1368.63 1012.22 1407.45
  Q 1008.37 1409.73 1006.88 1414.89"
/>
<path stroke="#b7cae0" vector-effect="non-scaling-stroke" d="
  M 1006.88 1414.89
  Q 1002.56 1412.98 997.89 1413.66
  Q 995.38 1414.03 992.37 1416.17
  Q 970.98 1431.33 947.07 1442.34"
/>
<path stroke="#5d758c" vector-effect="non-scaling-stroke" d="
  M 947.07 1442.34
  Q 943.26 1420.77 925.72 1408.03
  Q 907.86 1395.06 888.09 1385.19
  Q 865.36 1373.84 843.00 1383.32
  Q 830.67 1388.55 820.02 1397.26
  C 793.91 1418.63 773.87 1448.96 763.38 1481.42
  Q 757.95 1498.23 756.74 1515.68
  C 755.99 1526.37 757.23 1533.41 758.62 1542.90"
/>
<path stroke="#b7cae0" vector-effect="non-scaling-stroke" d="
  M 758.62 1542.90
  Q 739.52 1540.99 722.54 1542.12
  Q 686.02 1544.56 649.71 1555.27
  Q 647.51 1555.92 643.02 1555.33"
/>
<path stroke="#a3bfdb" vector-effect="non-scaling-stroke" d="
  M 1476.09 934.81
  Q 1474.00 933.61 1471.49 933.62
  Q 1470.98 933.63 1470.64 934.00
  Q 1469.59 935.15 1469.12 936.78"
/>
<path stroke="#c0dbf2" vector-effect="non-scaling-stroke" d="
  M 1469.12 936.78
  Q 1470.46 932.40 1470.58 927.75
  Q 1470.73 922.09 1468.43 919.48
  C 1465.55 916.19 1460.70 916.72 1457.35 919.17
  C 1429.65 939.44 1399.73 952.63 1366.32 958.02
  Q 1335.97 962.91 1303.07 960.54
  C 1297.34 960.13 1291.61 959.07 1285.81 958.42"
/>
<path stroke="#99a6af" vector-effect="non-scaling-stroke" d="
  M 1074.01 242.75
  C 1031.70 237.35 990.02 244.90 952.93 266.34
  Q 946.37 270.14 940.96 274.29
  Q 938.73 276.00 937.59 278.69
  A 2.33 2.33 0.0 0 0 938.10 281.26
  Q 940.67 283.77 944.57 284.42
  Q 954.06 286.00 963.23 287.18
  Q 992.95 291.00 1027.68 295.70
  C 1047.28 298.36 1068.26 289.37 1085.40 279.79
  Q 1102.64 270.15 1120.20 259.87
  Q 1121.71 258.99 1122.90 257.68
  A 2.34 2.34 0.0 0 0 1122.44 254.14
  Q 1120.09 252.62 1117.17 251.77
  Q 1095.51 245.50 1074.01 242.75"
/>
<path stroke="#99a6af" vector-effect="non-scaling-stroke" d="
  M 1156.48 269.35
  A 6.76 6.76 0.0 0 0 1147.80 267.51
  L 1084.43 302.78
  A 6.76 6.76 0.0 0 0 1084.44 314.60
  L 1153.49 352.87
  A 6.76 6.76 0.0 0 0 1162.61 350.35
  L 1184.27 313.06
  A 6.76 6.76 0.0 0 0 1183.82 305.60
  L 1156.48 269.35"
/>
<path stroke="#99a6af" vector-effect="non-scaling-stroke" d="
  M 1100.53 377.26
  A 5.33 5.33 0.0 0 0 1102.14 367.64
  L 1079.68 352.89
  A 5.33 5.33 0.0 0 0 1071.49 358.18
  L 1074.61 377.89
  A 5.33 5.33 0.0 0 0 1081.20 382.22
  L 1100.53 377.26"
/>
<path stroke="#7d93a8" vector-effect="non-scaling-stroke" d="
  M 1183.95 434.40
  C 1170.15 441.79 1149.41 438.12 1137.15 429.01
  Q 1134.06 426.72 1131.05 424.22
  A 1.99 1.99 0.0 0 0 1128.10 424.68
  C 1126.44 427.27 1123.95 431.02 1126.57 433.97
  C 1140.92 450.12 1164.04 450.95 1184.22 447.13
  Q 1194.40 445.20 1199.92 435.49
  C 1201.20 433.24 1202.48 430.69 1199.72 428.73
  Q 1197.79 427.35 1195.73 428.35
  Q 1190.04 431.14 1183.95 434.40"
/>
<path stroke="#5d758c" vector-effect="non-scaling-stroke" d="
  M 804.2691 1291.4897
  A 13.63 8.61 124.3 0 0 819.0627 1285.0820
  A 13.63 8.61 124.3 0 0 819.6309 1268.9703
  A 13.63 8.61 124.3 0 0 804.8373 1275.3780
  A 13.63 8.61 124.3 0 0 804.2691 1291.4897"
/>
<path stroke="#5d758c" vector-effect="non-scaling-stroke" d="
  M 840.6692 1556.6190
  A 62.29 33.66 119.9 0 0 900.8997 1519.3991
  A 62.29 33.66 119.9 0 0 902.7708 1448.6210
  A 62.29 33.66 119.9 0 0 842.5403 1485.8409
  A 62.29 33.66 119.9 0 0 840.6692 1556.6190"
/>
<path stroke="#637e97" vector-effect="non-scaling-stroke" d="
  M 855.8325 1530.1022
  A 32.75 18.46 121.0 0 0 888.5233 1511.5376
  A 32.75 18.46 121.0 0 0 889.5675 1473.9578
  A 32.75 18.46 121.0 0 0 856.8767 1492.5224
  A 32.75 18.46 121.0 0 0 855.8325 1530.1022"
/>
</g>
<path fill="#ffffff" d="
  M 1773.00 0.00
  L 1773.00 1773.00
  L 0.00 1773.00
  L 0.00 0.00
  L 1773.00 0.00
  Z
  M 657.02 268.54
  C 654.29 271.10 651.77 272.43 650.02 276.36
  C 649.76 276.95 649.26 277.29 648.72 277.58
  L 648.28 277.35
  Q 648.76 277.27 648.90 277.09
  Q 649.02 276.93 648.75 276.61
  Q 646.52 273.96 643.31 272.40
  Q 635.30 268.49 627.18 264.92
  C 613.45 258.89 596.24 255.79 581.95 260.91
  C 557.30 269.76 549.72 301.15 549.41 324.38
  Q 548.83 367.61 548.55 424.45
  C 548.34 466.07 550.28 506.74 555.72 548.05
  Q 557.64 562.68 559.62 588.29
  Q 559.98 593.01 560.11 597.12
  Q 560.24 601.38 560.60 605.83
  Q 534.22 590.47 508.31 575.19
  Q 495.36 567.55 482.41 573.26
  C 472.43 577.66 466.08 587.97 466.39 598.50
  Q 467.71 643.22 468.49 687.96
  L 383.46 767.88
  Q 354.95 796.10 326.55 823.90
  C 314.38 835.81 300.07 848.73 290.05 859.31
  C 269.91 880.58 256.26 906.58 250.74 935.31
  Q 247.76 950.80 247.44 964.81
  C 247.17 976.19 248.08 988.19 248.30 999.90
  Q 249.22 1047.84 248.05 1093.33
  Q 246.34 1159.87 241.71 1222.77
  Q 240.99 1232.52 240.41 1241.92
  C 239.41 1258.13 237.78 1274.78 237.11 1290.71
  Q 236.08 1315.59 235.62 1340.28
  Q 235.34 1355.06 236.17 1368.97
  C 237.78 1395.98 245.02 1421.95 260.18 1444.16
  Q 272.35 1462.00 290.27 1476.58
  Q 297.13 1482.16 306.54 1488.82
  Q 327.56 1503.70 343.02 1511.70
  Q 358.04 1519.48 363.80 1521.51
  Q 393.47 1531.98 421.72 1544.01
  Q 426.70 1546.13 435.77 1551.10
  Q 437.89 1555.25 441.47 1560.05
  Q 449.34 1570.56 452.55 1574.46
  Q 485.87 1614.91 531.86 1639.79
  Q 561.77 1655.98 595.40 1665.28
  Q 614.35 1670.53 626.53 1672.73
  Q 658.75 1678.56 695.19 1682.24
  Q 728.56 1685.62 770.94 1685.50
  Q 871.57 1685.22 966.84 1653.99
  C 992.29 1645.65 1017.02 1635.09 1041.71 1622.94
  C 1076.36 1605.89 1111.94 1586.36 1146.44 1565.91
  Q 1206.75 1530.17 1250.03 1504.83
  Q 1345.98 1448.65 1431.64 1399.70
  Q 1473.67 1375.67 1514.50 1352.47
  Q 1518.96 1349.93 1523.08 1347.62
  Q 1559.43 1327.23 1592.47 1299.10
  C 1631.48 1265.88 1659.98 1219.57 1662.55 1167.59
  C 1664.45 1129.26 1650.62 1093.63 1624.19 1066.09
  C 1590.42 1030.88 1548.42 1006.75 1501.52 994.34
  Q 1493.39 992.19 1485.05 990.20
  Q 1481.84 989.44 1478.34 989.33
  L 1476.09 934.81
  C 1482.17 900.52 1479.83 866.91 1465.85 835.90
  Q 1463.52 830.72 1460.57 825.64
  Q 1453.02 812.56 1448.18 798.26
  Q 1445.83 791.29 1443.23 778.90
  C 1423.81 686.30 1406.33 593.53 1389.12 500.31
  Q 1384.98 472.71 1362.81 454.70
  C 1350.24 444.48 1336.68 437.31 1322.12 429.21
  C 1308.96 421.89 1295.41 413.09 1282.60 403.96
  Q 1244.61 376.87 1205.12 351.97
  C 1213.69 336.31 1218.60 317.83 1215.77 300.32
  C 1210.94 270.37 1187.74 249.53 1162.01 236.22
  Q 1133.62 221.53 1100.11 215.98
  Q 1051.39 207.91 1002.13 215.60
  Q 975.16 219.81 950.66 230.12
  C 912.62 246.12 876.92 278.60 886.50 324.02
  Q 889.78 339.57 896.04 351.61
  Q 895.03 360.87 887.31 366.31
  C 872.85 376.50 853.66 379.48 836.61 382.83
  L 785.77 333.00
  Q 778.49 321.02 762.57 318.17
  Q 749.23 315.79 734.72 316.42
  Q 728.42 316.69 725.79 316.95
  C 725.77 316.01 726.06 315.28 726.05 314.34
  Q 725.71 291.74 725.47 269.19
  C 725.38 261.30 730.42 256.94 737.73 255.08
  C 755.10 250.67 769.81 244.36 775.66 225.67
  Q 785.93 192.83 780.77 157.99
  Q 786.76 152.02 792.66 143.93
  C 801.91 131.23 806.98 115.70 803.14 99.97
  C 799.18 83.77 786.40 71.64 771.74 62.60
  C 759.99 55.35 749.60 53.71 734.98 53.67
  Q 716.75 53.62 697.74 52.90
  C 684.48 52.39 668.32 54.02 656.64 60.89
  Q 615.47 85.11 611.08 134.58
  Q 609.46 152.79 612.13 169.28
  Q 621.00 224.06 657.02 268.54
  Z"
/>
<path fill="#32425b" d="
  M 780.77 157.99
  Q 760.07 170.25 740.79 182.06
  C 735.58 185.24 731.76 188.23 736.22 194.59
  Q 739.17 198.79 741.42 202.88
  C 743.92 207.41 740.04 212.24 737.63 215.84
  C 718.53 244.53 691.69 263.35 657.02 268.54
  Q 621.00 224.06 612.13 169.28
  Q 609.46 152.79 611.08 134.58
  Q 615.47 85.11 656.64 60.89
  C 668.32 54.02 684.48 52.39 697.74 52.90
  Q 716.75 53.62 734.98 53.67
  C 749.60 53.71 759.99 55.35 771.74 62.60
  C 786.40 71.64 799.18 83.77 803.14 99.97
  C 806.98 115.70 801.91 131.23 792.66 143.93
  Q 786.76 152.02 780.77 157.99
  Z"
/>
<path fill="#f9a99d" d="
  M 780.77 157.99
  Q 785.93 192.83 775.66 225.67
  C 769.81 244.36 755.10 250.67 737.73 255.08
  C 730.42 256.94 725.38 261.30 725.47 269.19
  Q 725.71 291.74 726.05 314.34
  C 726.06 315.28 725.77 316.01 725.79 316.95
  Q 704.69 321.23 683.00 320.29
  Q 677.71 320.06 672.59 319.77
  Q 666.06 319.41 662.47 317.79
  Q 652.63 313.35 650.19 302.61
  C 649.35 298.88 650.15 295.20 650.27 291.45
  Q 650.46 285.36 648.62 278.76
  Q 648.50 278.32 648.72 277.58
  C 649.26 277.29 649.76 276.95 650.02 276.36
  C 651.77 272.43 654.29 271.10 657.02 268.54
  C 691.69 263.35 718.53 244.53 737.63 215.84
  C 740.04 212.24 743.92 207.41 741.42 202.88
  Q 739.17 198.79 736.22 194.59
  C 731.76 188.23 735.58 185.24 740.79 182.06
  Q 760.07 170.25 780.77 157.99
  Z"
/>
<path fill="#324c5f" d="
  M 1205.12 351.97
  Q 1199.34 356.64 1195.68 364.12
  C 1193.55 368.47 1192.14 371.79 1193.46 376.09
  Q 1194.21 378.51 1195.07 380.85
  C 1198.98 391.37 1192.65 401.25 1183.50 406.20
  C 1180.75 407.69 1177.06 408.58 1173.99 408.39
  Q 1166.32 407.91 1157.50 406.50
  Q 1150.97 405.46 1137.43 404.80
  Q 1104.76 403.20 1074.61 412.50
  Q 1042.45 413.17 1014.06 409.14
  Q 986.66 405.26 959.66 394.69
  C 954.55 387.32 950.00 377.51 961.07 372.33
  Q 968.25 368.97 977.34 368.11
  Q 1005.47 375.12 1034.49 382.24
  Q 1039.82 383.55 1043.44 383.79
  C 1054.71 384.55 1057.18 375.99 1055.56 366.92
  C 1051.45 343.95 1041.53 319.55 1016.29 314.46
  Q 1011.74 313.54 1007.26 312.96
  Q 969.94 308.05 929.15 302.69
  C 921.38 301.67 919.48 308.27 920.90 314.44
  Q 924.02 327.95 930.67 335.81
  Q 932.01 337.41 937.74 343.29
  Q 929.04 348.05 919.52 351.06
  C 911.88 353.47 903.80 353.94 896.04 351.61
  Q 889.78 339.57 886.50 324.02
  C 876.92 278.60 912.62 246.12 950.66 230.12
  Q 975.16 219.81 1002.13 215.60
  Q 1051.39 207.91 1100.11 215.98
  Q 1133.62 221.53 1162.01 236.22
  C 1187.74 249.53 1210.94 270.37 1215.77 300.32
  C 1218.60 317.83 1213.69 336.31 1205.12 351.97
  Z
  M 1074.01 242.75
  C 1031.70 237.35 990.02 244.90 952.93 266.34
  Q 946.37 270.14 940.96 274.29
  Q 938.73 276.00 937.59 278.69
  A 2.33 2.33 0.0 0 0 938.10 281.26
  Q 940.67 283.77 944.57 284.42
  Q 954.06 286.00 963.23 287.18
  Q 992.95 291.00 1027.68 295.70
  C 1047.28 298.36 1068.26 289.37 1085.40 279.79
  Q 1102.64 270.15 1120.20 259.87
  Q 1121.71 258.99 1122.90 257.68
  A 2.34 2.34 0.0 0 0 1122.44 254.14
  Q 1120.09 252.62 1117.17 251.77
  Q 1095.51 245.50 1074.01 242.75
  Z
  M 1156.48 269.35
  A 6.76 6.76 0.0 0 0 1147.80 267.51
  L 1084.43 302.78
  A 6.76 6.76 0.0 0 0 1084.44 314.60
  L 1153.49 352.87
  A 6.76 6.76 0.0 0 0 1162.61 350.35
  L 1184.27 313.06
  A 6.76 6.76 0.0 0 0 1183.82 305.60
  L 1156.48 269.35
  Z
  M 1100.53 377.26
  A 5.33 5.33 0.0 0 0 1102.14 367.64
  L 1079.68 352.89
  A 5.33 5.33 0.0 0 0 1071.49 358.18
  L 1074.61 377.89
  A 5.33 5.33 0.0 0 0 1081.20 382.22
  L 1100.53 377.26
  Z"
/>
<path fill="#ffffff" d="
  M 1074.01 242.75
  Q 1095.51 245.50 1117.17 251.77
  Q 1120.09 252.62 1122.44 254.14
  A 2.34 2.34 0.0 0 1 1122.90 257.68
  Q 1121.71 258.99 1120.20 259.87
  Q 1102.64 270.15 1085.40 279.79
  C 1068.26 289.37 1047.28 298.36 1027.68 295.70
  Q 992.95 291.00 963.23 287.18
  Q 954.06 286.00 944.57 284.42
  Q 940.67 283.77 938.10 281.26
  A 2.33 2.33 0.0 0 1 937.59 278.69
  Q 938.73 276.00 940.96 274.29
  Q 946.37 270.14 952.93 266.34
  C 990.02 244.90 1031.70 237.35 1074.01 242.75
  Z"
/>
<path fill="#cde8fd" d="
  M 648.28 277.35
  Q 648.08 277.35 647.92 277.45
  Q 640.18 282.00 635.96 289.04
  C 628.47 301.53 633.09 315.80 645.91 322.45
  C 655.74 327.55 666.38 331.28 677.56 331.58
  C 691.40 331.96 706.26 330.29 719.82 330.03
  Q 752.62 329.41 785.77 333.00
  L 836.61 382.83
  Q 846.04 404.71 855.47 426.06
  C 855.66 426.50 856.01 426.76 856.34 427.16
  Q 856.28 427.85 857.01 428.98
  Q 867.91 446.09 874.10 465.36
  Q 881.86 489.53 878.65 512.42
  Q 849.69 523.73 821.11 534.86
  C 816.20 536.77 813.71 538.43 813.47 543.75
  Q 813.01 553.96 812.53 564.24
  Q 811.65 564.86 809.11 567.11
  Q 804.44 571.25 797.86 572.00
  C 794.79 572.35 791.72 570.03 792.05 566.62
  Q 793.00 556.86 795.81 550.78
  C 798.01 546.01 806.27 539.58 801.64 534.13
  Q 799.63 531.77 796.00 530.85
  Q 784.38 515.71 777.12 497.64
  C 775.36 493.24 774.09 487.19 770.90 484.20
  C 767.44 480.95 761.49 481.07 758.08 484.55
  C 747.38 495.46 739.26 507.66 734.04 522.03
  Q 731.17 529.91 729.05 541.37
  Q 726.75 553.75 725.27 564.54
  Q 721.99 588.40 721.67 616.05
  C 721.47 633.25 722.08 649.87 718.38 666.67
  Q 716.78 673.97 713.71 679.44
  Q 709.36 687.21 698.34 687.17
  Q 698.01 686.34 696.37 685.38
  Q 628.28 645.51 560.60 605.83
  Q 560.24 601.38 560.11 597.12
  Q 559.98 593.01 559.62 588.29
  Q 557.64 562.68 555.72 548.05
  C 550.28 506.74 548.34 466.07 548.55 424.45
  Q 548.83 367.61 549.41 324.38
  C 549.72 301.15 557.30 269.76 581.95 260.91
  C 596.24 255.79 613.45 258.89 627.18 264.92
  Q 635.30 268.49 643.31 272.40
  Q 646.52 273.96 648.75 276.61
  Q 649.02 276.93 648.90 277.09
  Q 648.76 277.27 648.28 277.35
  Z"
/>
<path fill="#ffffff" d="
  M 1156.48 269.35
  L 1183.82 305.60
  A 6.76 6.76 0.0 0 1 1184.27 313.06
  L 1162.61 350.35
  A 6.76 6.76 0.0 0 1 1153.49 352.87
  L 1084.44 314.60
  A 6.76 6.76 0.0 0 1 1084.43 302.78
  L 1147.80 267.51
  A 6.76 6.76 0.0 0 1 1156.48 269.35
  Z"
/>
<path fill="#32425b" d="
  M 648.28 277.35
  L 648.72 277.58
  Q 648.50 278.32 648.62 278.76
  Q 650.46 285.36 650.27 291.45
  C 650.15 295.20 649.35 298.88 650.19 302.61
  Q 652.63 313.35 662.47 317.79
  Q 666.06 319.41 672.59 319.77
  Q 677.71 320.06 683.00 320.29
  Q 704.69 321.23 725.79 316.95
  Q 728.42 316.69 734.72 316.42
  Q 749.23 315.79 762.57 318.17
  Q 778.49 321.02 785.77 333.00
  Q 752.62 329.41 719.82 330.03
  C 706.26 330.29 691.40 331.96 677.56 331.58
  C 666.38 331.28 655.74 327.55 645.91 322.45
  C 633.09 315.80 628.47 301.53 635.96 289.04
  Q 640.18 282.00 647.92 277.45
  Q 648.08 277.35 648.28 277.35
  Z"
/>
<path fill="#ffffff" d="
  M 977.34 368.11
  Q 961.55 349.43 937.74 343.29
  Q 932.01 337.41 930.67 335.81
  Q 924.02 327.95 920.90 314.44
  C 919.48 308.27 921.38 301.67 929.15 302.69
  Q 969.94 308.05 1007.26 312.96
  Q 1011.74 313.54 1016.29 314.46
  C 1041.53 319.55 1051.45 343.95 1055.56 366.92
  C 1057.18 375.99 1054.71 384.55 1043.44 383.79
  Q 1039.82 383.55 1034.49 382.24
  Q 1005.47 375.12 977.34 368.11
  Z"
/>
<path fill="#f9a99d" d="
  M 977.34 368.11
  Q 968.25 368.97 961.07 372.33
  C 950.00 377.51 954.55 387.32 959.66 394.69
  Q 959.19 394.82 958.67 395.17
  Q 958.18 395.51 957.64 395.72
  C 945.76 400.27 932.67 401.92 919.79 402.99
  Q 907.29 404.04 894.98 408.61
  Q 890.02 410.45 876.75 416.81
  Q 866.45 421.76 856.34 427.16
  C 856.01 426.76 855.66 426.50 855.47 426.06
  Q 846.04 404.71 836.61 382.83
  C 853.66 379.48 872.85 376.50 887.31 366.31
  Q 895.03 360.87 896.04 351.61
  C 903.80 353.94 911.88 353.47 919.52 351.06
  Q 929.04 348.05 937.74 343.29
  Q 961.55 349.43 977.34 368.11
  Z"
/>
<path fill="#b3cde7" d="
  M 1205.12 351.97
  Q 1244.61 376.87 1282.60 403.96
  C 1295.41 413.09 1308.96 421.89 1322.12 429.21
  C 1336.68 437.31 1350.24 444.48 1362.81 454.70
  Q 1384.98 472.71 1389.12 500.31
  Q 1371.89 520.95 1351.36 537.11
  Q 1324.82 557.99 1293.46 567.95
  Q 1272.55 574.59 1250.94 582.37
  C 1247.96 583.45 1244.36 584.93 1244.41 588.65
  Q 1244.68 609.16 1245.70 629.32
  C 1246.64 647.99 1246.83 666.40 1247.64 685.07
  C 1248.47 704.23 1248.84 723.61 1249.69 742.52
  C 1250.64 763.60 1251.08 784.60 1251.95 805.82
  Q 1252.35 815.73 1252.65 825.82
  C 1253.77 863.56 1255.54 900.11 1256.69 938.80
  Q 1256.88 945.20 1257.83 947.64
  C 1260.11 953.50 1264.33 954.94 1268.55 958.25
  Q 1252.81 960.39 1237.45 961.50
  C 1232.73 961.84 1227.77 962.48 1227.02 967.31
  Q 1226.04 973.56 1224.71 979.33
  C 1219.22 1003.25 1200.46 1023.02 1180.17 1035.41
  Q 1153.82 1051.52 1122.90 1058.35
  Q 1118.37 1059.35 1113.56 1060.30
  Q 1108.35 1061.33 1106.56 1062.89
  Q 1102.99 1065.99 1103.22 1070.13
  C 1103.51 1075.17 1104.64 1080.12 1105.05 1085.15
  Q 1107.98 1121.71 1091.87 1154.62
  C 1074.42 1190.28 1042.64 1218.54 1008.45 1239.09
  Q 941.73 1279.21 867.99 1319.42
  Q 808.10 1352.07 736.25 1362.77
  Q 731.50 1363.47 728.47 1362.41
  Q 769.67 1337.92 807.86 1309.37
  Q 815.02 1304.01 823.62 1297.06
  Q 844.36 1280.31 855.88 1270.38
  Q 857.41 1269.07 858.87 1265.94
  L 863.72 1262.50
  A 1.47 1.44 -8.8 0 0 864.27 1261.76
  Q 865.16 1259.20 867.23 1258.67
  L 892.71 1243.93
  Q 895.95 1243.73 898.14 1242.51
  Q 902.69 1241.77 905.49 1240.74
  Q 914.46 1237.42 924.73 1232.32
  Q 957.43 1216.06 975.40 1185.62
  C 987.88 1164.49 994.08 1141.18 997.39 1115.69
  Q 998.97 1103.54 999.47 1094.47
  C 1001.00 1067.19 1000.22 1038.69 999.02 1010.33
  Q 998.57 999.86 999.55 993.05
  Q 1000.98 983.12 1004.56 972.15
  Q 1007.19 964.09 1010.20 956.56
  A 0.77 0.77 0.0 0 1 1011.51 956.35
  Q 1012.52 957.56 1013.52 957.47
  L 1014.63 959.07
  Q 1015.62 960.86 1015.66 961.43
  Q 1016.72 976.96 1021.69 991.12
  C 1024.19 998.26 1027.78 1005.46 1035.75 1007.29
  Q 1039.14 1008.07 1045.65 1006.56
  C 1067.98 1001.42 1089.96 998.51 1112.56 997.08
  Q 1132.02 995.84 1148.42 986.44
  C 1161.82 978.76 1169.68 968.42 1168.22 952.80
  Q 1167.31 943.13 1163.65 934.84
  Q 1162.01 931.11 1157.77 931.17
  Q 1127.72 931.63 1093.29 933.18
  C 1090.14 933.32 1087.37 932.01 1085.72 929.30
  C 1084.23 926.85 1081.47 923.14 1078.91 922.09
  Q 1077.89 921.67 1077.07 922.73
  Q 1064.05 817.59 1049.43 712.66
  Q 1044.98 680.70 1040.54 648.74
  Q 1038.26 632.31 1037.10 626.70
  C 1034.82 615.72 1028.44 607.03 1020.77 598.45
  Q 1021.53 598.28 1024.08 597.40
  Q 1044.83 590.20 1068.59 585.12
  Q 1072.82 584.22 1088.58 581.76
  C 1112.97 577.97 1136.67 571.28 1159.33 560.25
  C 1173.34 553.43 1170.19 540.93 1163.73 529.47
  Q 1170.91 524.47 1179.09 522.30
  Q 1181.92 521.55 1184.96 522.13
  A 1.47 1.46 75.5 0 1 1185.79 522.62
  Q 1187.11 524.21 1187.00 526.39
  Q 1186.07 544.38 1185.38 561.83
  C 1185.18 566.78 1189.65 569.38 1193.95 570.22
  Q 1199.32 571.27 1201.51 571.13
  Q 1205.71 570.87 1210.40 570.46
  C 1212.98 570.25 1215.69 569.26 1218.58 568.92
  Q 1225.82 568.96 1234.00 569.01
  Q 1240.91 569.05 1245.08 568.09
  Q 1253.76 566.11 1265.96 560.73
  C 1288.14 550.96 1309.76 537.07 1330.31 522.71
  C 1338.65 516.88 1342.45 505.98 1340.27 496.33
  Q 1339.15 491.39 1333.95 483.18
  Q 1320.42 461.87 1307.32 440.69
  C 1304.32 435.85 1300.02 431.53 1293.75 433.39
  Q 1290.29 434.41 1288.02 436.81
  Q 1274.72 450.89 1256.98 460.67
  Q 1237.13 471.61 1215.70 478.99
  Q 1208.57 477.35 1201.38 478.62
  C 1192.05 480.27 1187.44 487.43 1186.26 496.27
  C 1185.98 498.41 1184.80 501.42 1183.21 502.72
  Q 1158.53 522.93 1126.19 522.00
  Q 1108.66 520.30 1093.34 529.37
  Q 1089.69 531.53 1077.28 540.04
  Q 1063.69 549.37 1045.76 549.17
  Q 1032.23 549.02 1019.25 545.34
  Q 1021.12 528.17 1024.06 511.53
  Q 1027.87 489.88 1035.21 469.14
  Q 1039.36 457.42 1046.56 447.29
  Q 1059.31 429.37 1074.61 412.50
  Q 1104.76 403.20 1137.43 404.80
  Q 1150.97 405.46 1157.50 406.50
  Q 1166.32 407.91 1173.99 408.39
  C 1177.06 408.58 1180.75 407.69 1183.50 406.20
  C 1192.65 401.25 1198.98 391.37 1195.07 380.85
  Q 1194.21 378.51 1193.46 376.09
  C 1192.14 371.79 1193.55 368.47 1195.68 364.12
  Q 1199.34 356.64 1205.12 351.97
  Z
  M 1183.95 434.40
  C 1170.15 441.79 1149.41 438.12 1137.15 429.01
  Q 1134.06 426.72 1131.05 424.22
  A 1.99 1.99 0.0 0 0 1128.10 424.68
  C 1126.44 427.27 1123.95 431.02 1126.57 433.97
  C 1140.92 450.12 1164.04 450.95 1184.22 447.13
  Q 1194.40 445.20 1199.92 435.49
  C 1201.20 433.24 1202.48 430.69 1199.72 428.73
  Q 1197.79 427.35 1195.73 428.35
  Q 1190.04 431.14 1183.95 434.40
  Z"
/>
<path fill="#ffffff" d="
  M 1100.53 377.26
  L 1081.20 382.22
  A 5.33 5.33 0.0 0 1 1074.61 377.89
  L 1071.49 358.18
  A 5.33 5.33 0.0 0 1 1079.68 352.89
  L 1102.14 367.64
  A 5.33 5.33 0.0 0 1 1100.53 377.26
  Z"
/>
<path fill="#ffffff" d="
  M 1074.61 412.50
  Q 1059.31 429.37 1046.56 447.29
  Q 1039.36 457.42 1035.21 469.14
  Q 1027.87 489.88 1024.06 511.53
  Q 1021.12 528.17 1019.25 545.34
  Q 1006.58 546.58 993.77 547.70
  Q 967.51 550.01 941.26 552.32
  Q 921.76 554.04 902.24 555.42
  Q 893.02 556.07 890.22 547.52
  Q 884.47 530.01 878.65 512.42
  Q 881.86 489.53 874.10 465.36
  Q 867.91 446.09 857.01 428.98
  Q 856.28 427.85 856.34 427.16
  Q 866.45 421.76 876.75 416.81
  Q 890.02 410.45 894.98 408.61
  Q 907.29 404.04 919.79 402.99
  C 932.67 401.92 945.76 400.27 957.64 395.72
  Q 958.18 395.51 958.67 395.17
  Q 959.19 394.82 959.66 394.69
  Q 986.66 405.26 1014.06 409.14
  Q 1042.45 413.17 1074.61 412.50
  Z"
/>
<path fill="#475868" d="
  M 1137.15 429.01
  C 1149.41 438.12 1170.15 441.79 1183.95 434.40
  Q 1190.04 431.14 1195.73 428.35
  Q 1197.79 427.35 1199.72 428.73
  C 1202.48 430.69 1201.20 433.24 1199.92 435.49
  Q 1194.40 445.20 1184.22 447.13
  C 1164.04 450.95 1140.92 450.12 1126.57 433.97
  C 1123.95 431.02 1126.44 427.27 1128.10 424.68
  A 1.99 1.99 0.0 0 1 1131.05 424.22
  Q 1134.06 426.72 1137.15 429.01
  Z"
/>
<path fill="#93b0ce" d="
  M 1218.58 568.92
  L 1215.70 478.99
  Q 1237.13 471.61 1256.98 460.67
  Q 1274.72 450.89 1288.02 436.81
  Q 1290.29 434.41 1293.75 433.39
  C 1300.02 431.53 1304.32 435.85 1307.32 440.69
  Q 1320.42 461.87 1333.95 483.18
  Q 1339.15 491.39 1340.27 496.33
  C 1342.45 505.98 1338.65 516.88 1330.31 522.71
  C 1309.76 537.07 1288.14 550.96 1265.96 560.73
  Q 1253.76 566.11 1245.08 568.09
  Q 1240.91 569.05 1234.00 569.01
  Q 1225.82 568.96 1218.58 568.92
  Z"
/>
<path fill="#273a49" d="
  M 1215.70 478.99
  L 1218.58 568.92
  C 1215.69 569.26 1212.98 570.25 1210.40 570.46
  Q 1205.71 570.87 1201.51 571.13
  Q 1199.32 571.27 1193.95 570.22
  C 1189.65 569.38 1185.18 566.78 1185.38 561.83
  Q 1186.07 544.38 1187.00 526.39
  Q 1187.11 524.21 1185.79 522.62
  A 1.47 1.46 75.5 0 0 1184.96 522.13
  Q 1181.92 521.55 1179.09 522.30
  Q 1170.91 524.47 1163.73 529.47
  L 1126.19 522.00
  Q 1158.53 522.93 1183.21 502.72
  C 1184.80 501.42 1185.98 498.41 1186.26 496.27
  C 1187.44 487.43 1192.05 480.27 1201.38 478.62
  Q 1208.57 477.35 1215.70 478.99
  Z"
/>
<path fill="#b3cde7" d="
  M 796.00 530.85
  C 785.70 568.17 774.82 605.30 763.03 642.19
  Q 759.30 653.85 756.22 660.97
  Q 747.85 680.37 735.71 697.68
  Q 729.91 699.19 725.25 699.32
  Q 709.39 699.79 698.34 687.17
  Q 709.36 687.21 713.71 679.44
  Q 716.78 673.97 718.38 666.67
  C 722.08 649.87 721.47 633.25 721.67 616.05
  Q 721.99 588.40 725.27 564.54
  Q 726.75 553.75 729.05 541.37
  Q 731.17 529.91 734.04 522.03
  C 739.26 507.66 747.38 495.46 758.08 484.55
  C 761.49 481.07 767.44 480.95 770.90 484.20
  C 774.09 487.19 775.36 493.24 777.12 497.64
  Q 784.38 515.71 796.00 530.85
  Z"
/>
<path fill="#93b0ce" d="
  M 1389.12 500.31
  C 1406.33 593.53 1423.81 686.30 1443.23 778.90
  Q 1445.83 791.29 1448.18 798.26
  Q 1453.02 812.56 1460.57 825.64
  Q 1457.80 832.93 1455.04 839.88
  Q 1447.15 859.75 1434.23 875.39
  C 1424.55 887.11 1411.83 897.55 1398.83 904.12
  Q 1368.63 919.40 1344.93 934.17
  C 1333.03 941.58 1321.83 951.19 1308.03 954.80
  Q 1300.33 956.81 1285.81 958.42
  L 1268.55 958.25
  C 1264.33 954.94 1260.11 953.50 1257.83 947.64
  Q 1256.88 945.20 1256.69 938.80
  C 1255.54 900.11 1253.77 863.56 1252.65 825.82
  Q 1252.35 815.73 1251.95 805.82
  C 1251.08 784.60 1250.64 763.60 1249.69 742.52
  C 1248.84 723.61 1248.47 704.23 1247.64 685.07
  C 1246.83 666.40 1246.64 647.99 1245.70 629.32
  Q 1244.68 609.16 1244.41 588.65
  C 1244.36 584.93 1247.96 583.45 1250.94 582.37
  Q 1272.55 574.59 1293.46 567.95
  Q 1324.82 557.99 1351.36 537.11
  Q 1371.89 520.95 1389.12 500.31
  Z"
/>
<path fill="#f9a99d" d="
  M 878.65 512.42
  Q 884.47 530.01 890.22 547.52
  Q 893.02 556.07 902.24 555.42
  Q 921.76 554.04 941.26 552.32
  Q 967.51 550.01 993.77 547.70
  Q 1006.58 546.58 1019.25 545.34
  Q 1032.23 549.02 1045.76 549.17
  Q 1063.69 549.37 1077.28 540.04
  Q 1089.69 531.53 1093.34 529.37
  Q 1108.66 520.30 1126.19 522.00
  L 1163.73 529.47
  C 1170.19 540.93 1173.34 553.43 1159.33 560.25
  C 1136.67 571.28 1112.97 577.97 1088.58 581.76
  Q 1072.82 584.22 1068.59 585.12
  Q 1044.83 590.20 1024.08 597.40
  Q 1021.53 598.28 1020.77 598.45
  Q 1010.19 600.70 999.30 602.81
  C 976.03 607.32 952.79 612.71 929.98 617.78
  C 916.22 620.83 902.43 624.31 888.83 627.70
  C 879.29 630.08 871.22 630.49 862.64 626.86
  C 852.99 622.77 845.14 613.25 840.04 603.93
  Q 832.75 590.62 826.04 572.06
  C 823.54 565.18 818.55 565.64 812.53 564.24
  Q 813.01 553.96 813.47 543.75
  C 813.71 538.43 816.20 536.77 821.11 534.86
  Q 849.69 523.73 878.65 512.42
  Z"
/>
<path fill="#273a49" d="
  M 812.53 564.24
  C 818.55 565.64 823.54 565.18 826.04 572.06
  Q 832.75 590.62 840.04 603.93
  C 845.14 613.25 852.99 622.77 862.64 626.86
  C 871.22 630.49 879.29 630.08 888.83 627.70
  C 902.43 624.31 916.22 620.83 929.98 617.78
  C 952.79 612.71 976.03 607.32 999.30 602.81
  Q 1010.19 600.70 1020.77 598.45
  C 1028.44 607.03 1034.82 615.72 1037.10 626.70
  Q 1038.26 632.31 1040.54 648.74
  Q 1044.98 680.70 1049.43 712.66
  Q 1064.05 817.59 1077.07 922.73
  C 1080.00 935.46 1077.55 947.89 1066.20 955.52
  Q 1060.81 959.13 1056.88 960.14
  Q 1047.55 962.54 1044.87 962.79
  Q 1030.56 964.16 1014.63 959.07
  L 1013.52 957.47
  C 1012.02 955.81 1010.67 954.47 1009.84 952.33
  Q 1005.98 942.43 1004.65 937.59
  Q 995.79 905.32 997.00 872.13
  Q 1000.94 839.39 993.30 807.99
  Q 989.38 791.91 978.70 780.05
  C 971.19 771.70 966.92 763.26 964.59 751.84
  Q 962.73 742.76 962.57 734.13
  C 962.44 727.01 954.82 718.33 947.31 723.58
  C 942.66 726.84 941.55 732.22 944.64 736.91
  C 947.75 741.65 949.93 746.10 951.16 751.88
  C 952.61 758.69 949.35 759.91 943.54 758.23
  Q 937.43 756.46 933.58 753.12
  C 929.86 749.89 926.54 749.03 921.46 749.66
  Q 909.98 751.06 904.19 751.96
  C 890.89 754.03 875.94 758.36 865.13 765.13
  Q 816.82 795.38 771.53 822.35
  Q 771.02 822.66 769.95 823.08
  Q 769.13 823.41 768.39 823.89
  Q 759.78 829.43 750.28 834.82
  Q 749.64 799.18 748.88 763.76
  Q 748.59 749.99 747.82 743.79
  C 745.88 728.22 740.46 710.81 735.71 697.68
  Q 747.85 680.37 756.22 660.97
  Q 759.30 653.85 763.03 642.19
  C 774.82 605.30 785.70 568.17 796.00 530.85
  Q 799.63 531.77 801.64 534.13
  C 806.27 539.58 798.01 546.01 795.81 550.78
  Q 793.00 556.86 792.05 566.62
  C 791.72 570.03 794.79 572.35 797.86 572.00
  Q 804.44 571.25 809.11 567.11
  Q 811.65 564.86 812.53 564.24
  Z"
/>
<path fill="#475868" d="
  M 560.60 605.83
  Q 628.28 645.51 696.37 685.38
  Q 698.01 686.34 698.34 687.17
  Q 709.39 699.79 725.25 699.32
  Q 729.91 699.19 735.71 697.68
  C 740.46 710.81 745.88 728.22 747.82 743.79
  Q 748.59 749.99 748.88 763.76
  Q 749.64 799.18 750.28 834.82
  Q 742.80 837.23 735.63 841.88
  Q 730.25 845.36 726.61 850.61
  Q 726.34 850.99 726.07 851.04
  Q 725.70 851.12 725.31 850.86
  Q 715.13 844.84 704.87 838.83
  Q 592.61 773.06 483.47 708.03
  C 476.39 703.81 465.90 698.16 468.49 687.96
  Q 467.71 643.22 466.39 598.50
  C 466.08 587.97 472.43 577.66 482.41 573.26
  Q 495.36 567.55 508.31 575.19
  Q 534.22 590.47 560.60 605.83
  Z"
/>
<path fill="#cde8fd" d="
  M 468.49 687.96
  C 465.90 698.16 476.39 703.81 483.47 708.03
  Q 592.61 773.06 704.87 838.83
  Q 715.13 844.84 725.31 850.86
  Q 725.11 851.84 724.62 852.10
  Q 625.60 906.81 512.49 891.92
  Q 498.17 890.03 482.41 885.13
  Q 464.33 879.51 446.32 871.54
  Q 436.38 867.14 429.15 862.40
  C 401.10 844.04 386.80 812.40 384.77 779.76
  Q 384.33 772.67 383.46 767.88
  L 468.49 687.96
  Z"
/>
<path fill="#b3cde7" d="
  M 997.00 872.13
  Q 992.58 878.32 982.15 890.65
  Q 973.47 900.91 954.64 926.59
  Q 936.93 950.74 913.45 967.65
  Q 903.77 974.62 890.13 982.61
  Q 815.95 1026.04 740.89 1065.92
  Q 730.70 1071.33 722.97 1075.01
  Q 671.00 1099.76 612.95 1104.19
  Q 607.90 1104.57 607.87 1110.50
  Q 607.11 1249.22 606.67 1388.42
  Q 601.66 1388.93 597.50 1389.39
  Q 561.88 1393.39 526.73 1393.38
  Q 493.34 1393.36 459.18 1390.44
  Q 448.98 1389.57 439.38 1388.21
  Q 424.83 1386.16 409.11 1383.96
  A 2.10 2.05 36.6 0 0 408.00 1384.11
  Q 404.14 1385.75 408.42 1388.63
  A 2.28 2.24 67.4 0 0 409.20 1388.96
  Q 444.94 1397.45 476.05 1402.02
  Q 519.49 1408.39 563.23 1409.61
  Q 593.18 1410.45 628.51 1408.41
  C 630.41 1408.30 632.45 1408.56 634.34 1408.79
  Q 631.26 1410.41 628.19 1411.76
  Q 624.78 1413.26 624.78 1416.31
  Q 624.79 1480.21 624.90 1544.10
  C 624.90 1548.03 625.51 1551.09 629.60 1551.95
  Q 638.22 1553.78 643.02 1555.33
  Q 640.81 1555.86 638.54 1556.11
  Q 592.52 1561.24 549.23 1559.67
  Q 540.55 1559.36 529.29 1558.29
  Q 506.63 1556.13 484.00 1554.04
  Q 457.02 1551.54 435.77 1551.10
  Q 426.70 1546.13 421.72 1544.01
  Q 393.47 1531.98 363.80 1521.51
  Q 358.04 1519.48 343.02 1511.70
  Q 327.56 1503.70 306.54 1488.82
  Q 297.13 1482.16 290.27 1476.58
  Q 272.35 1462.00 260.18 1444.16
  C 245.02 1421.95 237.78 1395.98 236.17 1368.97
  Q 235.34 1355.06 235.62 1340.28
  Q 236.08 1315.59 237.11 1290.71
  C 237.78 1274.78 239.41 1258.13 240.41 1241.92
  Q 240.99 1232.52 241.71 1222.77
  Q 246.34 1159.87 248.05 1093.33
  Q 249.22 1047.84 248.30 999.90
  C 248.08 988.19 247.17 976.19 247.44 964.81
  Q 247.76 950.80 250.74 935.31
  C 256.26 906.58 269.91 880.58 290.05 859.31
  C 300.07 848.73 314.38 835.81 326.55 823.90
  Q 354.95 796.10 383.46 767.88
  Q 384.33 772.67 384.77 779.76
  C 386.80 812.40 401.10 844.04 429.15 862.40
  Q 436.38 867.14 446.32 871.54
  Q 464.33 879.51 482.41 885.13
  Q 498.17 890.03 512.49 891.92
  Q 625.60 906.81 724.62 852.10
  Q 725.11 851.84 725.31 850.86
  Q 725.70 851.12 726.07 851.04
  Q 726.34 850.99 726.61 850.61
  Q 730.25 845.36 735.63 841.88
  Q 742.80 837.23 750.28 834.82
  Q 759.78 829.43 768.39 823.89
  Q 769.13 823.41 769.95 823.08
  Q 771.02 822.66 771.53 822.35
  Q 816.82 795.38 865.13 765.13
  C 875.94 758.36 890.89 754.03 904.19 751.96
  Q 909.98 751.06 921.46 749.66
  C 926.54 749.03 929.86 749.89 933.58 753.12
  Q 937.43 756.46 943.54 758.23
  C 949.35 759.91 952.61 758.69 951.16 751.88
  C 949.93 746.10 947.75 741.65 944.64 736.91
  C 941.55 732.22 942.66 726.84 947.31 723.58
  C 954.82 718.33 962.44 727.01 962.57 734.13
  Q 962.73 742.76 964.59 751.84
  C 966.92 763.26 971.19 771.70 978.70 780.05
  Q 989.38 791.91 993.30 807.99
  Q 1000.94 839.39 997.00 872.13
  Z"
/>
<path fill="#b3cde7" d="
  M 1476.09 934.81
  Q 1474.00 933.61 1471.49 933.62
  Q 1470.98 933.63 1470.64 934.00
  Q 1469.59 935.15 1469.12 936.78
  Q 1470.46 932.40 1470.58 927.75
  Q 1470.73 922.09 1468.43 919.48
  C 1465.55 916.19 1460.70 916.72 1457.35 919.17
  C 1429.65 939.44 1399.73 952.63 1366.32 958.02
  Q 1335.97 962.91 1303.07 960.54
  C 1297.34 960.13 1291.61 959.07 1285.81 958.42
  Q 1300.33 956.81 1308.03 954.80
  C 1321.83 951.19 1333.03 941.58 1344.93 934.17
  Q 1368.63 919.40 1398.83 904.12
  C 1411.83 897.55 1424.55 887.11 1434.23 875.39
  Q 1447.15 859.75 1455.04 839.88
  Q 1457.80 832.93 1460.57 825.64
  Q 1463.52 830.72 1465.85 835.90
  C 1479.83 866.91 1482.17 900.52 1476.09 934.81
  Z"
/>
<path fill="#93b0ce" d="
  M 997.00 872.13
  Q 995.79 905.32 1004.65 937.59
  Q 1005.98 942.43 1009.84 952.33
  C 1010.67 954.47 1012.02 955.81 1013.52 957.47
  Q 1012.52 957.56 1011.51 956.35
  A 0.77 0.77 0.0 0 0 1010.20 956.56
  Q 1007.19 964.09 1004.56 972.15
  Q 1000.98 983.12 999.55 993.05
  Q 998.57 999.86 999.02 1010.33
  C 1000.22 1038.69 1001.00 1067.19 999.47 1094.47
  Q 998.97 1103.54 997.39 1115.69
  C 994.08 1141.18 987.88 1164.49 975.40 1185.62
  Q 957.43 1216.06 924.73 1232.32
  Q 914.46 1237.42 905.49 1240.74
  Q 902.69 1241.77 898.14 1242.51
  C 902.57 1236.80 905.74 1232.08 907.08 1225.11
  Q 908.12 1219.74 903.38 1217.13
  Q 900.36 1215.47 897.53 1216.91
  Q 887.26 1222.11 884.76 1234.95
  C 883.68 1240.48 886.85 1244.35 892.71 1243.93
  L 867.23 1258.67
  C 868.09 1252.92 869.21 1243.83 862.95 1240.97
  Q 860.61 1239.90 858.60 1240.62
  C 851.47 1243.17 848.00 1252.79 847.14 1260.09
  Q 846.86 1262.47 847.61 1263.65
  Q 851.69 1270.15 858.87 1265.94
  Q 857.41 1269.07 855.88 1270.38
  Q 844.36 1280.31 823.62 1297.06
  Q 815.02 1304.01 807.86 1309.37
  Q 769.67 1337.92 728.47 1362.41
  Q 726.68 1363.66 722.52 1364.52
  Q 664.65 1376.52 606.67 1388.42
  Q 607.11 1249.22 607.87 1110.50
  Q 607.90 1104.57 612.95 1104.19
  Q 671.00 1099.76 722.97 1075.01
  Q 730.70 1071.33 740.89 1065.92
  Q 815.95 1026.04 890.13 982.61
  Q 903.77 974.62 913.45 967.65
  Q 936.93 950.74 954.64 926.59
  Q 973.47 900.91 982.15 890.65
  Q 992.58 878.32 997.00 872.13
  Z
  M 804.2691 1291.4897
  A 13.63 8.61 124.3 0 0 819.0627 1285.0820
  A 13.63 8.61 124.3 0 0 819.6309 1268.9703
  A 13.63 8.61 124.3 0 0 804.8373 1275.3780
  A 13.63 8.61 124.3 0 0 804.2691 1291.4897
  Z"
/>
<path fill="#cde8fd" d="
  M 1469.12 936.78
  C 1462.45 957.23 1449.84 976.06 1435.37 992.67
  C 1407.99 1024.09 1374.07 1049.35 1337.98 1070.32
  Q 1118.75 1197.71 897.58 1324.37
  Q 861.35 1345.12 828.85 1359.33
  Q 749.39 1394.05 662.65 1405.13
  Q 662.56 1405.14 649.77 1406.44
  Q 641.95 1407.24 634.34 1408.79
  C 632.45 1408.56 630.41 1408.30 628.51 1408.41
  Q 593.18 1410.45 563.23 1409.61
  Q 519.49 1408.39 476.05 1402.02
  Q 444.94 1397.45 409.20 1388.96
  A 2.28 2.24 67.4 0 1 408.42 1388.63
  Q 404.14 1385.75 408.00 1384.11
  A 2.10 2.05 36.6 0 1 409.11 1383.96
  Q 424.83 1386.16 439.38 1388.21
  Q 448.98 1389.57 459.18 1390.44
  Q 493.34 1393.36 526.73 1393.38
  Q 561.88 1393.39 597.50 1389.39
  Q 601.66 1388.93 606.67 1388.42
  Q 664.65 1376.52 722.52 1364.52
  Q 726.68 1363.66 728.47 1362.41
  Q 731.50 1363.47 736.25 1362.77
  Q 808.10 1352.07 867.99 1319.42
  Q 941.73 1279.21 1008.45 1239.09
  C 1042.64 1218.54 1074.42 1190.28 1091.87 1154.62
  Q 1107.98 1121.71 1105.05 1085.15
  C 1104.64 1080.12 1103.51 1075.17 1103.22 1070.13
  Q 1102.99 1065.99 1106.56 1062.89
  Q 1108.35 1061.33 1113.56 1060.30
  Q 1118.37 1059.35 1122.90 1058.35
  Q 1153.82 1051.52 1180.17 1035.41
  C 1200.46 1023.02 1219.22 1003.25 1224.71 979.33
  Q 1226.04 973.56 1227.02 967.31
  C 1227.77 962.48 1232.73 961.84 1237.45 961.50
  Q 1252.81 960.39 1268.55 958.25
  L 1285.81 958.42
  C 1291.61 959.07 1297.34 960.13 1303.07 960.54
  Q 1335.97 962.91 1366.32 958.02
  C 1399.73 952.63 1429.65 939.44 1457.35 919.17
  C 1460.70 916.72 1465.55 916.19 1468.43 919.48
  Q 1470.73 922.09 1470.58 927.75
  Q 1470.46 932.40 1469.12 936.78
  Z"
/>
<path fill="#93b0ce" d="
  M 1014.63 959.07
  Q 1030.56 964.16 1044.87 962.79
  Q 1047.55 962.54 1056.88 960.14
  Q 1060.81 959.13 1066.20 955.52
  C 1077.55 947.89 1080.00 935.46 1077.07 922.73
  Q 1077.89 921.67 1078.91 922.09
  C 1081.47 923.14 1084.23 926.85 1085.72 929.30
  C 1087.37 932.01 1090.14 933.32 1093.29 933.18
  Q 1127.72 931.63 1157.77 931.17
  Q 1162.01 931.11 1163.65 934.84
  Q 1167.31 943.13 1168.22 952.80
  C 1169.68 968.42 1161.82 978.76 1148.42 986.44
  Q 1132.02 995.84 1112.56 997.08
  C 1089.96 998.51 1067.98 1001.42 1045.65 1006.56
  Q 1039.14 1008.07 1035.75 1007.29
  C 1027.78 1005.46 1024.19 998.26 1021.69 991.12
  Q 1016.72 976.96 1015.66 961.43
  Q 1015.62 960.86 1014.63 959.07
  Z"
/>
<path fill="#93b0ce" d="
  M 1476.09 934.81
  L 1478.34 989.33
  Q 1477.32 1056.46 1476.73 1123.49
  Q 1476.57 1140.89 1476.46 1143.50
  C 1474.88 1178.15 1463.93 1211.17 1443.45 1239.18
  Q 1435.52 1250.04 1424.36 1261.74
  Q 1420.42 1265.86 1417.15 1267.02
  C 1410.45 1269.40 1403.16 1267.54 1398.57 1261.99
  C 1391.12 1252.97 1382.16 1245.64 1371.99 1240.55
  Q 1371.54 1240.33 1371.05 1240.39
  Q 1370.14 1240.51 1370.01 1240.20
  Q 1365.02 1230.26 1354.63 1222.90
  C 1349.23 1219.08 1345.24 1216.89 1340.21 1222.58
  Q 1313.63 1252.68 1278.49 1274.04
  Q 1246.94 1293.22 1213.50 1304.26
  Q 1191.30 1311.59 1173.04 1318.07
  Q 1155.18 1324.41 1143.88 1330.88
  Q 1077.91 1368.63 1012.22 1407.45
  Q 1008.37 1409.73 1006.88 1414.89
  Q 1002.56 1412.98 997.89 1413.66
  Q 995.38 1414.03 992.37 1416.17
  Q 970.98 1431.33 947.07 1442.34
  Q 943.26 1420.77 925.72 1408.03
  Q 907.86 1395.06 888.09 1385.19
  Q 865.36 1373.84 843.00 1383.32
  Q 830.67 1388.55 820.02 1397.26
  C 793.91 1418.63 773.87 1448.96 763.38 1481.42
  Q 757.95 1498.23 756.74 1515.68
  C 755.99 1526.37 757.23 1533.41 758.62 1542.90
  Q 739.52 1540.99 722.54 1542.12
  Q 686.02 1544.56 649.71 1555.27
  Q 647.51 1555.92 643.02 1555.33
  Q 638.22 1553.78 629.60 1551.95
  C 625.51 1551.09 624.90 1548.03 624.90 1544.10
  Q 624.79 1480.21 624.78 1416.31
  Q 624.78 1413.26 628.19 1411.76
  Q 631.26 1410.41 634.34 1408.79
  Q 641.95 1407.24 649.77 1406.44
  Q 662.56 1405.14 662.65 1405.13
  Q 749.39 1394.05 828.85 1359.33
  Q 861.35 1345.12 897.58 1324.37
  Q 1118.75 1197.71 1337.98 1070.32
  C 1374.07 1049.35 1407.99 1024.09 1435.37 992.67
  C 1449.84 976.06 1462.45 957.23 1469.12 936.78
  Q 1469.59 935.15 1470.64 934.00
  Q 1470.98 933.63 1471.49 933.62
  Q 1474.00 933.61 1476.09 934.81
  Z"
/>
<path fill="#dae3f2" d="
  M 435.77 1551.10
  Q 457.02 1551.54 484.00 1554.04
  Q 506.63 1556.13 529.29 1558.29
  Q 540.55 1559.36 549.23 1559.67
  Q 592.52 1561.24 638.54 1556.11
  Q 640.81 1555.86 643.02 1555.33
  Q 647.51 1555.92 649.71 1555.27
  Q 686.02 1544.56 722.54 1542.12
  Q 739.52 1540.99 758.62 1542.90
  Q 763.81 1558.95 777.46 1570.28
  Q 784.56 1576.18 793.65 1581.50
  C 807.83 1589.80 822.56 1597.55 838.24 1599.91
  Q 847.09 1601.24 856.02 1599.03
  Q 862.33 1597.47 871.21 1591.18
  Q 883.65 1582.38 892.85 1574.01
  Q 933.97 1536.57 943.96 1481.49
  Q 947.39 1462.61 947.07 1442.34
  Q 970.98 1431.33 992.37 1416.17
  Q 995.38 1414.03 997.89 1413.66
  Q 1002.56 1412.98 1006.88 1414.89
  C 1013.84 1423.66 1024.10 1415.17 1029.78 1409.20
  C 1032.22 1406.62 1035.73 1404.31 1038.34 1408.48
  C 1041.59 1413.68 1043.77 1418.80 1050.48 1419.79
  Q 1059.46 1421.11 1064.40 1413.85
  C 1066.42 1410.89 1068.91 1405.70 1071.89 1403.80
  A 1.45 1.43 -33.2 0 1 1073.86 1404.20
  C 1075.62 1406.84 1076.49 1409.90 1078.44 1412.37
  Q 1085.17 1420.84 1096.26 1416.61
  C 1101.86 1414.47 1103.90 1407.57 1106.05 1404.06
  Q 1106.74 1402.93 1108.06 1402.17
  Q 1108.50 1401.91 1109.00 1402.01
  C 1112.42 1402.66 1117.41 1408.65 1119.97 1411.13
  C 1127.67 1418.60 1137.29 1409.90 1140.14 1402.56
  C 1141.36 1399.41 1143.24 1395.24 1147.55 1398.26
  Q 1153.00 1402.06 1159.06 1406.50
  C 1168.32 1413.28 1176.75 1398.28 1179.01 1391.14
  C 1180.06 1387.82 1183.66 1386.68 1185.89 1389.61
  C 1190.67 1395.91 1201.52 1402.65 1208.38 1395.79
  Q 1212.37 1391.79 1214.82 1386.01
  Q 1215.69 1383.98 1216.83 1382.76
  C 1219.83 1379.58 1222.60 1381.86 1225.96 1382.46
  Q 1237.51 1384.52 1244.44 1376.73
  C 1247.95 1372.80 1250.37 1368.48 1256.60 1369.05
  C 1266.45 1369.96 1273.81 1367.97 1277.04 1358.16
  C 1277.58 1356.53 1277.85 1354.96 1277.92 1353.25
  C 1278.06 1349.61 1281.65 1346.36 1285.34 1347.97
  C 1295.97 1352.59 1305.97 1352.66 1311.52 1340.84
  C 1312.77 1338.18 1313.25 1334.80 1315.33 1332.61
  C 1317.92 1329.88 1321.55 1330.12 1324.85 1329.34
  Q 1333.87 1327.23 1336.12 1317.66
  C 1337.21 1312.99 1336.74 1308.70 1341.99 1306.21
  Q 1346.70 1303.99 1351.81 1301.82
  C 1355.78 1300.15 1357.98 1297.96 1358.88 1293.64
  Q 1364.27 1267.66 1370.01 1240.20
  Q 1370.14 1240.51 1371.05 1240.39
  Q 1371.54 1240.33 1371.99 1240.55
  C 1382.16 1245.64 1391.12 1252.97 1398.57 1261.99
  C 1403.16 1267.54 1410.45 1269.40 1417.15 1267.02
  Q 1420.42 1265.86 1424.36 1261.74
  Q 1435.52 1250.04 1443.45 1239.18
  C 1463.93 1211.17 1474.88 1178.15 1476.46 1143.50
  Q 1476.57 1140.89 1476.73 1123.49
  Q 1477.32 1056.46 1478.34 989.33
  Q 1481.84 989.44 1485.05 990.20
  Q 1493.39 992.19 1501.52 994.34
  C 1548.42 1006.75 1590.42 1030.88 1624.19 1066.09
  C 1650.62 1093.63 1664.45 1129.26 1662.55 1167.59
  C 1659.98 1219.57 1631.48 1265.88 1592.47 1299.10
  Q 1559.43 1327.23 1523.08 1347.62
  Q 1518.96 1349.93 1514.50 1352.47
  Q 1473.67 1375.67 1431.64 1399.70
  Q 1345.98 1448.65 1250.03 1504.83
  Q 1206.75 1530.17 1146.44 1565.91
  C 1111.94 1586.36 1076.36 1605.89 1041.71 1622.94
  C 1017.02 1635.09 992.29 1645.65 966.84 1653.99
  Q 871.57 1685.22 770.94 1685.50
  Q 728.56 1685.62 695.19 1682.24
  Q 658.75 1678.56 626.53 1672.73
  Q 614.35 1670.53 595.40 1665.28
  Q 561.77 1655.98 531.86 1639.79
  Q 485.87 1614.91 452.55 1574.46
  Q 449.34 1570.56 441.47 1560.05
  Q 437.89 1555.25 435.77 1551.10
  Z"
/>
<path fill="#273a49" d="
  M 898.14 1242.51
  Q 895.95 1243.73 892.71 1243.93
  C 886.85 1244.35 883.68 1240.48 884.76 1234.95
  Q 887.26 1222.11 897.53 1216.91
  Q 900.36 1215.47 903.38 1217.13
  Q 908.12 1219.74 907.08 1225.11
  C 905.74 1232.08 902.57 1236.80 898.14 1242.51
  Z"
/>
<path fill="#273a49" d="
  M 1370.01 1240.20
  Q 1364.27 1267.66 1358.88 1293.64
  C 1357.98 1297.96 1355.78 1300.15 1351.81 1301.82
  Q 1346.70 1303.99 1341.99 1306.21
  C 1336.74 1308.70 1337.21 1312.99 1336.12 1317.66
  Q 1333.87 1327.23 1324.85 1329.34
  C 1321.55 1330.12 1317.92 1329.88 1315.33 1332.61
  C 1313.25 1334.80 1312.77 1338.18 1311.52 1340.84
  C 1305.97 1352.66 1295.97 1352.59 1285.34 1347.97
  C 1281.65 1346.36 1278.06 1349.61 1277.92 1353.25
  C 1277.85 1354.96 1277.58 1356.53 1277.04 1358.16
  C 1273.81 1367.97 1266.45 1369.96 1256.60 1369.05
  C 1250.37 1368.48 1247.95 1372.80 1244.44 1376.73
  Q 1237.51 1384.52 1225.96 1382.46
  C 1222.60 1381.86 1219.83 1379.58 1216.83 1382.76
  Q 1215.69 1383.98 1214.82 1386.01
  Q 1212.37 1391.79 1208.38 1395.79
  C 1201.52 1402.65 1190.67 1395.91 1185.89 1389.61
  C 1183.66 1386.68 1180.06 1387.82 1179.01 1391.14
  C 1176.75 1398.28 1168.32 1413.28 1159.06 1406.50
  Q 1153.00 1402.06 1147.55 1398.26
  C 1143.24 1395.24 1141.36 1399.41 1140.14 1402.56
  C 1137.29 1409.90 1127.67 1418.60 1119.97 1411.13
  C 1117.41 1408.65 1112.42 1402.66 1109.00 1402.01
  Q 1108.50 1401.91 1108.06 1402.17
  Q 1106.74 1402.93 1106.05 1404.06
  C 1103.90 1407.57 1101.86 1414.47 1096.26 1416.61
  Q 1085.17 1420.84 1078.44 1412.37
  C 1076.49 1409.90 1075.62 1406.84 1073.86 1404.20
  A 1.45 1.43 -33.2 0 0 1071.89 1403.80
  C 1068.91 1405.70 1066.42 1410.89 1064.40 1413.85
  Q 1059.46 1421.11 1050.48 1419.79
  C 1043.77 1418.80 1041.59 1413.68 1038.34 1408.48
  C 1035.73 1404.31 1032.22 1406.62 1029.78 1409.20
  C 1024.10 1415.17 1013.84 1423.66 1006.88 1414.89
  Q 1008.37 1409.73 1012.22 1407.45
  Q 1077.91 1368.63 1143.88 1330.88
  Q 1155.18 1324.41 1173.04 1318.07
  Q 1191.30 1311.59 1213.50 1304.26
  Q 1246.94 1293.22 1278.49 1274.04
  Q 1313.63 1252.68 1340.21 1222.58
  C 1345.24 1216.89 1349.23 1219.08 1354.63 1222.90
  Q 1365.02 1230.26 1370.01 1240.20
  Z"
/>
<path fill="#273a49" d="
  M 867.23 1258.67
  Q 865.16 1259.20 864.27 1261.76
  A 1.47 1.44 -8.8 0 1 863.72 1262.50
  L 858.87 1265.94
  Q 851.69 1270.15 847.61 1263.65
  Q 846.86 1262.47 847.14 1260.09
  C 848.00 1252.79 851.47 1243.17 858.60 1240.62
  Q 860.61 1239.90 862.95 1240.97
  C 869.21 1243.83 868.09 1252.92 867.23 1258.67
  Z"
/>
<ellipse fill="#273a49" cx="0.00" cy="0.00" transform="translate(811.95,1280.23) rotate(124.3)" rx="13.63" ry="8.61"/>
<path fill="#273a49" d="
  M 947.07 1442.34
  Q 947.39 1462.61 943.96 1481.49
  Q 933.97 1536.57 892.85 1574.01
  Q 883.65 1582.38 871.21 1591.18
  Q 862.33 1597.47 856.02 1599.03
  Q 847.09 1601.24 838.24 1599.91
  C 822.56 1597.55 807.83 1589.80 793.65 1581.50
  Q 784.56 1576.18 777.46 1570.28
  Q 763.81 1558.95 758.62 1542.90
  C 757.23 1533.41 755.99 1526.37 756.74 1515.68
  Q 757.95 1498.23 763.38 1481.42
  C 773.87 1448.96 793.91 1418.63 820.02 1397.26
  Q 830.67 1388.55 843.00 1383.32
  Q 865.36 1373.84 888.09 1385.19
  Q 907.86 1395.06 925.72 1408.03
  Q 943.26 1420.77 947.07 1442.34
  Z
  M 840.6692 1556.6190
  A 62.29 33.66 119.9 0 0 900.8997 1519.3991
  A 62.29 33.66 119.9 0 0 902.7708 1448.6210
  A 62.29 33.66 119.9 0 0 842.5403 1485.8409
  A 62.29 33.66 119.9 0 0 840.6692 1556.6190
  Z"
/>
<path fill="#93b0ce" d="
  M 840.6692 1556.6190
  A 62.29 33.66 119.9 0 1 842.5403 1485.8409
  A 62.29 33.66 119.9 0 1 902.7708 1448.6210
  A 62.29 33.66 119.9 0 1 900.8997 1519.3991
  A 62.29 33.66 119.9 0 1 840.6692 1556.6190
  Z
  M 855.8325 1530.1022
  A 32.75 18.46 121.0 0 0 888.5233 1511.5376
  A 32.75 18.46 121.0 0 0 889.5675 1473.9578
  A 32.75 18.46 121.0 0 0 856.8767 1492.5224
  A 32.75 18.46 121.0 0 0 855.8325 1530.1022
  Z"
/>
<ellipse fill="#324c5f" cx="0.00" cy="0.00" transform="translate(872.70,1502.03) rotate(121.0)" rx="32.75" ry="18.46"/>
</svg>
