<svg width="24" height="24" viewBox="0 0 24 24" fill="none" xmlns="http://www.w3.org/2000/svg">
<path d="M3.10202 20.8979C3.80002 21.5969 4.79802 21.9659 5.98902 21.9659C7.73102 21.9659 9.84402 21.1879 12.001 19.8389C14.157 21.1889 16.271 21.9659 18.013 21.9659C19.203 21.9659 20.201 21.5969 20.9 20.8979C22.169 19.6289 22.311 17.4849 21.301 14.8589C20.943 13.9269 20.447 12.9639 19.844 11.9999C20.4198 11.0956 20.9077 10.1383 21.301 9.14094C22.311 6.51494 22.168 4.36994 20.9 3.10194C20.202 2.40294 19.204 2.03394 18.013 2.03394C16.271 2.03394 14.158 2.81194 12.001 4.16094C9.84502 2.81094 7.73102 2.03394 5.98902 2.03394C4.79902 2.03394 3.80102 2.40294 3.10202 3.10194C1.83302 4.37094 1.69002 6.51494 2.70002 9.14094C3.05902 10.0729 3.55402 11.0359 4.15702 11.9999C3.5812 12.9042 3.09331 13.8616 2.70002 14.8589C1.69002 17.4849 1.83302 19.6289 3.10202 20.8979ZM19.433 15.5769C20.122 17.3669 20.141 18.8279 19.485 19.4839C19.165 19.8039 18.67 19.9659 18.012 19.9659C16.845 19.9659 15.366 19.4629 13.804 18.5859C15.5954 17.2012 17.2027 15.5936 18.587 13.8019C18.923 14.4029 19.21 14.9979 19.433 15.5769ZM12 17.4169C10.956 16.6705 9.97478 15.8401 9.06602 14.9339C8.15536 14.0246 7.31933 13.0434 6.56602 11.9999C8.07164 9.91156 9.90694 8.08201 12 6.58294C13.044 7.32934 14.0253 8.15977 14.934 9.06594C15.8447 9.97532 16.6807 10.9565 17.434 11.9999C15.9284 14.0883 14.0931 15.9179 12 17.4169ZM18.012 4.03394C18.669 4.03394 19.164 4.19594 19.485 4.51594C20.141 5.17194 20.123 6.63294 19.433 8.42294C19.21 9.00194 18.923 9.59694 18.587 10.1979C17.204 8.4051 15.5966 6.79729 13.804 5.41394C15.366 4.53794 16.845 4.03394 18.012 4.03394ZM4.56702 8.42294C3.87802 6.63294 3.85902 5.17194 4.51502 4.51594C4.83502 4.19594 5.33002 4.03394 5.98802 4.03394C7.15502 4.03394 8.63402 4.53694 10.196 5.41394C8.40347 6.79729 6.79599 8.4051 5.41302 10.1979C5.08957 9.62693 4.80687 9.03379 4.56702 8.42294ZM4.56702 15.5769C4.79002 14.9979 5.07702 14.4029 5.41302 13.8019C6.79599 15.5948 8.40347 17.2026 10.196 18.5859C8.63302 19.4629 7.15502 19.9659 5.98802 19.9659C5.33102 19.9659 4.83602 19.8039 4.51502 19.4839C3.85902 18.8279 3.87802 17.3669 4.56702 15.5769Z" fill="black"/>
<path d="M12 14.574C13.4216 14.574 14.574 13.4215 14.574 12C14.574 10.5784 13.4216 9.42596 12 9.42596C10.5784 9.42596 9.42603 10.5784 9.42603 12C9.42603 13.4215 10.5784 14.574 12 14.574Z" fill="black"/>
</svg>
