<svg width="48" height="48" viewBox="0 0 48 48" fill="none" xmlns="http://www.w3.org/2000/svg">
<path d="M29.366 29.6559C28.6349 30.3846 27.7715 30.967 26.822 31.3719C25.1126 32.0936 23.2055 32.1989 21.4271 31.67C19.6486 31.141 18.1091 30.0105 17.072 28.4719L13.756 30.7099C14.6209 31.9862 15.7212 33.0858 16.998 33.9499C18.2973 34.8286 19.7572 35.4423 21.294 35.7559C23.672 36.24 26.1407 35.9961 28.378 35.0559C29.8018 34.4517 31.0965 33.5799 32.192 32.4879C32.736 31.9459 33.232 31.3459 33.66 30.7099L30.344 28.4719C30.0553 28.896 29.7279 29.2924 29.366 29.6559Z" fill="black"/>
<path d="M24 4C12.972 4 4 12.972 4 24C4 35.028 12.972 44 24 44C35.028 44 44 35.028 44 24C44 12.972 35.028 4 24 4ZM24 8C29.906 8 35.062 11.226 37.836 16H10.164C12.938 11.226 18.094 8 24 8ZM24 40C15.178 40 8 32.822 8 24C8 22.618 8.196 21.282 8.528 20H10V22C10 23.0609 10.4214 24.0783 11.1716 24.8284C11.9217 25.5786 12.9391 26 14 26H18C19.0609 26 20.0783 25.5786 20.8284 24.8284C21.5786 24.0783 22 23.0609 22 22H26C26 23.0609 26.4214 24.0783 27.1716 24.8284C27.9217 25.5786 28.9391 26 30 26H34C35.0609 26 36.0783 25.5786 36.8284 24.8284C37.5786 24.0783 38 23.0609 38 22V20H39.472C39.804 21.282 40 22.618 40 24C40 32.822 32.822 40 24 40Z" fill="black"/>
</svg>
