<svg width="48" height="48" viewBox="0 0 48 48" fill="none" xmlns="http://www.w3.org/2000/svg">
<path d="M26.928 12C29.788 12 32.486 13.226 34.526 15.452L37.476 12.748C34.668 9.686 30.922 8 26.928 8C22.932 8 19.188 9.686 16.384 12.75C14.9872 14.2772 13.8986 16.0599 13.178 18H8V22H12.228C12.152 22.66 12.1 23.326 12.1 24C12.1 24.674 12.152 25.34 12.228 26H8V30H13.178C13.902 31.94 14.98 33.722 16.384 35.252C19.188 38.314 22.932 40 26.928 40C30.922 40 34.668 38.314 37.474 35.252L34.524 32.548C32.486 34.774 29.788 36 26.928 36C24.068 36 21.372 34.776 19.332 32.548C18.6472 31.7774 18.0656 30.9208 17.602 30H26V26H16.278C16.178 25.344 16.1 24.68 16.1 24C16.1 23.32 16.178 22.656 16.278 22H26V18H17.602C18.082 17.086 18.634 16.214 19.332 15.452C21.372 13.226 24.068 12 26.928 12Z" fill="black"/>
</svg>
