<svg width="48" height="48" viewBox="0 0 48 48" fill="none" xmlns="http://www.w3.org/2000/svg">
<path d="M24 36C32 36 34 28 34 28H14C14 28 16 36 24 36Z" fill="black"/>
<path d="M24 44C35.028 44 44 35.028 44 24C44 12.972 35.028 4 24 4C12.972 4 4 12.972 4 24C4 35.028 12.972 44 24 44ZM24 8C32.822 8 40 15.178 40 24C40 32.822 32.822 40 24 40C15.178 40 8 32.822 8 24C8 15.178 15.178 8 24 8Z" fill="black"/>
<path d="M17.07 25.268L21.17 21.102C21.4488 20.8232 21.6694 20.4917 21.8187 20.1268C21.9681 19.7618 22.0433 19.3708 22.0399 18.9765C22.0366 18.5822 21.9548 18.1925 21.7992 17.8301C21.6437 17.4678 21.4175 17.1401 21.134 16.866C20.5877 16.3233 19.8526 16.0131 19.0827 16.0004C18.3127 15.9877 17.5678 16.2736 17.004 16.798C16.4317 16.2803 15.6807 16.0051 14.9095 16.0305C14.1382 16.0558 13.4069 16.3798 12.87 16.934C11.698 18.134 11.712 19.994 12.908 21.168L17.07 25.268ZM31.07 25.268L35.17 21.102C35.4488 20.8232 35.6694 20.4917 35.8187 20.1268C35.9681 19.7618 36.0433 19.3708 36.0399 18.9765C36.0366 18.5822 35.9548 18.1925 35.7992 17.8301C35.6437 17.4678 35.4175 17.1401 35.134 16.866C34.5877 16.3233 33.8526 16.0131 33.0827 16.0004C32.3127 15.9877 31.5678 16.2736 31.004 16.798C30.4319 16.2794 29.6806 16.0035 28.9089 16.0285C28.1371 16.0535 27.4053 16.3775 26.868 16.932C25.696 18.132 25.71 19.992 26.906 21.166L31.07 25.268Z" fill="black"/>
</svg>
