<svg width="24" height="25" viewBox="0 0 24 25" fill="none" xmlns="http://www.w3.org/2000/svg">
<path fill-rule="evenodd" clip-rule="evenodd" d="M16 3.63086H8C5.23858 3.63086 3 5.86944 3 8.63086V16.6309C3 19.3923 5.23858 21.6309 8 21.6309H16C18.7614 21.6309 21 19.3923 21 16.6309V8.63086C21 5.86944 18.7614 3.63086 16 3.63086ZM19.25 16.6309C19.2445 18.4235 17.7926 19.8754 16 19.8809H8C6.20735 19.8754 4.75549 18.4235 4.75 16.6309V8.63086C4.75549 6.83821 6.20735 5.38635 8 5.38086H16C17.7926 5.38635 19.2445 6.83821 19.25 8.63086V16.6309ZM16.75 8.88086C17.3023 8.88086 17.75 8.43314 17.75 7.88086C17.75 7.32858 17.3023 6.88086 16.75 6.88086C16.1977 6.88086 15.75 7.32858 15.75 7.88086C15.75 8.43314 16.1977 8.88086 16.75 8.88086ZM12 8.13086C9.51472 8.13086 7.5 10.1456 7.5 12.6309C7.5 15.1162 9.51472 17.1309 12 17.1309C14.4853 17.1309 16.5 15.1162 16.5 12.6309C16.5027 11.4366 16.0294 10.2904 15.1849 9.44594C14.3404 8.60145 13.1943 8.1282 12 8.13086ZM9.25 12.6309C9.25 14.1497 10.4812 15.3809 12 15.3809C13.5188 15.3809 14.75 14.1497 14.75 12.6309C14.75 11.1121 13.5188 9.88086 12 9.88086C10.4812 9.88086 9.25 11.1121 9.25 12.6309Z" fill="white"/>
</svg>
