<svg width="24" height="24" viewBox="0 0 24 24" fill="none" xmlns="http://www.w3.org/2000/svg">
<path d="M21.8798 2.1499L20.6798 2.5499C18.6232 3.26445 16.427 3.48372 14.2698 3.1899C12.0029 2.83811 9.68267 3.15072 7.58975 4.0899C6.48023 4.56235 5.50651 5.30482 4.75723 6.24971C4.00795 7.19461 3.50692 8.31191 3.29975 9.4999C3.08902 10.6424 3.11058 11.8155 3.36314 12.9495C3.6157 14.0834 4.09408 15.1549 4.76975 16.0999C4.70975 16.3099 4.64975 16.5199 4.59975 16.7299C4.19359 18.4569 3.99221 20.2258 3.99975 21.9999H5.99975C6.09375 20.5477 6.29092 19.1041 6.58975 17.6799C7.97719 18.4291 9.5331 18.8112 11.1098 18.7899C12.5802 18.7889 14.0356 18.4931 15.3898 17.9199C22.9998 14.6699 21.9998 3.8599 21.9998 3.4099L21.8798 2.1499ZM14.6098 16.0799C11.9998 17.1899 8.87975 16.9999 7.12975 15.6299C7.42552 14.6409 7.8314 13.6883 8.33975 12.7899C8.73495 12.1433 9.20118 11.5429 9.72975 10.9999C10.2699 10.4511 10.8782 9.97386 11.5398 9.5799C12.9068 8.76245 14.423 8.22535 15.9998 7.9999V6.9999C14.1855 6.9371 12.3824 7.30731 10.7398 8.0799C9.06017 8.89945 7.63578 10.1614 6.61975 11.7299C6.24292 12.329 5.90876 12.9539 5.61975 13.5999C5.15627 12.4143 5.02489 11.1247 5.23975 9.8699C5.38053 8.99144 5.74265 8.16328 6.292 7.46347C6.84135 6.76366 7.55984 6.21524 8.37975 5.8699C9.57537 5.31106 10.88 5.02418 12.1998 5.0299C12.8198 5.0299 13.4298 5.0899 14.0698 5.1399C16.0741 5.3985 18.1091 5.2798 20.0698 4.7899C19.9998 7.5499 19.4998 13.9999 14.6098 16.0799Z" fill="black"/>
</svg>
