<svg version="1.2" xmlns="http://www.w3.org/2000/svg" viewBox="0 0 1024 1024" width="1024" height="1024">
	<title>logo-svg</title>
	<style>
		.s0 { fill: none;stroke: #91badd;stroke-width: 2 } 
		.s1 { fill: #2476bd } 
		.s2 { fill: #fdfdfd } 
	</style>
	<g id="Layer">
		<path id="Layer" fill-rule="evenodd" class="s0" d="m593.5 65.7c1.2-0.2 2.3-0.6 3.4-1.2 1-0.6 1.9-1.4 2.7-2.4 0.7-1 1.3-2.1 1.6-3.3 0.3-1.2 0.4-2.5 0.2-3.7-0.1-1.2-0.5-2.4-1.2-3.5-0.6-1.1-1.4-2-2.3-2.8-1-0.7-2.1-1.3-3.3-1.6-1.1-0.4-2.4-0.4-3.6-0.3-1.2 0.2-2.3 0.6-3.4 1.2-1 0.6-2 1.4-2.7 2.4-0.7 1-1.3 2.1-1.6 3.3-0.3 1.2-0.4 2.5-0.2 3.7 0.1 1.2 0.5 2.4 1.1 3.5 0.6 1.1 1.4 2 2.4 2.8 1 0.7 2.1 1.3 3.3 1.6 1.1 0.3 2.4 0.4 3.6 0.3z"/>
		<path id="Layer" fill-rule="evenodd" class="s0" d="m694.1 64q-0.9-2-1.8-4c-2.3-5.3-9.7-4.3-9.9 1.7q0 0.4 0.1 0.7 0.1 0.4 0.3 0.7 0.2 0.3 0.5 0.5 0.3 0.2 0.6 0.4l2.4 1q2 0.8 0 1.6-2.5 0.9-2.4 3.4c0.1 4.4-0.2 8.4 0.4 11.6q0.3 2 1.5 3 1.9 1.5 3.5-0.9 2.6-4 4.1-8.3 0.1-0.2 0.3-0.2l0.5-0.1q0.2 0 0.1 0.1-0.5 2.9-1.9 5.2-0.1 0.1 0 0.3h0.1q0 0 0 0 0 0 0.1 0 0 0 0 0 0.1 0 0.1-0.1 1.6-2.1 2.4-5 0.1-0.3 0.3-0.5 0.2-0.2 0.4-0.3 0.3-0.1 0.6 0 0.3 0 0.5 0.2l6 4.2q0 0.1 0 0.1l0.3-0.1q0-0.1 0.1-0.1 0 0 0-0.1 0 0 0-0.1 0 0 0 0l-5.9-4.9q-0.2-0.2 0-0.3l0.4-0.1q0.3-0.1 0.4 0 4.4 3.2 10.4 5.1 1.4 0.4 2.6 0 0.3-0.1 0.5-0.3 0.3-0.2 0.4-0.5 0.2-0.3 0.3-0.6 0.1-0.3 0-0.6-0.2-2.6-1.9-4.4-3-3.4-7-7.6-2.2-2.4-4.1-1 0 0-0.1 0 0 0 0 0 0 0-0.1 0 0 0 0 0-0.2-0.1-0.2-0.2-0.3-0.5 0-0.7c3.1-2.9-0.3-6.5-3.3-6.6q-0.5-0.1-0.9 0.1-0.5 0.2-0.8 0.5-0.3 0.3-0.5 0.7-0.2 0.5-0.2 0.9 0 2.3 0.9 5.5 0.4 1.2-0.1 0.1z"/>
		<path id="Layer" fill-rule="evenodd" class="s0" d="m286.9 117.1q7.1-2.6 16.6-4.3 2-0.4 0.1-1-10.3-3.5-18-4.1-5.3-0.3-9.4 1.4c-11.2 4.8-12.1 18.3-8.8 28.3q6.3 19.1 25.9 24.9c20.4 6.2 43.3 1.9 60.4-10.4q8.7-6.2 14.9-12.3 14.3-14.1 15-14.8 9-8.7 20.9-13.8 13.4-5.7 25-8.3 0.1-0.1 0.2-0.2 0.2 0 0.3-0.2 0.1-0.1 0.1-0.2 0.1-0.2 0.1-0.3 0.3-7.1-0.3-11.3-2.8-18.1-19.7-24.9-10.3-4.2-21.8-2.7-22 2.8-34.8 21.3c-6.9 9.9-11.2 20.1-16.7 32.7q-3.2 7-7.3 13.2-10.5 15.7-29.1 15.8c-7.1 0.1-14.4-2.2-18.7-7.2-4.3-4.9-6.7-12-2-17.4q1.9-2.3 7.1-4.2z"/>
		<path id="Layer" fill-rule="evenodd" class="s0" d="m610.4 78.2c0-1.2-0.3-2.5-0.7-3.6-0.5-1.1-1.2-2.2-2.1-3-0.8-0.9-1.9-1.6-3-2.1-1.1-0.4-2.4-0.7-3.6-0.7-1.2 0-2.4 0.3-3.6 0.7-1.1 0.5-2.1 1.2-3 2.1-0.9 0.8-1.6 1.9-2 3-0.5 1.1-0.7 2.4-0.7 3.6 0 1.2 0.2 2.4 0.7 3.6 0.4 1.1 1.1 2.1 2 3 0.9 0.9 1.9 1.6 3 2 1.2 0.5 2.4 0.7 3.6 0.7 1.2 0 2.5-0.2 3.6-0.7 1.1-0.4 2.2-1.1 3-2 0.9-0.9 1.6-1.9 2.1-3 0.4-1.2 0.7-2.4 0.7-3.6z"/>
		<path id="Layer" fill-rule="evenodd" class="s0" d="m645 95.3q0-1-0.4-1.8-0.4-0.9-1.1-1.6-0.6-0.7-1.5-1.1-0.9-0.4-1.9-0.4-1 0-1.9 0.4-0.9 0.4-1.6 1.1-0.6 0.7-1 1.6-0.4 0.8-0.4 1.8 0 1 0.4 1.9 0.4 0.9 1 1.6 0.7 0.7 1.6 1 0.9 0.4 1.9 0.4 1 0 1.9-0.4 0.9-0.3 1.5-1 0.7-0.7 1.1-1.6 0.4-0.9 0.4-1.9z"/>
		<path id="Layer" fill-rule="evenodd" class="s0" d="m883.8 194.3q14.3-33.9 35.8-64.1 0.1-0.1 0-0.1-0.1-0.1-0.3-0.1 0 0 0 0-5.5 5.3-7.9 8.4-16 20.5-29 43.4c-5 8.8-10.2 17.4-13.7 26.2q-2.7 6.8-3.2 14.1-0.1 0.9 0.8 1.3 5.5 2.4 8 7.9 0.1 0.2 0.3 0.4 0.2 0.2 0.4 0.2 0.2 0.1 0.5 0.1 0.2 0 0.4-0.1 2.9-1.2 5.2-3 7.8-6 14.8-12.8 23.6-23 41.1-52.3 1.2-1.9 1.4-2.4 0-0.2 0-0.3-0.1-0.1-0.2-0.1-0.2-0.1-0.3 0.1-16.9 18.7-37.1 33.7-0.2 0.1-0.4-0.1l-0.1-0.2q-0.1-0.1 0-0.1 13.1-12.5 23.2-27.2 7.7-11.2 12.6-24.6 8.3-22.7 15.1-46.7 0.1-0.2-0.1-0.2l-0.2-0.1q-0.1 0-0.1 0-6.2 15.1-13.4 29.8-16.9 34.7-40.5 65-0.5 0.6-0.6 0.6-1 0.7-0.4-0.4l35-62.5q0.1-0.2-0.1-0.3l-0.4-0.2q-0.2-0.2-0.4 0.1-26.7 35.8-45.9 66.7-1 1.6-0.3-0.1z"/>
		<path id="Layer" fill-rule="evenodd" class="s0" d="m619.7 102.8q0-1-0.4-1.9-0.4-0.9-1.1-1.6-0.7-0.7-1.6-1.1-0.9-0.3-1.9-0.3-1 0-1.9 0.3-0.9 0.4-1.6 1.1-0.7 0.7-1.1 1.6-0.4 0.9-0.4 1.9 0 1 0.4 1.9 0.4 0.9 1.1 1.6 0.7 0.7 1.6 1.1 0.9 0.4 1.9 0.4 1 0 1.9-0.4 0.9-0.4 1.6-1.1 0.7-0.7 1.1-1.6 0.4-0.9 0.4-1.9z"/>
		<path id="Layer" fill-rule="evenodd" class="s0" d="m445.7 354.2q0.5 0.5 4.2 5.3 13.5 17.4 29.2 32.8 2.1 2 21.6 20.3 5.9 5.6 10.2 12.4 0.1 0.1 0.2 0.2 0 0 0.2 0.1 0.1 0 0.2 0 0.1 0 0.2 0c17.3-5.7 37.8-2.4 51.1 10.5q0.1 0.1 0.2 0.1 0.2 0 0.3 0 0.1-0.1 0.2-0.2 0.1-0.2 0.1-0.3-2.1-25.1-12.4-48.3-0.5-1-1.8-2.2-16.9-14.5-26.5-22.7c-0.8-0.6-1.2-1.5-1.9-2.1q-0.5-0.3-1-0.1-12 3.8-23.3-1.6-11.7-5.6-19.3-16-14.3-19.4-11.4-42.6 1.1-9.7 7.3-16 5.1-5.3 12.6-6.6 0.2 0 0.3-0.1 0.1-0.1 0.2-0.2 0-0.2 0-0.4 0-0.1-0.1-0.2-8.4-10-7.6-23.1 0.3-4.6 1.5-10.8 0.1-0.1 0.1-0.2 0.1-0.1 0.2-0.2 0.1-0.1 0.2-0.1 0.1-0.1 0.2-0.1 15.1-0.9 29.6 0.9c5 0.6 11.3 0.3 9-6.7q-1.1-3.6-1.3-4.9 0-0.1 0-0.2 0-0.2 0-0.3 0.1-0.1 0.1-0.2 0.1-0.1 0.2-0.2 2.7-3.2 0.6-6.6-0.1-0.1-0.1-0.3 0-0.2 0.1-0.4 0.1-0.1 0.2-0.3 0.2-0.1 0.4-0.1c2.5-0.3 3.5-1.8 2.9-4.3-0.6-2.4-2.1-5.2 0.4-6.7 1.8-1.1 5.9-3.5 5.1-6.2q-0.3-1-2-2.6c-4.7-4.7-9-9-10.2-15.6q0-0.3 0-0.6 0.1-0.3 0.2-0.5 0.1-0.2 0.3-0.4 0.2-0.2 0.5-0.3 4.4-2 7.3-3.9 8.5-5.3 12.4-14.2c7.4-16.5-3-33.9-18.1-41.1q-6.2-3-13.6-4.2-7-1.3-14.4 0.5-0.1 0.1-0.2-0.1-0.2-0.2 0-0.3 20-6.8 36.8 4.4 1.3 0.9 0.8-0.6-2.1-6.3-7.4-10.7-4.6-3.8-11.4-4.7c-6.8-0.9-13.7-1.1-19.2 2.2q-2.3 1.4-0.4-0.4 9.9-9.4 23.6-5.5 1.2 0.3 0.3-0.5c-5-4.6-14.8-4.2-20.9-2.2q-6.6 2.2-10.2 8.2-1 1.5-1.2 5-0.8 13.9-12.7 23.1-0.1 0-0.1-0.1 0-0.2 0-0.2 5.7-6.1 7.8-13.3c3-10.4-5.4-15.7-14.2-17.3q-23.5-4.3-44.5 4.3c-14 5.8-25.2 16.4-30.6 30.5q-2.7 7-3.3 15.5c-2.4 36.5 25.5 67.1 56.9 81.2q0.1 0 0.2 0.1 0.1 0.1 0.2 0.2 0.1 0.1 0.1 0.3 0.1 0.1 0.1 0.2 0.8 14.8 1.7 27.3 0.4 4.4 1.2 8.8 0.2 1.3-0.7 0.3-32.1-35.8-73.7-59-90-50.3-192.9-49-4.5 0.1-20.1 0.5-13.3 0.3-25.1 1.3-0.1 0-0.1 0.1-0.1 0-0.1 0.1 0 0.1 0 0.1 0 0.1 0.1 0.1 0.2 0.2 0.6 0.3 13 2.5 19.3 3.9 2.4 0.5 6-0.1 5.2-0.8 24.3-0.4c10.7 0.2 24.2 0.7 35.3 1.9q65.7 6.6 124.8 37.4 28.1 14.6 52.4 32.3 11.8 8.6 22.3 16.9 2.5 2-0.2 0.2-2.8-1.9-11.7-8-47.9-32.9-104.8-54.7-9.6-3.6-18.9-6.6-59.8-18.8-123.5-18.4-2.8 0-0.1 1 9.2 3.4 11.9 4.5 28.9 11.5 48.1 35 2.2 2.7 4 3.4c7.1 2.5 13.3 2.1 21.2 0.8q0.3 0 18.5-3.7 14.6-3 29.1-1.5 0.2 0.1 0.2 0.2 0 0.2-0.1 0.2-9.8 0.4-15.1 1.2-6.3 1.1-16.3 3.7c-11.6 3-20.8 4.9-30.8 3.8q-2.5-0.3-4.7-1.1-1.3-0.5-0.7 0.8c4.2 7.9 6.8 15.1 9.2 24.7q1.9 7.8 4 15.4 0.1 0.3 0.2 0.5 0.2 0.2 0.4 0.3 0.3 0.2 0.5 0.2 0.3 0 0.6-0.1 15.5-4.3 31.2-6.8 43.3-6.9 85.9 2.2 43.8 9.4 83.4 33.7 0.1 0.1 0 0.2l-0.1 0.3q0 0 0 0-6.3-3.7-13.7-7.1-68.9-31.3-144.3-25.5c-13.9 1.1-27.5 3.7-40.9 7q-0.9 0.3-0.5 1.1 11.2 25.1 35.1 36.9 0.2 0 0.3 0.1 0.2 0 0.4 0 0.2 0 0.3 0 0.2-0.1 0.3-0.2 10-5.5 22.4-9.6 14.7-4.9 27.9-7.4 49.9-9.6 96.2 11.9 0.2 0.1 0.1 0.2 0 0.1-0.1 0.1-20.3-8.2-40.9-9.5-39.3-2.5-77.2 8.7-10.4 3.1-21.5 8.2-0.1 0-0.2 0.1-0.1 0.2-0.1 0.3 0 0.2 0.1 0.3 0 0.1 0.2 0.2 7.7 5 13 12.9 6.5 9.7 11.2 16.3 0.1 0.2 0.2 0.3 0.2 0.1 0.4 0.1 0.2 0 0.3 0 0.2-0.1 0.4-0.2 16.2-12.8 36.5-18.3 18.8-5.1 37.4-5.2 20.6 0 42.4 3.7 0.1 0 0.1-0.1 0.2-0.5 0.2 0.2 0 0 0 0-0.1 0.1-0.1 0.1 0 0 0 0 0 0-0.1 0-14-0.4-19.2-0.1-44.3 2.7-86.5 21.9-3.2 1.5-7.5 4-0.2 0.1-0.3 0.2-0.1 0.2-0.1 0.3-0.1 0.2-0.1 0.3 0 0.2 0.1 0.4 5.6 14.5 17.6 23 6.2 4.4 15.5 7.1 8.3 2.3 17 2.6 19.8 0.7 35.8-8.1 7.4-4.2 13.5-7.1c12.5-6 26.4-8 39.6-3.4q0.1 0 0.4 0.1 0.2 0 0.4-0.1 0.1 0 0.2 0 0.1-0.1 0.1-0.2 0.1-0.1 0.1-0.2-0.1-0.1-0.1-0.2l-4.4-7.3q-0.1-0.1-0.1-0.2v-0.3q0.1-0.2 0.2 0z"/>
		<path id="Layer" fill-rule="evenodd" class="s0" d="m652.4 167q-4.7 10.2-5 13.2-1.2 9.9-1.6 15.8 0 1.3 1.2 1.7 6 1.9 10.7-0.5 1.7-1 9-4.4 0.3-0.1 0.6-0.3 0.2-0.3 0.4-0.6 0.1-0.3 0.1-0.6 0.1-0.4 0-0.7-0.8-3.7-3.4-6.5-2.5-2.9-5.3-5.5-0.1 0 0-0.1l0.1-0.2q0.1-0.2 0.3-0.1 7.2 4.9 14.8 1.6c2.5-1.1 5.6-3.5 7.3-4.9q7.6-6.3 15.1-10.7 1.4-0.8 1.7-2.5 0-0.1 0-0.2 0-0.1-0.1-0.2 0-0.1 0-0.2-0.1-0.2-0.1-0.3c-1.9-3-8.2-3.6-11.2-3.4q-17.5 1.2-32.5 7-0.5 0.2-0.3-0.4 0.4-1.5 1.3-2.1 5-3 7.4-8 0 0 0-0.1 0-0.1 0-0.2-0.1-0.1-0.1-0.1-0.1-0.1-0.2-0.1h-0.3q-0.2-0.1-0.2 0-2 3.2-4.1 5.3-1.2 1.1-3.4 1.9-0.5 0.2-1 0-0.8-0.4-1.9-0.6-0.5 0-0.6-0.5-1.4-5.5 0.5-11 0.1-0.2 0-0.2h-0.3q-0.2 0-0.3 0.2-2 3.9-1.7 6.8 0.7 5.3 0.6 6.3-0.2 1.1-1.1-0.2 0 0 0-0.1 0 0 0 0-0.1 0-0.1-0.1 0 0 0 0-1.4-3.9-7.8-17.2-4-8.3-8.1-13.7-3.8-5.1-6.8-6.9-1.7-0.9-2.9-0.9-0.4 0-0.7 0.2-0.4 0.2-0.6 0.5-0.3 0.2-0.4 0.6-0.1 0.4-0.1 0.8 0.4 4.6 1.7 9.8 1 4.1 1 7c0.1 7.6 0.2 17.8 7.1 22.6q1.5 1 5.4 3 0.8 0.4 0 0.4c-5.1-0.1-10.3-0.8-13.2 1.4q-1.6 1.3-1.3 2.7 0.7 2.3 3.5 10.8 1.8 5.3 6.8 8.7 0.1 0.1 0.3 0.1 0.2 0.1 0.4 0.1 0.2-0.1 0.3-0.1 0.2-0.1 0.3-0.3 4.8-5.3 8.3-9.8 1.9-2.4 3.2-6.2 0.6-1.7 2.5-6.5 0.1 0 0.1-0.1h0.3q0.2-0.2 0.1 0.1-1.7 5.2-3.9 10-1.1 2.5-1.4 5.6 0 0.2 0.1 0.4 0.1 0.2 0.3 0.3 0.2 0.1 0.5 0.1 0.2 0 0.4-0.1 1.4-1.2 2.1-3.4 1.8-5.4 3.2-8.9 0.9-2.4 2.8-5.4 0-0.1 0.1-0.1 0 0 0.1 0 0 0.1 0 0.1 0 0.1 0 0.1z"/>
		<path id="Layer" fill-rule="evenodd" class="s0" d="m719 132.4q0-1-0.3-1.9-0.4-0.9-1.1-1.5-0.7-0.7-1.6-1.1-0.9-0.4-1.8-0.4-1 0-1.9 0.4-0.9 0.4-1.6 1.1-0.6 0.6-1 1.5-0.4 0.9-0.4 1.9 0 1 0.4 1.9 0.4 0.9 1 1.5 0.7 0.7 1.6 1.1 0.9 0.4 1.9 0.4 0.9 0 1.8-0.4 0.9-0.4 1.6-1.1 0.7-0.6 1.1-1.5 0.3-0.9 0.3-1.9z"/>
		<path id="Layer" fill-rule="evenodd" class="s0" d="m703.9 172.2q0-1.1-0.4-2-0.3-0.9-1.1-1.6-0.7-0.8-1.6-1.2-1-0.3-2-0.3-1 0-1.9 0.3-1 0.4-1.7 1.2-0.7 0.7-1.1 1.6-0.4 0.9-0.4 2 0 1 0.4 1.9 0.4 0.9 1.1 1.7 0.7 0.7 1.7 1.1 0.9 0.4 1.9 0.4 1 0 2-0.4 0.9-0.4 1.6-1.1 0.8-0.8 1.1-1.7 0.4-0.9 0.4-1.9z"/>
		<path id="Layer" fill-rule="evenodd" class="s0" d="m706.6 204.8q0.9 0 1.8-0.4 0.9-0.4 1.5-1.1 0.7-0.7 1.1-1.7 0.3-0.9 0.3-1.9 0-1-0.4-1.9-0.4-0.9-1.1-1.5-0.7-0.7-1.6-1.1-0.9-0.3-1.8-0.3-1 0-1.9 0.4-0.8 0.4-1.5 1.1-0.6 0.7-1 1.6-0.3 0.9-0.3 1.9 0 1 0.4 1.9 0.4 0.9 1.1 1.6 0.7 0.7 1.5 1 0.9 0.4 1.9 0.4z"/>
		<path id="Layer" fill-rule="evenodd" class="s0" d="m735.3 220.6q-0.1-1-0.4-1.9-0.4-0.9-1.1-1.6-0.7-0.7-1.6-1.1-0.9-0.3-1.9-0.3-1 0-1.9 0.3-0.9 0.4-1.6 1.1-0.7 0.7-1 1.6-0.4 0.9-0.4 1.9 0 1 0.4 1.9 0.3 0.9 1 1.6 0.7 0.7 1.6 1 0.9 0.4 1.9 0.4 1 0 1.9-0.4 0.9-0.3 1.6-1 0.7-0.7 1.1-1.6 0.3-0.9 0.4-1.9z"/>
		<path id="Layer" fill-rule="evenodd" class="s0" d="m623.8 221q0-0.9-0.3-1.7-0.3-0.8-1-1.5-0.6-0.6-1.4-0.9-0.9-0.4-1.7-0.4-0.9 0-1.8 0.4-0.8 0.3-1.4 0.9-0.7 0.7-1 1.5-0.3 0.8-0.3 1.7 0 0.9 0.3 1.7 0.3 0.9 1 1.5 0.6 0.6 1.4 1 0.9 0.3 1.8 0.3 0.8 0 1.7-0.3 0.8-0.4 1.4-1 0.7-0.6 1-1.5 0.3-0.8 0.3-1.7z"/>
		<path id="Layer" fill-rule="evenodd" class="s0" d="m679.8 222.7q0-1-0.4-1.9-0.4-0.9-1.1-1.6-0.6-0.7-1.6-1.1-0.9-0.3-1.8-0.3-1 0-1.9 0.3-0.9 0.4-1.6 1.1-0.7 0.7-1.1 1.6-0.4 0.9-0.4 1.9 0 1 0.4 1.9 0.4 0.9 1.1 1.6 0.7 0.7 1.6 1.1 0.9 0.3 1.9 0.3 0.9 0 1.8-0.3 1-0.4 1.6-1.1 0.7-0.7 1.1-1.6 0.4-0.9 0.4-1.9z"/>
		<path id="Layer" fill-rule="evenodd" class="s0" d="m601.5 228.4q0-0.9-0.3-1.7-0.4-0.8-1-1.4-0.6-0.6-1.4-1-0.9-0.3-1.7-0.3-0.9 0-1.7 0.3-0.8 0.4-1.5 1-0.6 0.6-0.9 1.4-0.4 0.8-0.4 1.7 0 0.9 0.4 1.7 0.3 0.8 0.9 1.5 0.7 0.6 1.5 0.9 0.8 0.4 1.7 0.4 0.8 0 1.7-0.4 0.8-0.3 1.4-0.9 0.6-0.7 1-1.5 0.3-0.8 0.3-1.7z"/>
		<path id="Layer" fill-rule="evenodd" class="s0" d="m873 231.5c-1.6-3.5-6.6-9.3-10.9-7.1q-0.4 0.3-0.7 0.6-0.3 0.3-0.4 0.7-0.2 0.4-0.2 0.9 0 0.4 0.1 0.8 1.3 3.7 4.1 7 1.2 1.5 5.8 6.5 0.2 0.3 0.4 0.3 0.3 0.1 0.6 0.1 0.3-0.1 0.5-0.3 0.2-0.2 0.3-0.5c0.8-3.1 1.7-6.2 0.4-9z"/>
		<path id="Layer" fill-rule="evenodd" class="s0" d="m723.5 461l-3.6 5.1q-0.8 1.2 0.6 0.8 3.9-1.1 7.6-2.8c3.2-1.4 4.2-3.1 4.8-6.4 0.3-1.8 1.6-3.2 3.1-5.1 1.6-2.1 1.6-4.6-0.7-6.3q-0.1-0.1-0.1-0.2-0.1 0-0.1-0.1-0.1-0.2-0.1-0.3 0-0.1-0.1-0.3v-0.3q0-0.2 0.1-0.3 0-0.2 0.1-0.3 0.2-0.1 0.3-0.1 0.2-0.1 0.3-0.1l16.1 1.4q2.5 0.2 0.6-1.6-5.1-4.6-11.8-6.4-0.2 0-0.4-0.2-0.1-0.1-0.2-0.3 0-0.2 0-0.4 0-0.2 0.1-0.4 1.4-1.8 2.2-2.8 54.4-76.1 105.1-154.2 10.4-16.1 21.1-34 0.6-1-0.2-1.7-5.2-4.1-9.2-9-1.1-1.3-1.9 0.2-7.2 12.8-15.5 25.3-17.9 27.1-18.6 27.9-5.5 7.7-11.9 17.7c-3.9 6.2-8.4 12-12.6 18.4q-4.8 7.3-9.4 14-27.7 40-36.4 52.4-17.8 25.4-36.2 50.5-3.9 5.3-28 36-0.8 1 0.4 1.2l3.9 0.7q1.3 0.3 2-0.8 10-15.1 30.4-44.9 29-42.8 69.6-99.1 5.2-7.3 39.6-55.7 12.1-17.1 18.4-25.8 0.1-0.1 0.2 0 0.1 0.1 0 0.2-3.5 5.7-17.9 27.3-2 3.1-7 10.5-45.5 66.8-88.3 126.8c-7.2 10.2-16.8 22.7-24 32.9q-0.1 0.2-10 13.5-6.1 8.3-10.2 15-0.1 0.1-0.1 0.3 0 0.1 0.1 0.3 0 0.1 0.1 0.2 0.2 0.1 0.3 0.1 4.6 1 8.7 3.7 0.4 0.3 0.7-0.1 5.5-6.9 15-20.1 1.2-1.7 2.7-2.6 0.1-0.1 0.2 0 0 0 0.1 0 0 0.1 0 0.1 0 0.1 0 0.2z"/>
		<path id="Layer" fill-rule="evenodd" class="s0" d="m670 242.6q0-0.9-0.4-1.8-0.3-0.8-1-1.5-0.6-0.7-1.5-1-0.9-0.4-1.8-0.4-0.9 0-1.8 0.4-0.8 0.3-1.5 1-0.7 0.7-1 1.5-0.4 0.9-0.4 1.8 0 0.9 0.4 1.8 0.3 0.9 1 1.5 0.7 0.7 1.5 1 0.9 0.4 1.8 0.4 0.9 0 1.8-0.4 0.9-0.3 1.5-1 0.7-0.6 1-1.5 0.4-0.9 0.4-1.8z"/>
		<path id="Layer" fill-rule="evenodd" class="s0" d="m653.5 256.8q-0.5-1.9-0.8-2.6c-1-3.3-4.7-5.6-7.9-3.4-4.1 3-3.1 6.1 0.6 8.8q0.4 0.3 0 0.7-0.3 0.2-2 0.6c-1.9 0.5-2.7 2-3.3 3.9q-1.9 5.8-3.1 10-0.6 2.5 0.4 4.3c1 1.9 2.5 2 4.1 0.5q1.1-1.1 3.9-3.3c1.7-1.3 3.1-3.4 4-4.7q0.1-0.2 0.3-0.2 0.2-0.1 0.4-0.1 0.1 0.1 0.3 0.2 0.1 0.1 0.2 0.3 0.4 1.3 1.7 2.5 0.3 0.4 0.8 0.1 0.7-0.5 0.9-1.3 0-0.3 0.2-0.5 0.2-0.2 0.5-0.3 0.2-0.1 0.5 0 0.3 0.1 0.4 0.3 0.6 0.6 3.8 4.1c1.7 1.8 7.4 5.9 10.2 4.7 2.4-1.1 2.8-4 1.6-6.3q-3.2-6.1-6.8-11.9c-1-1.6-2.1-2-3.8-2.1q-0.2 0-0.3-0.1-0.1 0-0.2-0.2-0.1-0.1 0-0.2 0-0.2 0.1-0.3 2.6-3.6-0.7-6.6c-1.6-1.5-4.6-1.9-5.2 1.2q-0.2 1.2-0.5 1.9-0.2 0.6-0.3 0z"/>
		<path id="Layer" fill-rule="evenodd" class="s0" d="m739.3 264.7q0-1-0.4-1.9-0.3-0.9-1-1.6-0.7-0.7-1.6-1.1-0.9-0.3-1.9-0.3-1 0-1.9 0.3-0.9 0.4-1.6 1.1-0.7 0.7-1.1 1.6-0.3 0.9-0.3 1.9 0 1 0.3 1.9 0.4 0.9 1.1 1.6 0.7 0.7 1.6 1.1 0.9 0.3 1.9 0.3 1 0 1.9-0.3 0.9-0.4 1.6-1.1 0.7-0.7 1-1.6 0.4-0.9 0.4-1.9z"/>
		<path id="Layer" fill-rule="evenodd" class="s0" d="m624 282.5q0-1-0.4-1.8-0.3-0.9-1-1.5-0.6-0.7-1.5-1-0.8-0.4-1.8-0.4-0.9 0-1.7 0.4-0.9 0.3-1.6 1-0.6 0.6-1 1.5-0.3 0.8-0.3 1.8 0 0.9 0.3 1.7 0.4 0.9 1 1.6 0.7 0.6 1.6 1 0.8 0.3 1.7 0.3 1 0 1.8-0.3 0.9-0.4 1.5-1 0.7-0.7 1-1.6 0.4-0.8 0.4-1.7z"/>
		<path id="Layer" fill-rule="evenodd" class="s0" d="m740.4 286.9q0-1.3-0.5-2.4-0.4-1.2-1.3-2-0.9-0.9-2-1.4-1.2-0.5-2.4-0.5-1.3 0-2.4 0.5-1.2 0.5-2 1.4-0.9 0.8-1.4 2-0.5 1.1-0.5 2.4 0 1.2 0.5 2.4 0.5 1.1 1.4 2 0.8 0.9 2 1.4 1.1 0.4 2.4 0.4 1.2 0 2.4-0.4 1.1-0.5 2-1.4 0.9-0.9 1.3-2 0.5-1.2 0.5-2.4z"/>
		<path id="Layer" fill-rule="evenodd" class="s0" d="m509.9 344.7q1.4 1 7.3 6.4 8.7 7.8 39.2 34 14.3 12.3 23.9 19.8 15.1 11.8 37.1 22.5 9.8 4.8 20.2 9.1 30.8 12.6 38.9 16.1 11.4 4.8 20.5 9.7 0.3 0.1 0.6 0.2 0.3 0 0.6 0 0.2-0.1 0.5-0.2 0.2-0.2 0.4-0.4 1.5-1.7 4-4.8 2.6-3.3 3.7-4.8 6.3-9 14.7-20.6 0.7-0.9-0.4-0.6-6.2 1.6-13.4 4.7c-2.4 1-6.3 2.3-8.7 2.2q-4.1-0.1-9.5-1.7-6.7-1.9-17.2-6.5-13.6-6-33-15.6-12.3-6.1-23.8-13-7.9-4.8-14.7-11.2-7.5-7-17.3-17.6-21.3-23.3-63.9-71.7-2.7-3-5.4-5.7c-5.3-5.3-7.9-8.3-13.4-11-8.2-3.9-18.3 0-22.8 7.5-3.8 6.2-4.4 13-3.1 20.2q3.7 19.8 17.3 35.2c1.7 1.9 5.7 5.1 8.3 4.6q4.3-0.8 7.9-3.8 1.4-1.1 0.5-3.4-0.2-0.5 1 0.4z"/>
		<path id="Layer" fill-rule="evenodd" class="s0" d="m564 297.9q1.1 0.4 2.3 0.3 1.3-0.1 2.4-0.6 1.1-0.6 2-1.5 0.8-1 1.2-2.2 0.5-1.2 0.4-2.5 0-1.2-0.5-2.4-0.5-1.1-1.4-2-0.9-0.8-2.1-1.2-1.1-0.4-2.3-0.4-1.3 0.1-2.4 0.6-1.1 0.6-2 1.6-0.8 0.9-1.2 2.1-0.5 1.2-0.4 2.5 0 1.2 0.5 2.4 0.5 1.1 1.4 2 0.9 0.8 2.1 1.3z"/>
		<path id="Layer" fill-rule="evenodd" class="s0" d="m607.1 294.8q0-0.9-0.3-1.7-0.4-0.8-1-1.4-0.6-0.7-1.5-1-0.8-0.4-1.7-0.4-0.9 0-1.7 0.4-0.8 0.3-1.4 1-0.7 0.6-1 1.4-0.4 0.8-0.4 1.7 0 0.9 0.4 1.7 0.3 0.9 1 1.5 0.6 0.6 1.4 1 0.8 0.3 1.7 0.3 0.9 0 1.7-0.3 0.9-0.4 1.5-1 0.6-0.6 1-1.5 0.3-0.8 0.3-1.7z"/>
		<path id="Layer" fill-rule="evenodd" class="s0" d="m524.5 299.8q-1.5-0.3-0.4 0.8 2 2 3.4 3.7 12 14.1 20.9 24.3 0.1 0.1 0.2 0.2 0.1 0 0.3 0 0.1-0.1 0.2-0.2 0.1-0.1 0.1-0.2 0-0.3 0.5-7.1 0.3-4.7-0.5-7-1.7-4.5-5.4-6.9-8.6-5.5-19.3-7.6z"/>
		<path id="Layer" fill-rule="evenodd" class="s0" d="m724.7 305.9q0-1-0.4-1.9-0.3-0.9-1-1.5-0.7-0.7-1.6-1.1-0.9-0.4-1.8-0.4-1 0-1.9 0.4-0.9 0.4-1.6 1.1-0.6 0.6-1 1.5-0.4 0.9-0.4 1.9 0 0.9 0.4 1.8 0.4 0.9 1 1.6 0.7 0.7 1.6 1.1 0.9 0.3 1.9 0.3 0.9 0 1.8-0.3 0.9-0.4 1.6-1.1 0.7-0.7 1-1.6 0.4-0.9 0.4-1.8z"/>
		<path id="Layer" fill-rule="evenodd" class="s0" d="m605.5 308.6q0-1.2-0.5-2.3-0.4-1.2-1.3-2-0.9-0.9-2-1.4-1.1-0.4-2.4-0.5-1.2 0.1-2.3 0.5-1.1 0.5-2 1.4-0.9 0.8-1.4 2-0.4 1.1-0.4 2.3 0 1.2 0.4 2.4 0.5 1.1 1.4 2 0.9 0.8 2 1.3 1.1 0.5 2.3 0.5 1.3 0 2.4-0.5 1.1-0.5 2-1.3 0.9-0.9 1.3-2 0.5-1.2 0.5-2.4z"/>
		<path id="Layer" fill-rule="evenodd" class="s0" d="m584 306.9q0-0.8-0.3-1.6-0.4-0.8-1-1.5-0.6-0.6-1.4-0.9-0.8-0.3-1.7-0.3-0.8 0-1.6 0.3-0.8 0.3-1.5 0.9-0.6 0.7-0.9 1.5-0.3 0.8-0.3 1.6 0 0.9 0.3 1.7 0.3 0.8 0.9 1.4 0.7 0.6 1.5 1 0.8 0.3 1.6 0.3 0.9 0 1.7-0.3 0.8-0.4 1.4-1 0.6-0.6 1-1.4 0.3-0.8 0.3-1.7z"/>
		<path id="Layer" fill-rule="evenodd" class="s0" d="m742.5 309.7q0-0.9-0.4-1.8-0.4-0.9-1-1.5-0.7-0.7-1.6-1.1-0.9-0.3-1.8-0.3-0.9 0-1.8 0.3-0.9 0.4-1.6 1.1-0.6 0.6-1 1.5-0.4 0.9-0.4 1.8 0 1 0.4 1.9 0.4 0.8 1 1.5 0.7 0.7 1.6 1 0.9 0.4 1.8 0.4 0.9 0 1.8-0.4 0.9-0.3 1.6-1 0.6-0.7 1-1.5 0.4-0.9 0.4-1.9z"/>
		<path id="Layer" fill-rule="evenodd" class="s0" d="m733.3 328.7q0-1.3-0.5-2.5-0.5-1.1-1.4-2.1-0.9-0.9-2.1-1.4-1.2-0.5-2.5-0.5-1.2 0-2.4 0.5-1.2 0.5-2.1 1.4-1 1-1.4 2.1-0.5 1.2-0.5 2.5 0 1.3 0.5 2.5 0.4 1.2 1.4 2.1 0.9 0.9 2.1 1.4 1.2 0.5 2.4 0.5 1.3 0 2.5-0.5 1.2-0.5 2.1-1.4 0.9-0.9 1.4-2.1 0.5-1.2 0.5-2.5z"/>
		<path id="Layer" fill-rule="evenodd" class="s0" d="m691.5 359.6q0-1-0.3-1.8-0.4-0.9-1.1-1.6-0.6-0.6-1.5-1-0.9-0.3-1.8-0.3-1 0-1.8 0.3-0.9 0.4-1.6 1-0.6 0.7-1 1.6-0.3 0.8-0.3 1.8 0 0.9 0.3 1.8 0.4 0.9 1 1.5 0.7 0.7 1.6 1.1 0.8 0.3 1.8 0.3 0.9 0 1.8-0.3 0.9-0.4 1.5-1.1 0.7-0.6 1.1-1.5 0.3-0.9 0.3-1.8z"/>
		<path id="Layer" fill-rule="evenodd" class="s0" d="m658.7 373.7q0-0.8-0.3-1.5-0.3-0.8-0.9-1.3-0.6-0.6-1.3-0.9-0.8-0.3-1.6-0.3-0.8 0-1.5 0.3-0.7 0.3-1.3 0.9-0.6 0.5-0.9 1.3-0.3 0.7-0.3 1.5 0 0.8 0.3 1.6 0.3 0.7 0.9 1.3 0.6 0.5 1.3 0.8 0.7 0.3 1.5 0.4 0.8-0.1 1.6-0.4 0.7-0.3 1.3-0.8 0.6-0.6 0.9-1.3 0.3-0.8 0.3-1.6z"/>
		<path id="Layer" fill-rule="evenodd" class="s0" d="m648.9 393.9q-0.1-0.8-0.4-1.6-0.3-0.7-0.8-1.3-0.6-0.6-1.4-0.9-0.7-0.3-1.5-0.3-0.8 0-1.6 0.3-0.7 0.3-1.3 0.9-0.6 0.6-0.9 1.3-0.3 0.8-0.3 1.6 0 0.8 0.3 1.5 0.3 0.8 0.9 1.4 0.6 0.5 1.3 0.8 0.8 0.3 1.6 0.3 0.8 0 1.5-0.3 0.8-0.3 1.4-0.8 0.5-0.6 0.8-1.4 0.3-0.7 0.4-1.5z"/>
		<path id="Layer" fill-rule="evenodd" class="s0" d="m579.9 640.5q6.8-8.2 22.8-26.8 31.7-36.6 70.4-87.4 1.9-2.5 6.7-10.2 0.1-0.2 0.2-0.3 0.2 0 0.4 0 0.2 0 0.4 0.1 0.1 0.1 0.2 0.3 1.5 3.4 0.9 7.1-0.1 0.9-1.6 7.6-0.1 0.1 0 0.2 0 0.2 0.1 0.2 0.1 0.1 0.2 0.1 0.1 0.1 0.2 0c3.7-1.5 6.4-3.7 9.4-7.5q2.5-3.3 6.3-5.9 0.6-0.3 2.6-3.6c1.3-2 3.7-2.4 4.2-4.8 0.8-3.4-1.2-9.4-2.4-12.8q-0.5-1.2 0.6-1.7 2.7-1.3 2.2-3.7-0.8-4.9-6.3-7.4-2.7-1.2-11-4.8c-4-1.8-6.4-3.6-9.7-6.7q-6.8-6.2-21.9-25.1-1.4-1.7-3.7-2.8-35.4-16.1-52.1-24.7c-6.3-3.2-11.6-6.5-17.9-10.6q-1.1-0.7-0.4 0.8 0 0.2 0.8 1 18.8 19.5 35.9 34.7 4.2 3.8 29.5 25.6 3.6 3.1 6.9 6.1 4.8 4.6 6.4 6.4 5.8 6.7 9.3 14 0.1 0.2 0.1 0.5 0.1 0.3 0.1 0.6-0.1 0.2-0.2 0.5-0.1 0.3-0.3 0.5-26.7 33.6-36.3 45.8-6 7.6-12.6 15.6-11.1 13.3-22.6 27.7-4.8 6-12.8 15.4-9.7 11.4-14.9 18.4-1.5 2.1-4 4.9c-3.4 3.9-7.1 8.8-9.9 12.2q-33.1 39.4-60.5 70.9-17.1 19.6-28 33-0.2 0.2-0.3 0.4-0.1 0.2-0.1 0.5 0 0.2 0.1 0.5 0.1 0.2 0.2 0.4 3.9 5.5 6 12.7 0 0.3 0.2 0.5 0.2 0.2 0.5 0.3 0.3 0.1 0.6 0 0.2 0 0.4-0.2 2.9-2.5 5.4-5.4 16.3-18.8 35.1-39.9 0.1-0.1 0.2 0 0.1 0.1 0 0.2-20.4 25.5-41.1 49.6-0.2 0.2-0.3 0.5-0.1 0.2-0.2 0.4 0 0.3-0.1 0.5 0 0.2 0.1 0.5c1.3 9 1.9 16.5-2.1 24.8q-4.2 8.4-11.7 16.3-1.3 1.4-1.3 2.3-0.5 10.2-2.2 22.4-4.5 33-7 53.1-2.1 17.3-4.2 25.6-1.4 5.8-4.1 11-5.8 11.4-6 11.8c-2 4.5-1.2 9.4 0.3 14q7.4 22.5 9.4 43.8 0.1 0.2 0.2 0.5 0.1 0.2 0.3 0.3 0.2 0.1 0.5 0.2 0.2 0 0.5 0l0.4-0.1q0.1 0 0.2-0.1 0.1-0.1 0.2-0.2 0.1-0.1 0.1-0.2 0.1-0.1 0.1-0.2 0.5-19.9 2.5-37.1 0-0.2 0.2-0.4 0.1-0.2 0.2-0.3 0.2-0.1 0.4-0.1 0.2 0 0.4 0.1 5.3 2.4 8.8 7.5 5.8 8.5 8.8 18.2 2.2 7.1 2.4 7.9 0.8 3.5 2.6 4.6c4.4 2.9 9 3.3 13.8 3.2q9.9-0.3 18.3-2 10.9-2.2 12.9-2.9 0.1 0 0.2-0.1 0-0.1 0-0.2 0-0.2 0-0.3-0.1-0.1-0.2-0.1-3.5-1.3-13.4-4.5-9.3-3-12.8-8.6-1.9-3-5.8-13.2c-7.7-20-17-41.4-14.3-62.4 2.3-18.4 6.7-35.9 11.9-54.5q10.2-36.3 22.2-75 4.1-13.3 8.3-21.8 1.8-3.7 5.3-8.2 4.5-5.8 5.8-7.9 13.3-22 17.2-47.3c0.2-1.3 0.8-2.9 1.6-3.8q10.9-12.6 17.1-19.7 2.1-2.5 4.8-4.7 0.1-0.1 0.3-0.1 0.2-0.1 0.3 0 0.2 0 0.3 0.1 0.2 0.1 0.2 0.2 1.2 2 1.3 4.5 0.5 7.7 1 11.4 3.9 28.7 22.8 49.1 16.7 18.1 39.5 28.4 2 0.9 11.5 4.8 1.6 0.6 3.3 0.9 1.6 0.2 0.4-0.9-1.3-1.4-7.1-7-10.9-10.7-18.8-25.3c-13.4-24.7-18.1-54.3-19.1-82.7q-0.5-13.5 1.3-25.8 0.2-1.1-0.6-0.3-9 9.2-17.6 19.7-0.2 0.3-6.1 6.5 0 0 0 0 0 0-0.1 0 0 0 0-0.1 0 0 0 0z"/>
		<path id="Layer" fill-rule="evenodd" class="s0" d="m546.6 549.6q-0.6 7.4-2.9 16.4-12.3 49.7-46.9 89.4 0 0-0.1 0 0 0.1 0.1 0.1 0 0 0 0 0 0 0 0l1.5 0.4q0.5 0.2 0.6 0.8 0.1 2.3-0.1 6-1 23.1-5.1 45.9-0.2 1.2 0.7 0.5c2.2-1.7 3.5-4.1 5.5-6.4q13-15.3 23.7-27.3 6-6.6 43.6-50.2c3.3-3.8 7.1-9.6 10.9-13.8q8.5-9.8 25-29.9c2.3-2.8 1.8-4.4 1.8-7.7q-0.5-31.1-5.2-61.8-4.1-26.1-12.9-51.7-4.5-12.9-11.5-23.1-2.3-3.2-2.1 0.7 0.5 13.3 2.2 26.9 0.1 1.3-0.5 0.2-10-17.8-29.7-24.1-15.1-4.9-30.2-0.4-0.3 0.1-0.5 0.2-0.2 0.1-0.3 0.3-0.2 0.1-0.4 0.3-0.1 0.1-0.3 0.3c-1.3 2.1-2.4 4.4-3.9 6.4q-10 13.4-21.9 24.1-10.8 9.6-20.4 16.9-19 14.2-38.6 27.5-23.3 15.8-44.4 24.3-21.3 8.7-43.8 12.1c-10.8 1.6-21.1 1.2-31.9 0.7q-8.8-0.4-19.8 0.5-14 1.2-25.2 6.5-8.6 4-13.3 11-6 9-6.2 20.4 0 0.1 0.1 0.1 0-0.1 0.1-0.1 0-0.1 0.1-0.1 0-0.1 0-0.1 0.1-0.1 0.1-0.1 0 0 0 0c4-16.8 18.2-24.2 34.5-23.2q8.8 0.6 15.8 2.7 23.3 6.8 28.6 8.2 43.2 10.9 82.1-9.9 21.8-11.7 43-29.5 36.1-30.6 64.8-65.4 0.2-0.2 0.3-0.1 0.2 0.2 0.1 0.3-22.3 31.4-49.7 58.2c-22 21.6-47.9 40.7-76.6 52.4q-22.5 9.2-45.8 11.4-1.2 0.2-18.1 0.7-32 1.1-59.6 13.4c-21.5 9.5-38.6 25.4-43.4 49q-0.3 1.6 0.5 0.2 6.6-11.4 17.2-19.4 8.3-6.2 17.1-10.2 22.1-9.9 47.2-5.8 15.7 2.5 29.5 7.8 8.8 3.4 9.3 3.6 13.6 4.5 25.7 6c38.8 4.6 73.8-17.7 100.9-43.4q22.6-21.4 42.3-46.7 7.8-10.2 12-16 14-19.9 22.6-41.8 0-0.1 0-0.1 0 0 0.1 0.1 0 0 0 0.1-2.9 9.9-7.3 20.1-24.2 56.3-68.1 98.6c-8.1 7.8-20.1 16.6-27.9 23.8q-29.1 27.2-48.1 54.9-8.1 11.8-14 26.1-3.3 7.9-4.8 15.5-2 10.3-1.8 16.2 0.1 0.7 0.2 1 0.2 1 0.5-0.1 3.8-11.6 10.7-20.9c14.4-19.1 36.1-31.9 56.9-41.6q9.9-4.6 15.5-8.1c21.1-13.1 37.3-30 52-50.6q20.4-28.6 32.4-60.1 3-7.8 5.4-19.5 0.2-0.6 0.1 0z"/>
		<path id="Layer" fill-rule="evenodd" class="s0" d="m295.3 653.4q0-1.3-0.5-2.4-0.4-1.1-1.3-2-0.9-0.9-2-1.3-1.1-0.5-2.3-0.5-1.3 0-2.4 0.5-1.1 0.4-2 1.3-0.9 0.9-1.3 2-0.5 1.1-0.5 2.4 0 1.2 0.5 2.3 0.4 1.1 1.3 2 0.9 0.9 2 1.3 1.1 0.5 2.4 0.5 1.2 0 2.3-0.5 1.1-0.4 2-1.3 0.9-0.9 1.3-2 0.5-1.1 0.5-2.3z"/>
		<path id="Layer" fill-rule="evenodd" class="s0" d="m252.5 667.6q0-1.1-0.4-2.2-0.5-1.1-1.3-1.9-0.8-0.8-1.9-1.3-1.1-0.4-2.3-0.4-1.1 0-2.2 0.4-1.1 0.5-1.9 1.3-0.8 0.8-1.3 1.9-0.4 1.1-0.4 2.2 0 1.2 0.4 2.3 0.5 1.1 1.3 1.9 0.8 0.8 1.9 1.3 1.1 0.4 2.2 0.4 1.2 0 2.3-0.4 1.1-0.5 1.9-1.3 0.8-0.8 1.3-1.9 0.4-1.1 0.4-2.3z"/>
		<path id="Layer" fill-rule="evenodd" class="s0" d="m276.5 681.3q0-0.9-0.3-1.7-0.3-0.7-1-1.4-0.6-0.6-1.4-0.9-0.8-0.3-1.6-0.3-0.9 0-1.7 0.3-0.8 0.3-1.4 0.9-0.6 0.7-0.9 1.4-0.3 0.8-0.3 1.7 0 0.9 0.3 1.7 0.3 0.7 0.9 1.4 0.6 0.6 1.4 0.9 0.8 0.3 1.7 0.3 0.8 0 1.6-0.3 0.8-0.3 1.4-0.9 0.7-0.7 1-1.4 0.3-0.8 0.3-1.7z"/>
		<path id="Layer" fill-rule="evenodd" class="s0" d="m254.6 723.6q-2 0.8-3.2 2-0.1 0.1-0.2 0.2 0 0.1-0.1 0.3 0 0.1 0 0.2 0 0.1 0 0.2 0.6 3.3 3.6 4.9 0.3 0.2 0.7 0.2 0.4 0.1 0.8 0 0.4-0.1 0.7-0.3 0.3-0.3 0.6-0.6 2.3-3.4 2.7-7.5 0-0.3 0.3-0.4 0.6-0.2 0.6 0.3c0.6 4 0.5 7.3 2.5 9.2q0.3 0.4 0.8 0.3 4.3-0.3 5.7-4.5 0-0.2 0-0.3 0-0.2 0-0.4-0.1-0.2-0.2-0.3-0.2-0.2-0.3-0.3-1.5-0.8-1.7-1-2.5-1.8 0.5-1.2c1.7 0.3 3.5-0.3 4.9-1.7q7.7-8.3 9.6-11.3 1.4-2.2 1.2-3-0.7-2.6-2.6-2.8c-4.8-0.4-9 0.8-12.9 4.1q-1.3 1.2-5.8 4.6-0.1 0-0.2 0 0 0-0.1 0-0.1 0-0.1-0.1-0.1 0-0.1-0.1-1.3-3.5-3.6-6.4 0 0-0.1 0-0.2-0.1-0.3 0.1 0 0.1 0 0.2 1.6 3.3 2.1 4.6 0.5 1.5-0.7 0.4-1.6-1.4-2.6-2.9-1.4-2.1-6.2-5.7-4.3-3.3-8.6-2.3-0.4 0.1-0.8 0.4-0.4 0.2-0.6 0.6-0.3 0.4-0.4 0.8-0.1 0.5-0.1 0.9 0.3 2.5 2 5.5 2.5 4.2 5.4 9.1 1.9 3 6.4 3.4 0.1 0 0.3 0.2l0.2 0.3q0.1 0.1-0.1 0.1z"/>
		<path id="Layer" fill-rule="evenodd" class="s0" d="m265.2 710.5q-0.3 0.2-1.2 1.5-0.1 0.1-0.1 0.2 0.1 0 0.1 0.1 0.1 0.1 0.4-0.1 0.3-0.2 1.2-1.3 1-1.1 1.1-1.5 0.1-0.3 0-0.3-0.1-0.1-0.1-0.1-0.1 0-0.2 0.1-1 1.1-1.2 1.4z"/>
		<path id="Layer" fill-rule="evenodd" class="s0" d="m247.5 748q0-1-0.3-2-0.4-0.9-1.1-1.6-0.8-0.7-1.7-1.1-0.9-0.4-1.9-0.4-1 0-2 0.4-0.9 0.4-1.6 1.1-0.7 0.7-1.1 1.6-0.4 1-0.4 2 0 1 0.4 1.9 0.4 0.9 1.1 1.6 0.7 0.8 1.6 1.1 1 0.4 2 0.4 1 0 1.9-0.4 0.9-0.3 1.7-1.1 0.7-0.7 1.1-1.6 0.3-0.9 0.3-1.9z"/>
		<path id="Layer" fill-rule="evenodd" class="s0" d="m382 863.6q-7.4 6.1-17.7 17.2-10.7 11.5-19.6 23.1c-12.7 16.6-20.2 33.4-19.3 53.4q0.9 20.5 9.8 39.9 0.3 0.5 0.4-0.1c4-26.7 14.8-51.6 28.3-75.2q11.7-20.3 15.4-26.3 9.8-15.4 19.9-32.2 0-0.1 0.1-0.1h0.2q0.3 0 0.1 0.2-3 6.6-6.3 13.1-6.3 12.7-11.9 25.7-3.3 7.8-5.1 13.8-3 9.6-4 14.3-4.1 20.4-0.5 42 0.4 2.4 0.5 0 0.7-13.6 3.8-26.6 6.8-28.5 21.8-53.1c2.4-3.8 6.1-9.4 9.1-13.4 4-5.3 6.9-11.5 9.6-17.9q8.4-19.7 14.5-40.1 0-0.2 0.2-0.1 0 0 0 0 0.1 0 0.1 0 0 0.1 0 0.1 0 0 0 0.1-5.1 20.5-12.3 40.4-5.2 14.2-5.8 16.1c-4.7 13.3-7.8 21.2-9.9 31.1q-3.8 17.9 1 36 0.5 1.8 0.5 0 0.6-12.3 0.8-15.7 1-13 4.9-24.4 1.6-4.4 5.4-11.9 4.6-9 5.9-11.5 4.2-8 7.7-20.3c1.3-4.2 3.4-11.9 4.6-18q1.4-7.4 3.7-15.8 0.7-2.6 2.7-4.3 6.1-4.6 11.2-8.9 4.4-3.7 7.2-7.1 4.8-5.6 6.4-7.7 3.3-4.2 6.4-11c4.1-8.9 4.2-19.9-3.3-27-8.3-7.8-19-12.1-30.3-10q-0.3 0.1-0.5 0.2-0.2 0.2-0.3 0.4-0.2 0.3-0.2 0.5 0 0.3 0.2 0.6c1.6 3.1 6.1 7 8.4 8.8q10 7.7 15 12.5c2.9 2.7 6.6 8 6.4 12.7q0 1.2-0.7 0.2c-1.5-2.3-2.9-4.1-4.9-5.8q-6.1-5.5-16.3-13.7-6.5-5.1-10.6-12.2-0.1-0.1-0.2-0.1 0-0.1-0.1-0.1-0.2 0-0.3 0-0.1 0-0.2 0.1-4.4 3-7.8 7.3-0.5 0.7-1.6 1.5c-1.7 1.3-3.2 3-1.6 5.2 3.6 5 7.5 10.6 10.2 15.4q4.5 8.1 7 12 2.6 4 9.5 10.6 0.2 0.2 0 0.3l-0.3 0.2q0 0 0-0.1-4.7-4.1-12.4-12.2-11-11.4-15.4-26.5 0-0.3-0.2-0.5-0.2-0.1-0.5-0.2-0.2-0.1-0.5 0-0.3 0.1-0.4 0.3-1.7 1.7-3.5 4.1-1.1 1.4-0.9 4.5 1.6 28.4 27.7 40 1.7 0.8-0.2 0.7c-2.7-0.2-5.4-1.4-8.4-2.7q-14.1-6.5-22.4-18-0.3-0.4-0.8-0.2-29.5 11.7-72.5 32.9-36.5 18-67.8 35-22.2 12-41.7 25-0.2 0.1-0.3 0.3 0 0.2 0.1 0.4 0 0 0.1 0.1 0 0 0.1 0 0 0 0.1 0 0 0 0.1 0 31.9-10.9 63.5-25 18-8.1 36.1-16.8 0 0 0 0 0.1 0.1 0.2 0.1 0 0 0.1 0.1 0.2 0 0.3 0.1l0.3 0.1q0 0.1-0.2 0.2-13.1 9.1-24.7 18.2-11.2 8.8-23.9 20.9-14.1 13.1-25.2 26.7-0.1 0 0 0.1 0.5 0.7 0 0 0 0 0 0 38-29.2 76-55.2 28.4-19.6 63-40.1 3-1.8 5.4-2.9 1.6-0.7 0.2 0.3-43.6 31.3-82 63.5-18.3 15.3-31.8 31.2c-9.2 10.7-17.2 23.3-21.5 36.9q-2.5 7.9-4.4 18.6-0.4 2.1 0.6 0.2 5.5-10.8 13.4-20.9 22.3-28.4 51.6-50.1 0.2-0.2 0.3 0l0.2 0.3q0 0.2-0.1 0.2-15.8 15.4-26.3 32.6-7.4 12-10.1 26.4-1.7 8.7-2.1 15.5 0 0.9 0.5 0.1c0.9-1.5 1.3-3.1 2.1-5q8.5-18.5 24.6-39.7 14-18.4 28.5-33 17.3-17.4 37.4-31.5 6.6-4.6 0.4 0.6z"/>
		<path id="Layer" fill-rule="evenodd" class="s0" d="m295.6 768.6q0-0.9-0.4-1.8-0.3-0.8-1-1.5-0.6-0.6-1.5-1-0.8-0.3-1.8-0.3-0.9 0-1.7 0.3-0.9 0.4-1.5 1-0.7 0.7-1 1.5-0.4 0.9-0.4 1.8 0 0.9 0.4 1.8 0.3 0.8 1 1.5 0.6 0.6 1.5 1 0.8 0.3 1.7 0.3 1 0 1.8-0.3 0.9-0.4 1.5-1 0.7-0.7 1-1.5 0.4-0.9 0.4-1.8z"/>
		<path id="Layer" fill-rule="evenodd" class="s0" d="m310.2 777.4q0-1.1-0.5-2.2-0.4-1.1-1.3-2-0.8-0.8-1.9-1.2-1.1-0.5-2.3-0.5-1.1 0-2.2 0.5-1.1 0.4-2 1.2-0.8 0.9-1.2 2-0.5 1.1-0.5 2.2 0 1.2 0.5 2.3 0.4 1.1 1.2 1.9 0.9 0.9 2 1.3 1.1 0.5 2.2 0.5 1.2 0 2.3-0.5 1.1-0.4 1.9-1.3 0.9-0.8 1.3-1.9 0.5-1.1 0.5-2.3z"/>
		<path id="Layer" fill-rule="evenodd" class="s0" d="m241.2 784.5q-0.7-2.1-1.8-3.6-0.3-0.3-0.6-0.5-0.3-0.2-0.6-0.3-0.4-0.1-0.8-0.1-0.3 0-0.7 0-2.9 0.8-3.9 3.5c-0.7 2 0.2 3.1 1.9 4.2q1.1 0.8-0.2 1.2c-2.1 0.6-3.5 1.1-4.5 3.3-2.9 5.9-5.7 10.7-6 15.2q-0.1 0.5 0.2 1 2.3 3.2 5.9 0.9 5.6-3.6 11-9.7 0.1-0.1 0.2-0.1 0.2-0.1 0.3 0 0.2 0 0.3 0.2 0 0.1 0.1 0.2 0.2 2.7-1.5 4.8 0 0 0 0.1 0 0 0 0 0.1 0.1 0.1 0.1 0 0 0.1 0l2.4-2.4q0.3-0.3 0.3-0.9l0.2-1.6q0.1-0.6 0.6-0.2 5.9 4.3 8.3 6.5 2.2 2 5.1 2.7 0.1 0 0.2 0 0.1 0 0.2 0 0.1-0.1 0.3-0.1 0.1 0 0.2-0.1 2.5-1.5 1.1-5.2-2.3-6.9-4.6-11.7c-1.1-2.4-2.6-3.3-4.9-3.8q-1.9-0.4-0.2-1.2c1.2-0.6 2.6-1.4 3-2.7 0.7-2.4-0.4-4.7-2.7-5.7q-4.7-2.1-7.6 2.3c-0.7 1.1-0.8 2.7-1 3.7q-0.2 0.8-0.4 0z"/>
		<path id="Layer" fill-rule="evenodd" class="s0" d="m272.1 790.4q0.9-0.4 1.5-1.1 0.6-0.7 1-1.6 0.3-0.9 0.2-1.9 0-0.9-0.4-1.8-0.4-0.9-1.1-1.6-0.7-0.7-1.6-1-0.9-0.4-1.8-0.4-1 0.1-1.8 0.4-0.9 0.4-1.5 1.1-0.7 0.7-1 1.6-0.3 0.9-0.2 1.9 0 1 0.4 1.9 0.4 0.8 1.1 1.5 0.7 0.7 1.6 1.1 0.9 0.3 1.8 0.3 1 0 1.8-0.4z"/>
		<path id="Layer" fill-rule="evenodd" class="s0" d="m322.5 827c-2.1 1.2-4.9 2.1-7.2 3.5q-0.3 0.2-10.7 6.4-2.9 1.7-9.9 4.7-4.2 1.8-10.3 3.8-14.8 4.6-34.2 10.1-1.4 0.4-0.2 1.1 0.2 0.1 0.9 0 0.8-0.1 0.9 0 21.7 1.2 41.6-8.2 11.3-5.4 20.4-10.1 12.3-6.5 17.8-9.1 38.6-18.1 79.5-33.4 0.2-0.1 0.1-0.3l-2.6-5.6q0 0 0-0.1-0.1 0-0.1 0-0.1-0.1-0.1 0-0.1 0-0.1 0-5.7 2.8-10.2 4.1-27.1 7.6-51.1 16.9-13 5.1-18.8 6.8-12.3 3.5-29.7 7.5-2.4 0.5-7.5 1-3.3 0.3-7.7 0.9-0.5 0.1-0.4 0.6v0.3q0 0.1 0.1 0.1 0 0.1 0 0.2 0.1 0 0.2 0 0 0.1 0.1 0.1 15.7 0.4 25.5-0.8 12.8-1.5 13.3-1.6 2.7-0.3 0.4 1.1z"/>
		<path id="Layer" fill-rule="evenodd" class="s0" d="m245.1 818.3q0.9 0 1.8-0.3 1-0.3 1.7-0.9 0.7-0.7 1.2-1.6 0.4-0.9 0.5-1.9 0.1-1-0.2-1.9-0.2-1-0.9-1.8-0.6-0.7-1.4-1.2-0.9-0.5-1.8-0.5-1-0.1-1.9 0.2-0.9 0.3-1.7 0.9-0.7 0.7-1.2 1.6-0.4 0.9-0.5 1.9-0.1 1 0.2 1.9 0.3 1 0.9 1.8 0.6 0.7 1.4 1.2 0.9 0.5 1.9 0.6z"/>
		<path id="Layer" fill-rule="evenodd" class="s0" d="m302.4 816.6q0-0.7-0.3-1.3-0.3-0.6-0.8-1.1-0.4-0.5-1.1-0.8-0.6-0.2-1.3-0.2-0.7 0-1.3 0.2-0.6 0.3-1.1 0.8-0.5 0.5-0.8 1.1-0.2 0.6-0.2 1.3 0 0.7 0.2 1.3 0.3 0.7 0.8 1.1 0.5 0.5 1.1 0.8 0.6 0.3 1.3 0.3 0.7 0 1.3-0.3 0.7-0.3 1.1-0.8 0.5-0.4 0.8-1.1 0.3-0.6 0.3-1.3z"/>
		<path id="Layer" fill-rule="evenodd" class="s0" d="m282.4 831.9q0-1-0.4-1.9-0.4-0.9-1.1-1.6-0.7-0.8-1.6-1.1-0.9-0.4-1.9-0.4-1.1 0-2 0.4-0.9 0.3-1.6 1.1-0.7 0.7-1.1 1.6-0.4 0.9-0.4 1.9 0 1 0.4 1.9 0.4 1 1.1 1.7 0.7 0.7 1.6 1.1 0.9 0.3 2 0.3 1 0 1.9-0.3 0.9-0.4 1.6-1.1 0.7-0.7 1.1-1.7 0.4-0.9 0.4-1.9z"/>
		<path id="Layer" fill-rule="evenodd" class="s0" d="m294.4 836.3c2.6 5.3 9.2 0.7 6.5-3.8q-0.3-0.5-0.8-0.5c-1.3-0.3-4.5-0.5-5.4 1q-1.1 1.6-0.2 3.3z"/>
		<path id="Layer" fill-rule="evenodd" class="s0" d="m414 961.6q0-0.8-0.3-1.5-0.2-0.7-0.8-1.2-0.5-0.5-1.2-0.8-0.7-0.3-1.4-0.3-0.8 0-1.5 0.3-0.7 0.3-1.2 0.8-0.6 0.5-0.8 1.2-0.3 0.7-0.3 1.5 0 0.7 0.3 1.4 0.2 0.7 0.8 1.2 0.5 0.6 1.2 0.9 0.7 0.2 1.5 0.2 0.7 0 1.4-0.2 0.7-0.3 1.2-0.9 0.6-0.5 0.8-1.2 0.3-0.7 0.3-1.4z"/>
		<path id="Layer" fill-rule="evenodd" class="s0" d="m362.2 960.6q-0.8-1-2-1.6-1.1-0.6-2.4-0.8-1.3-0.1-2.6 0.3-1.2 0.4-2.3 1.2-1 0.9-1.6 2-0.6 1.2-0.8 2.5-0.1 1.3 0.2 2.5 0.4 1.3 1.2 2.3 0.8 1 2 1.6 1.1 0.6 2.4 0.7 1.4 0.1 2.6-0.2 1.3-0.4 2.3-1.3 1-0.8 1.6-2 0.7-1.1 0.8-2.4 0.2-1.3-0.2-2.6-0.4-1.2-1.2-2.2z"/>
		<path id="Layer" fill-rule="evenodd" class="s0" d="m395.2 962.7q0-0.8-0.3-1.6-0.3-0.8-0.9-1.4-0.6-0.5-1.4-0.9-0.8-0.3-1.6-0.3-0.8 0-1.6 0.3-0.8 0.4-1.4 0.9-0.6 0.6-0.9 1.4-0.3 0.8-0.3 1.6 0 0.9 0.3 1.6 0.3 0.8 0.9 1.4 0.6 0.6 1.4 0.9 0.8 0.3 1.6 0.3 0.8 0 1.6-0.3 0.8-0.3 1.4-0.9 0.6-0.6 0.9-1.4 0.3-0.7 0.3-1.6z"/>
		<path id="Layer" fill-rule="evenodd" class="s0" d="m432 983.7q0.7 0 1.3-0.3 0.7-0.3 1.2-0.9 0.5-0.6 0.7-1.3 0.3-0.7 0.2-1.5 0-0.8-0.3-1.5-0.3-0.8-0.8-1.3-0.5-0.6-1.2-0.8-0.7-0.3-1.4-0.3-0.7 0-1.3 0.3-0.7 0.4-1.2 0.9-0.5 0.6-0.7 1.4-0.3 0.7-0.3 1.5 0.1 0.8 0.4 1.5 0.2 0.7 0.8 1.3 0.5 0.5 1.2 0.8 0.6 0.3 1.4 0.2z"/>
		<path id="Layer" fill-rule="evenodd" class="s0" d="m410.7 83.7q2.1 2.5 1.4-0.7-1.1-4.5-5.2-7.9-7.6-6.4-18.4-5.2-0.9 0.1 0 0.2 12.4 1.7 22.2 13.6z"/>
		<path id="Layer" fill-rule="evenodd" class="s0" d="m403.1 84.2q0-0.2-0.1-0.2-13.4-5-25.8-2.5-12.9 2.6-17.7 15.6-0.4 1.2 0.3 0.3c0.8-0.9 1.6-2.6 2.7-3.7q5.2-5.8 12.6-8.3 13.2-4.4 27.8-1 0.1 0 0.2-0.2z"/>
		<path id="Layer" fill-rule="evenodd" class="s0" d="m387.8 105.1c-10.2 2.2-17.4 8.3-21.2 18q-0.7 1.8 0.5 0.3c4.3-5.1 9.4-7.9 15.9-11.2q10.7-5.6 19-7.1 0.2 0 0.2-0.2 0-0.1-0.1-0.3-0.2-0.3-0.5-0.3-7.9-0.4-13.8 0.8z"/>
		<path id="Layer" fill-rule="evenodd" class="s0" d="m487.1 136.4q-3-0.2-0.1 0.5 11.7 3 19.3 13.5c9.7 13.3 1.8 29-12.7 33.9q-1.8 0.6 0.1 0.7c7.1 0.2 15.5-2.2 19.9-8q2.4-3.2 3-7.1 3-17.2-11.1-27.1-8.4-5.9-18.4-6.4z"/>
		<path id="Layer" fill-rule="evenodd" class="s0" d="m418.8 167.9c5.8 5.9 21.1 5.9 28.8 5 12.1-1.3 24.5-4.4 35-10.5q8.4-4.7 12.8-12.9 0.8-1.5 1.4-4.4 0.1-0.4-0.1-0.6-0.2-0.3-0.4-0.4-0.5-0.2-0.9 0.2c-1.4 1.7-2.6 3.3-4.4 4.7q-5.3 3.9-12 7.3-15.2 7.7-34.1 11.8-6.8 1.5-15.4 2-6 0.3-10.9-2.6 0 0 0 0-0.1 0-0.1 0 0 0-0.1 0 0 0.1 0 0.1 0 0.2 0.2 0.2 0.1 0 0.2 0.1z"/>
		<path id="Layer" fill-rule="evenodd" class="s0" d="m476.1 213.6q-3-4.4-3.4-8.7-1.2-12.5 3-25.5 0.9-2.9 2.1-7.3 0.4-1.4 0.2-2.3-0.1-0.2-0.2-0.3-0.1-0.2-0.3-0.2-0.2-0.1-0.3 0-0.2 0-0.4 0.1-5.8 5.8-7.9 13.6-2.5 9.4 0.8 19.2 2.2 6.6 5.8 11.6 0.1 0.1 0.3 0l0.3-0.1q0 0 0 0 0 0 0 0 0-0.1 0-0.1 0 0 0 0z"/>
		<path id="Layer" fill-rule="evenodd" class="s0" d="m229.1 196.1q0.2 0.1 0.4 0 0.2 0 0.4-0.1 0.2-0.2 0.3-0.4 0.1-0.2 0.1-0.4 0.1-0.2 0.1-0.4-0.1-0.3-0.2-0.5-0.1-0.1-0.3-0.3-0.1-0.1-0.3-0.1-0.3-0.1-0.5 0-0.2 0-0.4 0.1-0.1 0.2-0.3 0.4-0.1 0.2-0.1 0.4-0.1 0.2 0 0.4 0 0.3 0.1 0.5 0.1 0.1 0.3 0.3 0.2 0.1 0.4 0.1z"/>
		<path id="Layer" fill-rule="evenodd" class="s0" d="m231.3 212.6q0-0.3-0.1-0.6-0.1-0.3-0.3-0.5-0.2-0.2-0.5-0.3-0.3-0.1-0.6-0.1-0.3 0-0.6 0.1-0.2 0.1-0.4 0.3-0.2 0.2-0.4 0.5-0.1 0.3-0.1 0.6 0 0.2 0.1 0.5 0.2 0.3 0.4 0.5 0.2 0.2 0.4 0.3 0.3 0.1 0.6 0.1 0.3 0 0.6-0.1 0.3-0.1 0.5-0.3 0.2-0.2 0.3-0.5 0.1-0.3 0.1-0.5z"/>
		<path id="Layer" fill-rule="evenodd" class="s0" d="m246.5 246l3-0.5q1.2-0.3 0.1-0.8-0.9-0.5-2.3-1.1-1.5-0.7-1.6-2.7-0.3-2.9-0.4-5 0 0 0 0 0-0.1-0.1-0.1 0 0-0.1 0 0 0 0 0.1l-0.6 0.5q0 0.1-0.1 0.1 0 0 0 0.1 0 0 0 0 0 0 0 0.1-0.3 2.8-1.6 5.6-0.1 0.4-0.5 0.6l-2.5 1.3q-0.8 0.4 0.1 0.7l1.7 0.6q1.3 0.5 1.7 2l0.9 3.6q0.2 1 0.6 0 0.4-1.3 1-4.5 0.1-0.5 0.7-0.6z"/>
		<path id="Layer" fill-rule="evenodd" class="s0" d="m316.3 239.9q-0.1 0-0.1 0 0-0.1-0.1-0.1 0 0 0-0.1-0.1 0-0.1 0l-0.3-2q-0.1-0.1-0.2-0.2 0 0-0.2 0-0.1 0-0.2 0-0.1 0.1-0.1 0.2l-0.5 1.9q0 0-0.1 0.1 0 0 0 0-0.1 0.1-0.1 0.1 0 0-0.1 0l-1.9 0.4q-0.1 0-0.2 0.1-0.1 0.1-0.1 0.2 0 0.1 0.1 0.2 0.1 0.1 0.2 0.2l1.8 0.5q0.1 0 0.1 0 0.1 0.1 0.1 0.1 0 0 0 0.1 0.1 0 0.1 0.1l0.4 1.9q0 0.1 0.1 0.2 0.1 0 0.2 0 0.1 0 0.2 0 0.1-0.1 0.1-0.2l0.5-1.9q0.1 0 0.1-0.1 0 0 0 0 0.1-0.1 0.1-0.1 0.1 0 0.1 0l1.9-0.4q0.1 0 0.2-0.1 0.1-0.1 0.1-0.2 0-0.1-0.1-0.2 0-0.1-0.2-0.2z"/>
		<path id="Layer" fill-rule="evenodd" class="s0" d="m272.7 245.2q0.4 0.2 0.8 0.2 0.4 0.1 0.8 0 0.3-0.2 0.7-0.4 0.3-0.3 0.5-0.7 0.2-0.4 0.3-0.8 0.1-0.4 0-0.8-0.1-0.4-0.3-0.7-0.2-0.4-0.6-0.6-0.3-0.1-0.7-0.2-0.4 0-0.8 0.1-0.4 0.1-0.7 0.4-0.3 0.3-0.5 0.7-0.3 0.3-0.3 0.8-0.1 0.4 0 0.8 0.1 0.4 0.3 0.7 0.2 0.3 0.5 0.5z"/>
		<path id="Layer" fill-rule="evenodd" class="s0" d="m269.8 282.3q-3.3-1.3-8.7-4.2-2.6-1.4-0.7 0.9 2.6 3.3 6.7 6.1 0.2 0.1 0.3 0.3 0.1 0.2 0.1 0.5 0.1 0.2-0.1 0.5-0.1 0.2-0.3 0.4-5.8 4.7-7.5 6.3-1.8 1.7 0.5 0.8c3.6-1.4 6.8-2.7 10-3.1q1.4-0.1 1.5 1.3 0.6 7.8 1.1 10.9 0.6 3.6 1.3 0l2.4-11.6q0 0 0.1-0.1 0-0.1 0.1-0.2 0.1 0 0.2 0 0.1-0.1 0.2 0 6.1 1.1 9.5 2.4 3.1 1.2 0.5-0.9-2.4-1.8-7.5-4.9-0.2 0-0.3-0.2-0.1-0.1-0.1-0.3-0.1-0.2 0-0.4 0-0.1 0.2-0.3 0.9-1.1 2.7-3 0.1 0 7.3-6 0.2-0.2 0.2-0.2l-0.3-0.2q-0.7-0.4-1-0.2-4.4 2.6-10.4 5-0.2 0.1-0.4 0.1-0.2 0-0.4-0.1-0.2-0.1-0.4-0.3-0.1-0.1-0.2-0.3l-2-6.7q-1-3-1.8 0-0.5 1.8-1.3 6.9-0.2 1.4-1.5 0.8z"/>
		<path id="Layer" fill-rule="evenodd" class="s0" d="m316.7 280q-0.1 0-0.1 0 0 0-0.1-0.1 0 0 0-0.1-0.1 0-0.1-0.1l-0.3-2.4q0-0.1-0.1-0.2-0.1 0-0.2 0-0.2 0-0.2 0-0.1 0.1-0.1 0.2l-0.4 2.4q0 0.1-0.1 0.1 0 0.1 0 0.1-0.1 0-0.1 0.1-0.1 0-0.1 0l-2.4 0.3q-0.1 0.1-0.2 0.1-0.1 0.1-0.1 0.3 0 0.1 0.1 0.2 0.1 0 0.2 0.1l2.4 0.4q0 0 0.1 0 0 0 0.1 0 0 0.1 0 0.1 0 0.1 0.1 0.1l0.3 2.4q0 0.1 0.1 0.2 0.1 0.1 0.2 0.1 0.1 0 0.2-0.1 0.1-0.1 0.1-0.2l0.4-2.4q0 0 0-0.1 0.1 0 0.1 0 0-0.1 0.1-0.1 0 0 0.1 0l2.4-0.4q0.1 0 0.2-0.1 0.1-0.1 0.1-0.2 0-0.1-0.1-0.2-0.1-0.1-0.2-0.1z"/>
		<path id="Layer" fill-rule="evenodd" class="s0" d="m339.1 311.9c2.3 0.7 2.4 2.3 3.2 4.4q0.3 0.8 0.6-0.1l0.8-2.7q0.1-0.3 0.2-0.5 0.2-0.3 0.4-0.5 0.2-0.2 0.4-0.3 0.3-0.1 0.5-0.2l4.8-1.4q0.6-0.2 0-0.3-3.6-0.8-3.7-0.8-2-0.5-2.2-1.5-0.3-1.7-1.2-3.8-0.4-0.8-0.7 0.1c-1.2 3.4-1.4 5-5.9 5.7q-2.4 0.3-0.1 1.1 1.5 0.4 2.9 0.8z"/>
		<path id="Layer" fill-rule="evenodd" class="s0" d="m309.3 317.7q-1 0.9-2.2 1.5-0.1 0-0.2 0.2 0 0.1 0 0.2 0 0.2 0.1 0.3 0 0.1 0.2 0.2 2.1 0.8 2.9 2.9 0.7 2 1.5 0 0.5-1.1 1.1-1.7 0.5-0.5 1.7-0.9 2-0.7 0.1-1.5-2.1-0.9-2.8-3.1 0-0.2-0.1-0.2-0.1-0.1-0.3-0.2-0.1 0-0.3 0.1-0.1 0.1-0.2 0.2-0.6 1.2-1.5 2z"/>
		<path id="Layer" fill-rule="evenodd" class="s0" d="m400.5 336.5q-15.3 3.6-27.7 9.8-17.4 8.8-27.8 25.2-1.8 2.9 0.8 0.6 12.6-11.3 28.6-21.5 14.5-9.4 26.1-13.9 0.1 0 0.1-0.1 0-0.1-0.1-0.1z"/>
		<path id="Layer" fill-rule="evenodd" class="s0" d="m343.3 352.1l-0.8 0.4q-0.8 0.3 0 0.7 0.9 0.5 1.2 1 0.3 0.3 0.4 0.7 0 0.3 0.2 0.5 0.3 0.5 0.4-0.1 0.5-2.2 2.9-1.6 0.3 0.1 0.3-0.2l-0.1-0.3q0-0.2-0.1-0.2-2.6-0.2-2.5-2.5 0-0.3-0.1-0.4-0.3-0.1-0.3-0.1-0.1 0.1-0.2 0.1-0.1 0.1-0.2 0.1 0 0.1-0.1 0.2 0 0 0 0.1l-0.4 1q-0.1 0.1-0.1 0.2-0.1 0.1-0.1 0.2-0.1 0-0.2 0.1-0.1 0-0.2 0.1z"/>
		<path id="Layer" fill-rule="evenodd" class="s0" d="m548.6 653.6q24.4-24.1 47.7-50.5 24.9-28.1 54-65.8 11.9-15.2 23.5-33 0.2-0.2-0.1-0.4l-0.2-0.1q-0.1-0.1-0.2 0-12 15.7-27.2 34-4.4 5.2-46.1 55.6-7.3 8.8-12.9 15.3-21.2 25-25.6 30.1-4.3 4.9-13.1 14.7-2.3 2.5 0.2 0.1z"/>
		<path id="Layer" fill-rule="evenodd" class="s0" d="m494.9 468.4q-10.4 10.1-23.2 23.8-1 1.1 0.2 0.3 14.3-9.8 25.9-21.1 11.6-11.3 21.7-25.3 0.9-1.2-0.2-0.2-14.1 12.5-24.4 22.6z"/>
		<path id="Layer" fill-rule="evenodd" class="s0" d="m581.4 495.2q-0.1 0.1-0.1 0.2 2.5 23.9 0.4 47.4c-2.1 23.4-6.7 49.2-11.9 74.2q-0.1 0.6 0.4 0.3 1.2-0.8 2.1-2.3c3.2-5.7 5.3-10.4 6.9-16.7q13.3-51 2.4-103-0.1-0.3-0.2-0.1z"/>
		<path id="Layer" fill-rule="evenodd" class="s0" d="m562.3 516q0 0-0.1-0.3 0 0 0 0-0.1-0.1-0.1-0.1 0 0-0.1 0.1 0 0 0 0-1 16-4.8 30.3-5.1 19.1-8.6 29.1-8.3 23.7-13 42.1-0.8 2.9 0.9 0.4c3.5-5.5 7-11.6 9.6-17.7q10.2-23.4 13.9-48.6 2.6-17.8 2.3-35.3z"/>
		<path id="Layer" fill-rule="evenodd" class="s0" d="m456.8 791.5q0.3 0 0.3 0 0.4 0.2 0.4-0.2-0.1-0.2-0.4-0.4-9.6-6.4-17.2-13.9-0.2-0.1-12.2-11.8-1-0.9-1-0.9 0 0.1-0.1 0.1 0 0.1 0.1 0.2 3.3 3.6 6.4 8.5 3.4 5.4 4.6 6.8 4.2 5.2 5.3 6.1 6 4.5 13.8 5.5z"/>
	</g>
	<path id="Layer" class="s1" d="m583.1 57.5c-0.7-5.2 2.9-9.9 7.9-10.6 5.1-0.6 9.7 3 10.4 8.2 0.7 5.2-2.9 9.9-7.9 10.6-5.1 0.6-9.8-3-10.4-8.2z"/>
	<path id="Layer" class="s1" d="m694.3 63.9q-1-3.2-1-5.5 0-0.4 0.2-0.9 0.2-0.4 0.5-0.7 0.3-0.3 0.8-0.5 0.4-0.2 0.9-0.1c3 0.1 6.4 3.7 3.3 6.6q-0.3 0.2 0 0.7 0 0.1 0.2 0.2 0 0 0 0 0.1 0 0.1 0 0 0 0 0 0.1 0 0.1 0 1.9-1.4 4.1 1 4 4.2 7 7.6 1.7 1.8 1.9 4.4 0.1 0.3 0 0.6-0.1 0.3-0.3 0.6-0.1 0.3-0.4 0.5-0.2 0.2-0.5 0.3-1.2 0.4-2.6 0-6-1.9-10.4-5.1-0.1-0.1-0.4 0l-0.4 0.1q-0.2 0.1 0 0.3l5.9 4.9q0 0 0 0 0 0.1 0 0.1 0 0.1 0 0.1-0.1 0-0.1 0.1l-0.3 0.1q0 0 0-0.1l-6-4.2q-0.2-0.2-0.5-0.2-0.3-0.1-0.6 0-0.2 0.1-0.4 0.3-0.2 0.2-0.3 0.5-0.8 2.9-2.4 5 0 0.1-0.1 0.1 0 0 0 0-0.1 0-0.1 0 0 0 0 0h-0.1q-0.1-0.2 0-0.3 1.4-2.3 1.9-5.2 0.1-0.1-0.1-0.1l-0.5 0.1q-0.2 0-0.3 0.2-1.5 4.3-4.1 8.3-1.6 2.4-3.5 0.9-1.2-1-1.5-3c-0.6-3.2-0.3-7.2-0.4-11.6q-0.1-2.5 2.4-3.4 2-0.8 0-1.6l-2.4-1q-0.3-0.2-0.6-0.4-0.3-0.2-0.5-0.5-0.2-0.3-0.3-0.7-0.1-0.3-0.1-0.7c0.2-6 7.7-7 9.9-1.7q0.9 2 1.8 4 0.5 1.1 0.2-0.1z"/>
	<path id="Layer" fill-rule="evenodd" class="s1" d="m279.8 121.3c-4.7 5.4-2.4 12.5 2 17.4 4.3 5 11.6 7.3 18.6 7.2q18.7-0.1 29.2-15.8 4.1-6.2 7.3-13.2c5.5-12.6 9.8-22.8 16.7-32.7q12.8-18.5 34.8-21.3 11.5-1.5 21.8 2.7 16.9 6.8 19.7 24.9 0.6 4.2 0.3 11.3 0 0.1-0.1 0.3 0 0.1-0.1 0.2-0.1 0.2-0.3 0.2-0.1 0.1-0.3 0.2-11.5 2.6-24.9 8.3-11.9 5.1-20.9 13.8-0.7 0.7-15 14.8-6.2 6.1-14.9 12.3c-17.1 12.3-40 16.6-60.4 10.4q-19.6-5.8-25.9-24.9c-3.3-10-2.4-23.5 8.8-28.3q4.1-1.7 9.4-1.4 7.7 0.6 18 4.1 1.9 0.6-0.1 1-9.5 1.7-16.6 4.3-5.2 1.9-7.1 4.2zm130.9-37.6q2.1 2.5 1.4-0.7-1.1-4.5-5.2-7.9-7.6-6.4-18.4-5.2-0.9 0.1 0 0.2 12.4 1.7 22.2 13.6zm-7.6 0.5q0-0.2-0.1-0.2-13.4-5-25.8-2.5-12.9 2.6-17.7 15.6-0.4 1.2 0.3 0.3c0.8-0.9 1.6-2.5 2.7-3.7q5.2-5.8 12.6-8.3 13.2-4.4 27.8-1 0.1 0 0.2-0.2zm-15.3 20.9c-10.2 2.2-17.4 8.3-21.2 18q-0.7 1.8 0.5 0.3c4.3-5.1 9.4-7.9 15.9-11.2q10.7-5.6 19-7.1 0.2 0 0.2-0.2 0-0.1-0.1-0.3-0.2-0.3-0.5-0.3-7.9-0.4-13.8 0.8z"/>
	<path id="Layer" class="s1" d="m601 87.5c-5.2 0-9.3-4.1-9.3-9.3 0-5.2 4.1-9.4 9.3-9.4 5.2 0 9.4 4.2 9.4 9.4 0 5.2-4.2 9.3-9.4 9.3z"/>
	<path id="Layer" class="s2" d="m410.7 83.7q-9.8-11.9-22.2-13.6-0.9-0.1 0-0.2 10.8-1.2 18.4 5.2 4.1 3.4 5.2 7.9 0.7 3.2-1.4 0.7z"/>
	<path id="Layer" class="s2" d="m402.9 84.4q-14.6-3.4-27.8 1-7.4 2.5-12.6 8.3c-1.1 1.1-1.9 2.8-2.7 3.7q-0.7 0.9-0.3-0.3 4.8-13 17.7-15.7 12.4-2.4 25.8 2.6 0.1 0 0.1 0.2-0.1 0.2-0.2 0.2z"/>
	<path id="Layer" class="s1" d="m640.1 100.2c-2.7 0-4.9-2.2-4.9-4.9 0-2.7 2.2-4.9 4.9-4.9 2.7 0 4.9 2.2 4.9 4.9 0 2.7-2.2 4.9-4.9 4.9z"/>
	<path id="Layer" class="s1" d="m883.8 194.3q-0.7 1.7 0.3 0.1 19.2-30.9 45.9-66.7 0.2-0.2 0.4-0.1l0.4 0.2q0.2 0.1 0.1 0.3l-35 62.5q-0.6 1.1 0.4 0.4 0.1 0 0.6-0.6 23.6-30.3 40.5-65 7.2-14.7 13.4-29.8 0 0 0.1 0l0.2 0.1q0.2 0 0.1 0.2-6.8 24-15.1 46.7-4.9 13.4-12.6 24.6-10.1 14.7-23.2 27.2-0.1 0 0 0.1l0.1 0.2q0.2 0.2 0.4 0.1 20.2-15 37.1-33.7 0.1-0.2 0.3-0.1 0.1 0 0.2 0.1 0 0.1 0 0.3-0.2 0.5-1.4 2.4-17.5 29.3-41.1 52.3-7 6.8-14.8 12.8-2.3 1.8-5.2 3-0.2 0.1-0.4 0.1-0.3 0-0.5-0.1-0.2 0-0.4-0.2-0.2-0.2-0.3-0.4-2.5-5.5-8-7.9-0.9-0.4-0.8-1.3 0.5-7.3 3.2-14.1c3.5-8.8 8.7-17.4 13.7-26.2q13-22.9 29-43.4 2.4-3.1 7.9-8.4 0 0 0 0 0.2 0.1 0.3 0.1 0.1 0 0 0.1-21.6 30.2-35.8 64.1z"/>
	<path id="Layer" class="s1" d="m614.7 107.8c-2.7 0-5-2.2-5-5 0-2.7 2.3-4.9 5-4.9 2.8 0 5 2.2 5 4.9 0 2.8-2.2 5-5 5z"/>
	<path id="Layer" fill-rule="evenodd" class="s1" d="m445.7 354.2q-0.1-0.2-0.2 0v0.3q0 0.1 0.1 0.2l4.4 7.3q0 0.1 0.1 0.2 0 0.1-0.1 0.2 0 0.1-0.1 0.2-0.1 0-0.2 0-0.2 0.1-0.4 0.1-0.3-0.1-0.4-0.1c-13.2-4.6-27.1-2.6-39.6 3.4q-6.1 2.9-13.5 7.1-16 8.8-35.8 8.1-8.7-0.3-17-2.6-9.3-2.7-15.5-7.1-12-8.5-17.6-23-0.1-0.2-0.1-0.4 0-0.1 0.1-0.3 0-0.1 0.1-0.3 0.1-0.1 0.3-0.2 4.3-2.5 7.5-4 42.2-19.2 86.5-21.9 5.2-0.3 19.2 0.1 0.1 0 0.1 0 0 0 0 0 0 0 0.1-0.1 0 0 0 0-0.1-0.7-0.2-0.2 0 0.1-0.1 0.1-21.8-3.7-42.4-3.7-18.6 0.1-37.4 5.2-20.3 5.5-36.5 18.3-0.2 0.1-0.4 0.2-0.1 0-0.3 0-0.2 0-0.4-0.1-0.1-0.1-0.2-0.3-4.7-6.6-11.2-16.3-5.3-7.9-13-12.9-0.2-0.1-0.2-0.2-0.1-0.1-0.1-0.3 0-0.1 0.1-0.3 0.1-0.1 0.2-0.1 11.1-5.1 21.5-8.2 37.9-11.2 77.2-8.7 20.6 1.3 40.9 9.5 0.1 0 0.1-0.1 0.1-0.1-0.1-0.2-46.3-21.5-96.2-11.9-13.2 2.5-27.9 7.4-12.4 4.1-22.4 9.6-0.1 0.1-0.3 0.2-0.1 0-0.3 0-0.2 0-0.4 0-0.1-0.1-0.3-0.1-23.9-11.8-35.1-36.9-0.4-0.8 0.5-1.1c13.4-3.3 27-5.9 40.9-7q75.4-5.8 144.3 25.5 7.4 3.4 13.7 7.1 0 0 0 0l0.1-0.3q0.1-0.1 0-0.2-39.6-24.3-83.4-33.7-42.6-9.1-85.9-2.2-15.7 2.5-31.2 6.8-0.3 0.1-0.6 0.1-0.2 0-0.5-0.2-0.2-0.1-0.4-0.3-0.1-0.2-0.2-0.5-2.2-7.6-4-15.4c-2.4-9.6-5-16.8-9.2-24.7q-0.6-1.3 0.7-0.8 2.2 0.8 4.7 1.1c10 1.1 19.2-0.8 30.8-3.8q10-2.6 16.3-3.7 5.3-0.8 15.1-1.2 0.1 0 0.1-0.2 0-0.1-0.2-0.2-14.5-1.5-29.1 1.5-18.2 3.7-18.5 3.7c-7.9 1.3-14.1 1.7-21.2-0.8q-1.8-0.7-4-3.4-19.2-23.5-48.1-35-2.7-1.1-11.9-4.5-2.7-1 0.1-1 63.7-0.4 123.5 18.4 9.3 3 18.9 6.6 56.9 21.8 104.8 54.7 8.9 6.1 11.7 8 2.7 1.8 0.2-0.2-10.5-8.3-22.3-16.9-24.3-17.7-52.4-32.3-59.1-30.8-124.8-37.5c-11.1-1.1-24.6-1.6-35.3-1.8q-19.1-0.4-24.3 0.4-3.6 0.6-6 0.1-6.3-1.4-19.3-3.9-0.4-0.1-0.6-0.3-0.1 0-0.1-0.1 0 0 0-0.1 0-0.1 0.1-0.1 0-0.1 0.1-0.1 11.8-1 25.1-1.3 15.6-0.4 20.1-0.5 102.9-1.3 192.9 49 41.6 23.2 73.7 59 0.9 1 0.7-0.3-0.8-4.4-1.2-8.8-1-12.5-1.7-27.3 0-0.1-0.1-0.2 0-0.2-0.1-0.3-0.1-0.1-0.2-0.2-0.1-0.1-0.2-0.1c-31.4-14.1-59.3-44.7-56.9-81.2q0.6-8.5 3.3-15.5c5.4-14.1 16.6-24.7 30.6-30.5q21-8.6 44.5-4.3c8.8 1.6 17.2 6.9 14.2 17.3q-2.1 7.2-7.8 13.3-0.1 0 0 0.2 0 0.1 0.1 0.1 11.9-9.2 12.7-23.1 0.2-3.5 1.2-5 3.6-6 10.2-8.2c6.1-2 15.9-2.4 20.9 2.2q0.8 0.8-0.3 0.5-13.7-3.9-23.6 5.5-1.9 1.8 0.4 0.4c5.5-3.3 12.4-3.1 19.2-2.2q6.8 0.9 11.4 4.7 5.3 4.4 7.4 10.7 0.5 1.5-0.8 0.6-16.8-11.2-36.8-4.4-0.2 0.1-0.1 0.3 0.2 0.2 0.3 0.1 7.4-1.8 14.4-0.5 7.3 1.2 13.6 4.2c15.1 7.2 25.5 24.6 18.1 41.1q-3.9 8.9-12.4 14.2-3 1.9-7.3 3.9-0.3 0.1-0.5 0.3-0.2 0.2-0.3 0.4-0.1 0.2-0.2 0.5 0 0.3 0 0.6c1.2 6.6 5.5 10.9 10.2 15.6q1.7 1.6 2 2.6c0.8 2.7-3.3 5.1-5.1 6.2-2.5 1.5-1 4.3-0.4 6.7 0.6 2.5-0.4 4-2.9 4.3q-0.2 0-0.4 0.1-0.1 0.2-0.2 0.3-0.1 0.2-0.1 0.4 0 0.2 0.1 0.3 2.1 3.4-0.6 6.6-0.1 0.1-0.2 0.2 0 0.1-0.1 0.2 0 0.1 0 0.3 0 0.1 0 0.2 0.2 1.3 1.3 4.8c2.2 7.1-4 7.4-9 6.8q-14.5-1.8-29.6-0.9-0.1 0-0.2 0.1-0.1 0-0.2 0.1-0.1 0.1-0.2 0.2 0 0.1-0.1 0.2-1.2 6.2-1.5 10.8-0.8 13.1 7.6 23.1 0.1 0.1 0.1 0.2 0 0.2 0 0.4-0.1 0.1-0.2 0.2-0.1 0.1-0.3 0.1-7.5 1.3-12.6 6.6-6.2 6.3-7.4 16-2.8 23.2 11.5 42.6 7.6 10.4 19.3 16 11.3 5.4 23.3 1.6 0.5-0.2 1 0.1c0.7 0.6 1.1 1.5 1.9 2.1q9.6 8.2 26.5 22.7 1.3 1.2 1.8 2.2 10.3 23.2 12.4 48.3 0 0.1-0.1 0.3-0.1 0.1-0.2 0.2-0.1 0-0.3 0-0.1 0-0.2-0.1c-13.3-12.9-33.8-16.2-51.1-10.5q-0.1 0-0.2 0-0.1 0-0.2 0-0.2-0.1-0.2-0.1-0.1-0.1-0.2-0.2-4.3-6.8-10.2-12.4-19.5-18.3-21.6-20.3-15.7-15.4-29.2-32.8-3.7-4.8-4.2-5.3zm41.4-217.8q-3-0.2 0 0.5 11.6 3 19.2 13.5c9.7 13.4 1.8 29-12.7 33.9q-1.8 0.6 0.1 0.7c7.1 0.2 15.5-2.2 19.9-8q2.4-3.2 3-7.1 3-17.2-11.1-27.1-8.4-5.8-18.4-6.4zm-68.3 31.5c5.8 5.9 21.1 5.9 28.8 5 12.1-1.3 24.5-4.4 35-10.4q8.4-4.8 12.8-13 0.8-1.5 1.4-4.4 0.1-0.4-0.1-0.6-0.2-0.3-0.4-0.4-0.5-0.2-0.9 0.2c-1.4 1.7-2.6 3.3-4.4 4.7q-5.3 3.9-12 7.3-15.2 7.7-34.1 11.8-6.8 1.5-15.4 2-6 0.3-10.9-2.6 0 0 0 0-0.1 0-0.1 0 0 0-0.1 0 0 0.1 0 0.1 0 0.2 0.2 0.2 0.1 0 0.2 0.1zm57.3 45.7q-3-4.4-3.4-8.7-1.2-12.5 3-25.5 0.9-2.9 2.1-7.3 0.4-1.4 0.2-2.3-0.1-0.2-0.2-0.3-0.1-0.2-0.3-0.2-0.2-0.1-0.3 0-0.2 0-0.3 0.1-5.9 5.8-8 13.6-2.5 9.4 0.8 19.2 2.2 6.6 5.8 11.6 0.1 0.2 0.3 0l0.3-0.1q0 0 0 0 0 0 0 0 0-0.1 0-0.1 0 0 0 0zm-247-17.5q0.2 0.1 0.4 0 0.2 0 0.4-0.1 0.2-0.2 0.3-0.4 0.1-0.2 0.1-0.4 0.1-0.2 0.1-0.4-0.1-0.3-0.2-0.5-0.1-0.1-0.3-0.3-0.1-0.1-0.3-0.1-0.3-0.1-0.5 0-0.2 0-0.4 0.1-0.1 0.2-0.3 0.4-0.1 0.2-0.1 0.4-0.1 0.2 0 0.4 0 0.3 0.1 0.5 0.1 0.1 0.3 0.3 0.2 0.1 0.4 0.1zm2.2 16.5q0-0.3-0.1-0.6-0.1-0.3-0.3-0.5-0.2-0.2-0.5-0.3-0.3-0.1-0.6-0.1-0.3 0-0.6 0.1-0.2 0.1-0.4 0.3-0.2 0.2-0.4 0.5-0.1 0.3-0.1 0.6 0 0.2 0.1 0.5 0.2 0.3 0.4 0.5 0.2 0.2 0.4 0.3 0.3 0.1 0.6 0.1 0.3 0 0.6-0.1 0.3-0.1 0.5-0.3 0.2-0.2 0.3-0.5 0.1-0.3 0.1-0.5zm15.2 33.4l3-0.5q1.2-0.3 0.1-0.8-0.9-0.5-2.3-1.1-1.5-0.7-1.6-2.7-0.3-2.9-0.4-5 0 0 0 0 0-0.1-0.1-0.1 0 0-0.1 0 0 0 0 0.1l-0.6 0.5q0 0.1-0.1 0.1 0 0 0 0.1 0 0 0 0 0 0 0 0.1-0.3 2.8-1.6 5.6-0.1 0.4-0.5 0.6l-2.5 1.3q-0.8 0.4 0.1 0.7l1.7 0.6q1.3 0.5 1.7 2l0.9 3.6q0.2 1 0.6 0 0.4-1.3 1-4.5 0.1-0.5 0.7-0.6zm69.8-6.1q-0.1 0-0.1 0 0-0.1-0.1-0.1 0 0 0-0.1-0.1 0-0.1 0l-0.3-2q-0.1-0.1-0.2-0.2 0 0-0.2 0-0.1 0-0.2 0-0.1 0.1-0.1 0.2l-0.5 1.9q0 0-0.1 0.1 0 0 0 0-0.1 0.1-0.1 0.1 0 0-0.1 0l-1.9 0.4q-0.1 0-0.2 0.1-0.1 0.1-0.1 0.2 0 0.1 0.1 0.2 0.1 0.1 0.2 0.2l1.8 0.5q0.1 0 0.1 0 0.1 0.1 0.1 0.1 0 0 0 0.1 0.1 0 0.1 0.1l0.4 1.9q0 0.1 0.1 0.2 0.1 0 0.2 0 0.1 0 0.2 0 0.1-0.1 0.1-0.2l0.5-1.9q0.1 0 0.1-0.1 0 0 0 0 0.1-0.1 0.1-0.1 0.1 0 0.1 0l1.9-0.4q0.1 0 0.2-0.1 0.1-0.1 0.1-0.2 0-0.1-0.1-0.2 0-0.1-0.2-0.2zm-43.5 5.3q0.4 0.2 0.7 0.3 0.4 0 0.8-0.1 0.4-0.1 0.7-0.4 0.4-0.3 0.6-0.7 0.2-0.3 0.3-0.8 0.1-0.4 0-0.8-0.1-0.4-0.3-0.7-0.3-0.3-0.6-0.5-0.3-0.2-0.7-0.3-0.4 0-0.8 0.1-0.4 0.2-0.7 0.4-0.4 0.3-0.6 0.7-0.2 0.4-0.3 0.8 0 0.4 0.1 0.8 0 0.4 0.3 0.7 0.2 0.4 0.5 0.5zm-2.9 37.2q-3.3-1.3-8.7-4.2-2.6-1.4-0.8 0.8 2.7 3.3 6.7 6.1 0.3 0.1 0.4 0.4 0.1 0.2 0.1 0.4 0 0.3-0.1 0.5-0.1 0.2-0.3 0.4-5.8 4.8-7.5 6.3-1.9 1.7 0.4 0.8c3.7-1.4 6.8-2.7 10.1-3q1.4-0.2 1.5 1.2 0.6 7.9 1.1 10.9 0.6 3.6 1.3 0l2.4-11.5q0-0.1 0-0.2 0.1-0.1 0.2-0.1 0.1-0.1 0.2-0.1 0.1 0 0.2 0 6.1 1.1 9.5 2.4 3.1 1.2 0.5-0.9-2.4-1.8-7.6-4.8-0.1-0.1-0.2-0.3-0.1-0.1-0.2-0.3 0-0.2 0.1-0.3 0-0.2 0.1-0.3 1-1.2 2.8-3 0.1-0.1 7.3-6.1 0.2-0.2 0.2-0.2l-0.4-0.2q-0.6-0.4-0.9-0.2-4.4 2.6-10.5 5.1-0.1 0-0.4 0-0.2 0-0.4-0.1-0.1-0.1-0.3-0.2-0.1-0.2-0.2-0.4l-2.1-6.7q-0.9-3-1.7 0-0.5 1.8-1.3 6.9-0.2 1.4-1.5 0.9zm46.9-2.4q-0.1 0-0.1 0-0.1 0-0.1-0.1 0 0-0.1 0 0-0.1 0-0.1l-0.4-2.4q0-0.2-0.1-0.2 0-0.1-0.2-0.1-0.1 0-0.2 0.1-0.1 0-0.1 0.2l-0.4 2.4q0 0 0 0.1 0 0-0.1 0 0 0.1 0 0.1-0.1 0-0.1 0l-2.4 0.4q-0.2 0-0.2 0.1-0.1 0.1-0.1 0.2 0 0.1 0.1 0.2 0 0.1 0.2 0.1l2.4 0.4q0 0 0.1 0 0 0 0 0.1 0.1 0 0.1 0.1 0 0 0 0l0.4 2.5q0 0.1 0.1 0.1 0.1 0.1 0.2 0.1 0.1 0 0.2-0.1 0.1 0 0.1-0.1l0.4-2.4q0-0.1 0-0.1 0-0.1 0.1-0.1 0 0 0.1-0.1 0 0 0.1 0l2.4-0.4q0.1 0 0.1-0.1 0.1 0 0.1-0.2 0-0.1-0.1-0.2 0-0.1-0.1-0.1zm22.3 31.9c2.4 0.7 2.5 2.3 3.3 4.4q0.3 0.8 0.5-0.1l0.9-2.7q0.1-0.3 0.2-0.5 0.2-0.3 0.4-0.5 0.2-0.2 0.4-0.3 0.2-0.1 0.5-0.2l4.7-1.4q0.7-0.1 0-0.3-3.5-0.8-3.6-0.8-2.1-0.5-2.3-1.5-0.3-1.7-1.2-3.8-0.3-0.8-0.6 0.1c-1.2 3.4-1.4 5-5.9 5.7q-2.4 0.3-0.1 1.1 1.4 0.4 2.8 0.8zm-29.8 5.8q-0.9 0.9-2.1 1.5-0.1 0-0.2 0.2-0.1 0.1-0.1 0.2 0 0.2 0.1 0.3 0.1 0.1 0.2 0.2 2.2 0.8 3 2.9 0.7 2 1.5 0 0.4-1.1 1-1.7 0.6-0.5 1.8-0.9 2-0.7 0-1.5-2-0.9-2.7-3.1-0.1-0.1-0.2-0.2-0.1-0.1-0.2-0.1-0.2-0.1-0.3 0-0.1 0.1-0.2 0.2-0.7 1.2-1.6 2zm91.3 18.8q-15.3 3.6-27.7 9.8-17.4 8.8-27.8 25.2-1.8 2.9 0.7 0.6 12.7-11.3 28.6-21.5 14.5-9.4 26.2-13.9 0.1 0 0.1-0.1 0-0.1-0.1-0.1zm-57.2 15.6l-0.8 0.4q-0.8 0.4 0 0.7 0.8 0.5 1.2 1 0.3 0.3 0.3 0.7 0.1 0.3 0.2 0.5 0.3 0.5 0.5-0.1 0.5-2.2 2.9-1.6 0.3 0.1 0.2-0.2v-0.3q0-0.2-0.2-0.2-2.5-0.2-2.4-2.5 0-0.2-0.2-0.4-0.2-0.1-0.3-0.1-0.1 0.1-0.1 0.1-0.1 0.1-0.2 0.2-0.1 0-0.1 0.1 0 0.1-0.1 0.1l-0.4 1.1q0 0 0 0.1-0.1 0.1-0.2 0.2 0 0-0.1 0.1-0.1 0.1-0.2 0.1z"/>
	<path id="Layer" class="s2" d="m366.6 123.1c3.8-9.7 11-15.8 21.2-18q5.9-1.2 13.8-0.8 0.3 0 0.5 0.3 0.1 0.2 0.1 0.3 0 0.2-0.2 0.2-8.3 1.5-19 7.1c-6.5 3.3-11.6 6.1-15.9 11.2q-1.2 1.5-0.5-0.3z"/>
	<path id="Layer" class="s1" d="m652.2 166.9q-1.9 3-2.9 5.4-1.3 3.5-3.1 8.9-0.7 2.2-2.1 3.4-0.2 0.1-0.4 0.1-0.3 0-0.5-0.1-0.2-0.1-0.3-0.3-0.1-0.2-0.1-0.4 0.3-3.1 1.4-5.6 2.2-4.8 3.9-10 0.1-0.3-0.1-0.2l-0.3 0.1q0 0.1-0.1 0.1-1.9 4.8-2.5 6.5-1.3 3.8-3.2 6.2-3.5 4.5-8.3 9.8-0.1 0.2-0.3 0.3-0.1 0-0.3 0.1-0.2 0-0.4-0.1-0.2 0-0.3-0.1-5-3.4-6.8-8.7-2.8-8.5-3.5-10.8-0.3-1.4 1.3-2.7c2.9-2.2 8.1-1.5 13.2-1.4q0.8 0 0-0.4-3.9-2-5.4-3c-6.9-4.8-7-15-7.1-22.6q0-2.9-1-7-1.3-5.2-1.7-9.8 0-0.4 0.1-0.8 0.1-0.4 0.4-0.6 0.2-0.3 0.6-0.5 0.3-0.2 0.7-0.2 1.2 0 2.9 0.9 3 1.8 6.8 6.9 4.1 5.4 8.1 13.7 6.4 13.2 7.8 17.2 0 0 0 0 0 0.1 0.1 0.1 0 0 0 0 0 0.1 0 0.1 0.9 1.3 1.1 0.2 0.1-1-0.6-6.3-0.3-2.9 1.7-6.8 0.1-0.2 0.3-0.2h0.3q0.1 0 0 0.2-1.9 5.5-0.5 11 0.1 0.5 0.6 0.5 1.1 0.2 1.9 0.6 0.5 0.2 1 0 2.2-0.8 3.4-1.9 2.1-2.1 4.1-5.3 0-0.1 0.2 0h0.3q0.1 0 0.2 0.1 0 0 0.1 0.1 0 0.1 0 0.2 0 0.1 0 0.1-2.4 5-7.4 8-0.9 0.6-1.3 2.1-0.2 0.6 0.3 0.4 15-5.8 32.5-7c3-0.2 9.3 0.4 11.2 3.4q0 0.1 0.1 0.3 0 0.1 0 0.2 0.1 0.1 0.1 0.2 0 0.1 0 0.3-0.3 1.6-1.7 2.4-7.5 4.4-15.1 10.7c-1.7 1.4-4.9 3.8-7.3 4.9q-7.6 3.3-14.8-1.6-0.2-0.1-0.3 0.1l-0.1 0.2q-0.1 0.1 0 0.1 2.8 2.6 5.3 5.5 2.6 2.8 3.4 6.5 0.1 0.3 0 0.7 0 0.3-0.1 0.6-0.2 0.3-0.4 0.6-0.3 0.2-0.6 0.3-7.3 3.4-9.1 4.4-4.6 2.4-10.6 0.5-1.2-0.4-1.2-1.7 0.4-5.9 1.6-15.8 0.3-3 5-13.2 0 0 0-0.1 0 0 0-0.1-0.1 0-0.1 0-0.1 0-0.1 0.1z"/>
	<path id="Layer" class="s1" d="m714.2 137.3c-2.7 0-4.9-2.2-4.9-4.9 0-2.7 2.2-4.9 4.9-4.9 2.7 0 4.8 2.2 4.8 4.9 0 2.7-2.1 4.9-4.8 4.9z"/>
	<path id="Layer" class="s2" d="m487.1 136.4q10 0.5 18.4 6.4 14.1 9.9 11.1 27.1-0.6 3.9-3 7.1c-4.4 5.8-12.8 8.2-19.9 8q-1.9-0.1-0.1-0.7c14.5-4.9 22.4-20.6 12.7-33.9q-7.6-10.5-19.3-13.5-2.9-0.7 0.1-0.5z"/>
	<path id="Layer" class="s2" d="m418.6 167.8q-0.2 0-0.2-0.2 0 0 0-0.1 0.1 0 0.1 0 0 0 0.1 0 0 0 0 0 4.9 2.9 10.9 2.6 8.6-0.5 15.4-2 18.9-4.1 34.1-11.8 6.7-3.4 12-7.3c1.8-1.4 3-3 4.4-4.7q0.4-0.4 0.9-0.2 0.2 0.1 0.4 0.4 0.1 0.2 0.1 0.6-0.6 2.9-1.4 4.4-4.4 8.2-12.8 12.9c-10.5 6.1-22.9 9.2-35 10.5-7.7 0.9-23 0.9-28.8-5q-0.1-0.1-0.2-0.1z"/>
	<path id="Layer" class="s1" d="m698.8 177.3c-2.8 0-5.1-2.3-5.1-5.1 0-2.9 2.3-5.1 5.1-5.1 2.9 0 5.1 2.2 5.1 5.1 0 2.8-2.2 5.1-5.1 5.1z"/>
	<path id="Layer" class="s2" d="m476.1 213.6q0 0 0 0 0 0 0 0.1 0 0 0 0 0 0 0 0l-0.3 0.1q-0.2 0.1-0.3 0-3.6-5-5.8-11.6-3.3-9.8-0.8-19.2 2.1-7.8 8-13.6 0.1-0.1 0.3-0.1 0.1-0.1 0.3 0 0.2 0 0.3 0.2 0.1 0.1 0.2 0.3 0.2 0.9-0.2 2.3-1.2 4.4-2.1 7.3-4.2 13-3 25.5 0.4 4.3 3.4 8.7z"/>
	<path id="Layer" class="s2" d="m228.3 194.8c0.1-0.7 0.7-1.1 1.3-0.9 0.5 0.1 0.9 0.7 0.7 1.3-0.1 0.7-0.7 1.1-1.2 0.9-0.6-0.1-1-0.7-0.8-1.3z"/>
	<path id="Layer" class="s1" d="m701.7 199.9c-0.1-2.7 2-5 4.7-5 2.6-0.1 4.8 2.1 4.9 4.8 0 2.8-2.1 5-4.7 5.1-2.7 0-4.9-2.1-4.9-4.9z"/>
	<path id="Layer" class="s2" d="m229.8 214c-0.8 0-1.5-0.6-1.5-1.4 0-0.9 0.7-1.5 1.5-1.5 0.8 0 1.5 0.6 1.5 1.5 0 0.8-0.7 1.4-1.5 1.4z"/>
	<path id="Layer" class="s1" d="m730.3 225.5c-2.7 0-4.9-2.2-4.9-4.9 0-2.7 2.2-5 4.9-5 2.7 0 5 2.3 5 5 0 2.7-2.3 4.9-5 4.9z"/>
	<path id="Layer" class="s1" d="m619.4 225.5c-2.5 0-4.5-2-4.5-4.5 0-2.5 2-4.5 4.5-4.5 2.4 0 4.4 2 4.4 4.5 0 2.5-2 4.5-4.4 4.5z"/>
	<path id="Layer" class="s1" d="m674.9 227.6c-2.8 0-5-2.2-5-4.9 0-2.7 2.2-4.9 5-4.9 2.7 0 4.9 2.2 4.9 4.9 0 2.7-2.2 4.9-4.9 4.9z"/>
	<path id="Layer" class="s1" d="m597.1 232.9c-2.5 0-4.5-2-4.5-4.5 0-2.4 2-4.4 4.5-4.4 2.4 0 4.4 2 4.4 4.4 0 2.5-2 4.5-4.4 4.5z"/>
	<path id="Layer" class="s1" d="m862.1 224.4c4.3-2.2 9.3 3.6 10.9 7.1 1.3 2.8 0.3 5.9-0.4 9q-0.1 0.3-0.3 0.5-0.2 0.2-0.5 0.3-0.3 0-0.6-0.1-0.2 0-0.4-0.3-4.6-5-5.8-6.5-2.8-3.3-4.1-7-0.1-0.4-0.1-0.8 0-0.5 0.2-0.9 0.1-0.4 0.4-0.7 0.3-0.3 0.7-0.6z"/>
	<path id="Layer" class="s1" d="m723.2 460.7q-1.5 0.9-2.7 2.6-9.5 13.2-15 20.1-0.3 0.4-0.8 0.1-4-2.7-8.6-3.6-0.1-0.1-0.3-0.2-0.1-0.1-0.1-0.2-0.1-0.2-0.1-0.3 0-0.2 0.1-0.3 4.1-6.7 10.2-15 9.9-13.3 10-13.5c7.2-10.2 16.8-22.7 24-32.9q42.8-60 88.3-126.8 5-7.4 7-10.5 14.4-21.6 17.9-27.3 0.1-0.1 0-0.2-0.1-0.1-0.2 0.1-6.3 8.6-18.4 25.7-34.4 48.4-39.6 55.7-40.6 56.3-69.7 99.1-20.3 29.8-30.3 44.9-0.7 1.1-2 0.8l-3.9-0.7q-1.2-0.2-0.4-1.2 24.1-30.7 28-36 18.4-25.1 36.2-50.5 8.7-12.4 36.4-52.4 4.6-6.7 9.4-13.9c4.2-6.5 8.7-12.3 12.6-18.5q6.4-10 11.9-17.7 0.7-0.8 18.6-27.9 8.3-12.5 15.5-25.3 0.8-1.5 1.9-0.2 4 4.9 9.2 9 0.8 0.7 0.2 1.7-10.7 17.9-21.1 34-50.7 78.1-105.1 154.2-0.8 1-2.2 2.8-0.1 0.2-0.1 0.4 0 0.2 0 0.4 0.1 0.2 0.2 0.3 0.2 0.2 0.4 0.2 6.7 1.8 11.8 6.4 1.9 1.8-0.6 1.6l-16.1-1.4q-0.1 0-0.3 0.1-0.1 0-0.3 0.1-0.1 0.1-0.1 0.3-0.1 0.1-0.1 0.3l0.1 0.4q0 0.1 0 0.2 0 0.1 0.1 0.3 0 0.1 0.1 0.1 0 0.1 0.1 0.2c2.3 1.7 2.3 4.2 0.7 6.3-1.5 1.9-2.8 3.3-3.1 5.1-0.7 3.3-1.6 5-4.8 6.4q-3.7 1.7-7.6 2.8-1.4 0.4-0.6-0.8l3.6-5.1q0-0.1 0-0.2 0 0 0-0.1-0.1 0-0.1 0-0.1-0.1-0.2 0z"/>
	<path id="Layer" class="s2" d="m245.8 246.6q-0.6 3.2-1 4.5-0.4 1-0.6 0l-0.9-3.6q-0.4-1.5-1.7-2l-1.7-0.6q-0.9-0.3-0.1-0.7l2.5-1.3q0.3-0.2 0.5-0.6 1.3-2.8 1.6-5.6 0-0.1 0-0.1 0 0 0 0 0-0.1 0-0.1 0.1 0 0.1-0.1l0.6-0.5q0-0.1 0-0.1 0.1 0 0.1 0 0.1 0 0.1 0.1 0 0 0 0 0.1 2.1 0.3 5 0.2 2 1.7 2.7 1.4 0.6 2.3 1.1 1.1 0.5-0.1 0.8l-3 0.5q-0.6 0.1-0.7 0.6z"/>
	<path id="Layer" class="s2" d="m316.3 239.9l1.8 0.5q0.2 0.1 0.2 0.2 0.1 0.1 0.1 0.2 0 0.1-0.1 0.2-0.1 0.1-0.2 0.1l-1.9 0.4q0 0-0.1 0 0 0-0.1 0.1 0 0 0 0 0 0.1-0.1 0.1l-0.5 1.9q0 0.1-0.1 0.2-0.1 0-0.2 0-0.1 0-0.2 0-0.1-0.1-0.1-0.2l-0.4-1.9q0-0.1-0.1-0.1 0-0.1 0-0.1 0 0-0.1-0.1 0 0-0.1 0l-1.8-0.5q-0.1-0.1-0.2-0.2-0.1-0.1-0.1-0.2 0-0.1 0.1-0.2 0.1-0.1 0.2-0.1l1.9-0.4q0.1 0 0.1 0 0 0 0.1-0.1 0 0 0 0 0.1-0.1 0.1-0.1l0.5-1.9q0-0.1 0.1-0.2 0.1 0 0.2 0 0.2 0 0.2 0 0.1 0.1 0.2 0.2l0.3 1.9q0 0.1 0.1 0.1 0 0.1 0 0.1 0.1 0 0.1 0.1 0 0 0.1 0z"/>
	<path id="Layer" class="s1" d="m665.3 247.3c-2.6 0-4.7-2.1-4.7-4.7 0-2.6 2.1-4.7 4.7-4.7 2.6 0 4.7 2.1 4.7 4.7 0 2.6-2.1 4.7-4.7 4.7z"/>
	<path id="Layer" class="s2" d="m272.2 242.4c0.6-1.1 1.8-1.5 2.7-1 1 0.6 1.2 1.9 0.6 2.9-0.6 1-1.8 1.5-2.8 0.9-0.9-0.5-1.1-1.8-0.5-2.8z"/>
	<path id="Layer" class="s1" d="m653.8 256.8q0.3-0.7 0.5-1.9c0.6-3.1 3.6-2.7 5.2-1.2q3.3 3 0.7 6.6-0.1 0.1-0.1 0.3-0.1 0.1 0 0.2 0.1 0.2 0.2 0.2 0.1 0.1 0.3 0.1c1.7 0.1 2.8 0.5 3.8 2.1q3.6 5.8 6.8 11.9c1.2 2.3 0.8 5.2-1.6 6.3-2.8 1.2-8.5-2.9-10.2-4.7q-3.2-3.5-3.7-4.1-0.2-0.2-0.5-0.3-0.3-0.1-0.5 0-0.3 0.1-0.5 0.3-0.2 0.2-0.2 0.5-0.2 0.8-0.9 1.3-0.5 0.3-0.8-0.1-1.3-1.2-1.7-2.5-0.1-0.2-0.2-0.3-0.2-0.1-0.3-0.2-0.2 0-0.4 0.1-0.2 0-0.3 0.2c-0.9 1.3-2.3 3.4-4 4.7q-2.8 2.2-3.9 3.3c-1.6 1.5-3.1 1.4-4.1-0.5q-1-1.8-0.4-4.3 1.2-4.2 3.1-10c0.6-1.9 1.4-3.4 3.3-3.9q1.7-0.4 2-0.6 0.4-0.4 0-0.7c-3.7-2.7-4.7-5.8-0.6-8.8 3.2-2.2 6.9 0.1 7.9 3.4q0.3 0.7 0.8 2.6 0.1 0.6 0.3 0z"/>
	<path id="Layer" class="s1" d="m734.4 269.6c-2.7 0-4.9-2.2-4.9-4.9 0-2.7 2.2-4.9 4.9-4.9 2.7 0 4.9 2.2 4.9 4.9 0 2.7-2.2 4.9-4.9 4.9z"/>
	<path id="Layer" class="s2" d="m269.8 282.3q1.3 0.6 1.5-0.8 0.8-5.1 1.3-6.9 0.8-3 1.8 0l2 6.7q0.1 0.2 0.2 0.3 0.2 0.2 0.4 0.3 0.2 0.1 0.4 0.1 0.2 0 0.4-0.1 6-2.4 10.4-5 0.3-0.2 1 0.2l0.3 0.2q0 0-0.2 0.2-7.2 6-7.3 6-1.8 1.9-2.8 3-0.1 0.2-0.1 0.3-0.1 0.2 0 0.4 0 0.2 0.1 0.3 0.1 0.2 0.3 0.2 5.1 3.1 7.5 4.9 2.6 2.1-0.5 0.9-3.4-1.3-9.5-2.4-0.1-0.1-0.2 0-0.1 0-0.2 0-0.1 0.1-0.1 0.2-0.1 0.1-0.1 0.1l-2.4 11.6q-0.7 3.6-1.3 0-0.5-3.1-1.1-10.9-0.1-1.4-1.5-1.3c-3.2 0.4-6.4 1.7-10 3.1q-2.3 0.9-0.5-0.8 1.7-1.6 7.5-6.3 0.2-0.2 0.3-0.4 0.2-0.3 0.1-0.5 0-0.3-0.1-0.5-0.1-0.2-0.3-0.3-4.1-2.8-6.7-6.1-1.9-2.3 0.7-0.9 5.4 2.9 8.7 4.2z"/>
	<path id="Layer" class="s2" d="m316.7 280l2.4 0.4q0.1 0 0.2 0.1 0.1 0.1 0.1 0.2 0 0.1-0.1 0.2-0.1 0.1-0.2 0.1l-2.4 0.4q-0.1 0-0.1 0-0.1 0-0.1 0.1 0 0-0.1 0 0 0.1 0 0.1l-0.4 2.4q0 0.1-0.1 0.2-0.1 0.1-0.2 0.1-0.1 0-0.2-0.1-0.1-0.1-0.1-0.2l-0.3-2.4q-0.1 0-0.1-0.1 0 0 0-0.1-0.1 0-0.1 0-0.1 0-0.1 0l-2.4-0.4q-0.1-0.1-0.2-0.1-0.1-0.1-0.1-0.2 0-0.2 0.1-0.3 0.1 0 0.2-0.1l2.4-0.3q0 0 0.1 0 0-0.1 0.1-0.1 0 0 0-0.1 0.1 0 0.1-0.1l0.4-2.4q0-0.1 0.1-0.2 0 0 0.2 0 0.1 0 0.2 0 0.1 0.1 0.1 0.2l0.3 2.4q0 0.1 0.1 0.1 0 0.1 0 0.1 0.1 0.1 0.1 0.1 0 0 0.1 0z"/>
	<path id="Layer" class="s1" d="m619.3 287.1c-2.5 0-4.6-2.1-4.6-4.6 0-2.6 2.1-4.7 4.6-4.7 2.6 0 4.7 2.1 4.7 4.7 0 2.5-2.1 4.6-4.7 4.6z"/>
	<path id="Layer" class="s1" d="m734.2 293.1c-3.5 0-6.3-2.8-6.3-6.2 0-3.5 2.8-6.3 6.3-6.3 3.4 0 6.2 2.8 6.2 6.3 0 3.4-2.8 6.2-6.2 6.2z"/>
	<path id="Layer" class="s1" d="m508.9 344.3q0.9 2.3-0.5 3.4-3.6 3-7.9 3.8c-2.6 0.5-6.6-2.7-8.3-4.6q-13.6-15.4-17.3-35.2c-1.3-7.2-0.7-14 3.1-20.2 4.5-7.5 14.6-11.4 22.8-7.5 5.5 2.7 8.1 5.7 13.4 11q2.7 2.7 5.4 5.7 42.6 48.4 63.9 71.7 9.8 10.6 17.3 17.6 6.8 6.4 14.7 11.2 11.5 6.9 23.8 13 19.4 9.6 33 15.6 10.5 4.6 17.2 6.5 5.4 1.6 9.5 1.7c2.4 0.1 6.3-1.2 8.7-2.2q7.2-3.1 13.4-4.7 1.1-0.3 0.4 0.6-8.4 11.6-14.7 20.6-1.1 1.5-3.7 4.8-2.5 3.1-4 4.8-0.2 0.2-0.4 0.4-0.3 0.1-0.5 0.2-0.3 0-0.6 0-0.3-0.1-0.6-0.2-9.1-4.9-20.5-9.8-8.1-3.4-38.9-16-10.4-4.3-20.2-9.1-22-10.7-37.1-22.5-9.6-7.5-23.9-19.8-30.5-26.2-39.2-34-5.9-5.4-7.3-6.4-1.2-0.9-1-0.4z"/>
	<path id="Layer" class="s1" d="m560.4 289.7c1.2-3.3 4.7-5.1 7.9-3.9 3.3 1.1 4.9 4.8 3.6 8.1-1.2 3.4-4.7 5.1-7.9 4-3.3-1.2-4.9-4.9-3.6-8.2z"/>
	<path id="Layer" class="s1" d="m602.6 299.3c-2.5 0-4.5-2-4.5-4.5 0-2.5 2-4.5 4.5-4.5 2.5 0 4.5 2 4.5 4.5 0 2.5-2 4.5-4.5 4.5z"/>
	<path id="Layer" class="s1" d="m524.5 299.8q10.7 2.1 19.3 7.6 3.7 2.4 5.4 6.9 0.8 2.3 0.5 7-0.5 6.8-0.5 7.1 0 0.1-0.1 0.2-0.1 0.1-0.2 0.2-0.2 0-0.3 0-0.1-0.1-0.2-0.2-8.9-10.2-20.9-24.3-1.4-1.7-3.4-3.7-1.1-1.1 0.4-0.8z"/>
	<path id="Layer" class="s1" d="m719.9 310.7c-2.7 0-4.9-2.1-4.9-4.8 0-2.7 2.2-4.9 4.9-4.9 2.6 0 4.8 2.2 4.8 4.9 0 2.7-2.2 4.8-4.8 4.8z"/>
	<path id="Layer" class="s1" d="m599.3 314.8c-3.4 0-6.1-2.8-6.1-6.2 0-3.4 2.7-6.1 6.1-6.1 3.4 0 6.2 2.7 6.2 6.1 0 3.4-2.8 6.2-6.2 6.2z"/>
	<path id="Layer" class="s1" d="m579.6 311.3c-2.4 0-4.3-2-4.3-4.4 0-2.4 1.9-4.3 4.3-4.3 2.5 0 4.4 1.9 4.4 4.3 0 2.4-1.9 4.4-4.4 4.4z"/>
	<path id="Layer" class="s2" d="m342.3 316.3c-0.8-2.1-0.9-3.7-3.2-4.4q-1.4-0.4-2.9-0.8-2.3-0.8 0.1-1.1c4.5-0.7 4.7-2.3 5.9-5.7q0.3-0.9 0.7-0.1 0.9 2.1 1.2 3.8 0.2 1 2.2 1.4 0.1 0.1 3.7 0.9 0.6 0.1 0 0.3l-4.8 1.4q-0.2 0.1-0.5 0.2-0.2 0.1-0.4 0.3-0.2 0.2-0.4 0.5-0.1 0.2-0.2 0.5l-0.8 2.7q-0.3 0.9-0.6 0.1z"/>
	<path id="Layer" class="s1" d="m737.7 314.5c-2.6 0-4.8-2.1-4.8-4.8 0-2.6 2.2-4.7 4.8-4.7 2.6 0 4.8 2.1 4.8 4.7 0 2.7-2.2 4.8-4.8 4.8z"/>
	<path id="Layer" class="s2" d="m312.7 321.3q-0.6 0.6-1.1 1.7-0.8 2-1.5 0-0.8-2.1-2.9-2.9-0.2-0.1-0.2-0.2-0.1-0.1-0.1-0.3 0-0.1 0-0.2 0.1-0.2 0.2-0.2 1.2-0.6 2.2-1.5 0.9-0.8 1.5-2 0.1-0.1 0.2-0.2 0.2-0.1 0.3-0.1 0.2 0.1 0.3 0.2 0.1 0 0.1 0.2 0.7 2.2 2.8 3.1 1.9 0.8-0.1 1.5-1.1 0.4-1.7 0.9z"/>
	<path id="Layer" class="s1" d="m726.8 335.2c-3.5 0-6.4-2.9-6.4-6.5 0-3.6 2.9-6.5 6.4-6.5 3.6 0 6.5 2.9 6.5 6.5 0 3.6-2.9 6.5-6.5 6.5z"/>
	<path id="Layer" class="s2" d="m400.5 336.5q0.1 0 0.1 0.1 0 0.1-0.1 0.1-11.6 4.5-26.1 13.9-16 10.2-28.6 21.5-2.6 2.3-0.8-0.6 10.4-16.4 27.8-25.2 12.4-6.2 27.7-9.8z"/>
	<path id="Layer" class="s2" d="m343.9 351.6l0.4-1.1q0-0.1 0-0.1 0.1-0.1 0.1-0.2 0.1 0 0.2-0.1 0.1 0 0.2-0.1 0 0 0.3 0.1 0.2 0.1 0.1 0.4-0.1 2.3 2.5 2.5 0.1 0 0.1 0.2l0.1 0.3q0 0.3-0.3 0.2-2.4-0.6-2.9 1.6-0.1 0.6-0.4 0.1-0.2-0.2-0.2-0.5-0.1-0.4-0.4-0.7-0.3-0.5-1.2-1-0.8-0.4 0.1-0.7l0.7-0.4q0.1-0.1 0.2-0.1 0.1-0.1 0.2-0.1 0-0.1 0.1-0.2 0-0.1 0.1-0.2z"/>
	<path id="Layer" class="s1" d="m686.8 364.3c-2.6 0-4.7-2.1-4.7-4.7 0-2.6 2.1-4.7 4.7-4.7 2.6 0 4.7 2.1 4.7 4.7 0 2.6-2.1 4.7-4.7 4.7z"/>
	<path id="Layer" class="s1" d="m654.6 377.7c-2.2 0-4-1.8-4-4 0-2.2 1.8-4 4-4 2.3 0 4.1 1.8 4.1 4 0 2.2-1.8 4-4.1 4z"/>
	<path id="Layer" class="s1" d="m644.8 398c-2.3 0-4.1-1.9-4.1-4.1 0-2.3 1.8-4.1 4.1-4.1 2.2 0 4 1.8 4 4.1 0 2.2-1.8 4.1-4 4.1z"/>
	<path id="Layer" fill-rule="evenodd" class="s1" d="m580 640.6q5.9-6.2 6.1-6.5 8.6-10.5 17.6-19.7 0.8-0.8 0.6 0.3-1.8 12.3-1.3 25.8c1 28.3 5.7 58 19.1 82.7q7.9 14.6 18.8 25.3 5.8 5.6 7.1 7 1.2 1.1-0.4 0.9-1.7-0.3-3.3-0.9-9.5-3.9-11.5-4.8-22.8-10.3-39.6-28.4-18.8-20.4-22.7-49.1-0.5-3.7-1-11.4-0.1-2.5-1.3-4.5 0-0.1-0.2-0.2-0.1-0.1-0.3-0.1-0.1-0.1-0.3 0-0.2 0-0.3 0.1-2.7 2.2-4.8 4.7-6.2 7.1-17.1 19.7c-0.8 0.9-1.4 2.5-1.6 3.8q-3.9 25.3-17.2 47.3-1.3 2.1-5.8 7.9-3.5 4.5-5.3 8.2-4.2 8.5-8.3 21.8-12 38.7-22.2 75c-5.2 18.6-9.6 36.1-11.9 54.5-2.7 21 6.6 42.4 14.3 62.4q3.9 10.2 5.8 13.2 3.5 5.6 12.8 8.6 9.9 3.2 13.4 4.5 0.1 0 0.2 0.1 0 0.1 0 0.3 0 0.1 0 0.2-0.1 0.1-0.2 0.1-2 0.7-12.9 2.9-8.4 1.7-18.3 2c-4.8 0.1-9.4-0.3-13.8-3.2q-1.8-1.1-2.6-4.6-0.2-0.8-2.4-7.9-3-9.7-8.8-18.2-3.5-5.1-8.8-7.5-0.2-0.1-0.4-0.1-0.2 0-0.4 0.1-0.1 0.1-0.2 0.3-0.2 0.2-0.2 0.4-2 17.2-2.5 37.1 0 0.1-0.1 0.2 0 0.1-0.1 0.2-0.1 0.1-0.2 0.2-0.1 0.1-0.2 0.1l-0.4 0.1q-0.3 0-0.5 0-0.3-0.1-0.5-0.2-0.2-0.1-0.3-0.3-0.1-0.3-0.2-0.5-2-21.3-9.4-43.8c-1.5-4.6-2.3-9.5-0.3-14q0.2-0.4 6-11.8 2.7-5.2 4.1-11 2.1-8.3 4.2-25.7 2.5-20 7-53 1.7-12.2 2.2-22.5 0-0.8 1.3-2.2 7.5-7.9 11.7-16.3c4-8.3 3.4-15.9 2.1-24.8q-0.1-0.3-0.1-0.5 0.1-0.2 0.1-0.5 0.1-0.2 0.2-0.4 0.1-0.3 0.3-0.4 20.7-24.2 41.1-49.7 0.1-0.1 0-0.2-0.1-0.1-0.2 0-18.8 21.1-35.1 39.9-2.5 2.9-5.4 5.4-0.2 0.2-0.4 0.2-0.3 0.1-0.6 0-0.3-0.1-0.5-0.3-0.2-0.2-0.2-0.5-2.1-7.2-6-12.7-0.1-0.2-0.2-0.4-0.1-0.3-0.1-0.5 0-0.3 0.1-0.5 0.1-0.2 0.2-0.4 11-13.4 28.1-33 27.4-31.5 60.5-70.9c2.8-3.4 6.5-8.3 9.9-12.2q2.5-2.8 4-4.9 5.2-7 14.9-18.4 8-9.4 12.8-15.4 11.5-14.4 22.6-27.7 6.6-8 12.6-15.6 9.6-12.2 36.3-45.8 0.2-0.2 0.3-0.5 0.1-0.3 0.2-0.5 0-0.3-0.1-0.6 0-0.3-0.1-0.5-3.5-7.3-9.3-14-1.6-1.8-6.4-6.4-3.3-3-6.9-6.1-25.3-21.8-29.5-25.6-17.1-15.2-35.9-34.7-0.8-0.8-0.8-1-0.7-1.5 0.4-0.8c6.3 4.1 11.6 7.4 17.9 10.6q16.7 8.6 52.1 24.7 2.3 1.1 3.7 2.8 15.1 18.9 21.9 25.1c3.3 3 5.7 4.9 9.7 6.7q8.3 3.5 11 4.8 5.5 2.5 6.3 7.4 0.5 2.3-2.2 3.7-1.1 0.5-0.6 1.7c1.2 3.4 3.2 9.4 2.4 12.8-0.5 2.4-2.9 2.8-4.2 4.8q-2 3.3-2.6 3.6-3.8 2.6-6.3 5.9c-3 3.8-5.7 6-9.4 7.5q-0.1 0.1-0.2 0-0.1 0-0.2-0.1-0.1 0-0.1-0.2-0.1-0.1 0-0.2 1.5-6.7 1.6-7.6 0.6-3.7-0.9-7.1-0.1-0.2-0.2-0.3-0.2-0.1-0.4-0.1-0.2 0-0.4 0-0.1 0.1-0.2 0.3-4.8 7.7-6.7 10.2-38.7 50.8-70.4 87.4-16 18.6-22.8 26.8 0 0 0 0 0 0.1 0 0.1 0.1 0 0.1 0 0 0 0 0zm-31.4 13q24.4-24.1 47.7-50.5 24.9-28.1 54-65.8 11.9-15.2 23.5-33 0.2-0.2-0.1-0.4l-0.2-0.1q-0.1-0.1-0.2 0-12 15.7-27.2 34-4.4 5.2-46.1 55.6-7.3 8.8-12.9 15.3-21.2 25-25.6 30.1-4.3 4.9-13.1 14.7-2.3 2.5 0.2 0.1z"/>
	<path id="Layer" fill-rule="evenodd" class="s1" d="m546.5 549.6q-2.4 11.7-5.4 19.5-12 31.5-32.4 60.1c-14.7 20.6-30.9 37.5-52 50.6q-5.6 3.5-15.5 8.1c-20.8 9.7-42.5 22.4-56.9 41.6q-6.9 9.3-10.7 20.9-0.3 1.1-0.5 0.1-0.1-0.3-0.2-1-0.2-5.9 1.8-16.2 1.5-7.6 4.8-15.5 5.9-14.3 14-26.1 19-27.7 48.1-54.9c7.8-7.2 19.8-16 27.9-23.8q43.9-42.3 68.1-98.6 4.4-10.2 7.3-20.1 0-0.1 0-0.1 0-0.1-0.1-0.1 0 0 0 0.1-8.6 21.9-22.6 41.8-4.2 5.8-12 16-19.7 25.3-42.3 46.7c-27.1 25.7-62.1 48-100.9 43.4q-12.1-1.5-25.7-6-0.4-0.2-9.3-3.6-13.8-5.3-29.5-7.8-25.1-4.1-47.2 5.8-8.7 4-17.1 10.2-10.6 8-17.2 19.4-0.8 1.4-0.5-0.2c4.8-23.6 21.9-39.5 43.4-49q27.6-12.3 59.6-13.4 16.9-0.5 18.1-0.7 23.3-2.2 45.8-11.4c28.7-11.7 54.6-30.8 76.6-52.4q27.4-26.8 49.7-58.2 0.1-0.1-0.1-0.3-0.1-0.1-0.3 0.1-28.7 34.8-64.8 65.4-21.1 17.8-43 29.5-38.9 20.8-82.1 9.8-5.3-1.3-28.5-8.1-7.1-2.1-15.9-2.7c-16.3-1-30.5 6.4-34.5 23.2q0 0 0 0 0 0-0.1 0.1 0 0 0 0.1-0.1 0-0.1 0.1-0.1 0-0.1 0.1-0.1 0-0.1-0.1 0.2-11.4 6.3-20.4 4.6-7 13.2-11 11.2-5.3 25.2-6.5 11-0.9 19.8-0.5c10.8 0.5 21.1 0.9 31.9-0.8q22.5-3.3 43.8-12 21.1-8.5 44.5-24.3 19.5-13.3 38.5-27.5 9.6-7.3 20.4-16.9 11.9-10.7 21.9-24.1c1.5-2 2.7-4.3 3.9-6.4q0.2-0.2 0.3-0.3 0.2-0.2 0.4-0.3 0.1-0.2 0.3-0.3 0.2-0.1 0.5-0.2 15.1-4.5 30.3 0.4 19.6 6.3 29.6 24.1 0.6 1.1 0.5-0.2-1.7-13.6-2.2-26.9-0.2-3.9 2.1-0.7 7 10.2 11.5 23.1 8.8 25.6 12.9 51.7 4.7 30.7 5.2 61.8c0 3.3 0.5 4.9-1.8 7.7q-16.5 20.1-25 29.9c-3.8 4.2-7.6 9.9-10.9 13.8q-37.6 43.6-43.6 50.2-10.7 12-23.7 27.3c-2 2.3-3.3 4.7-5.5 6.4q-0.8 0.7-0.7-0.5 4.1-22.8 5.1-45.9 0.2-3.7 0.1-6-0.1-0.6-0.6-0.8l-1.5-0.4q0 0 0 0 0 0 0 0-0.1 0-0.1-0.1 0.1 0 0.1 0 34.6-39.7 46.9-89.4 2.3-9 2.9-16.4 0.1-0.6-0.1 0zm-51.6-81.2q-10.4 10.1-23.2 23.8-1 1.1 0.2 0.3 14.3-9.8 25.9-21.1 11.6-11.3 21.7-25.3 0.9-1.2-0.2-0.2-14.1 12.5-24.4 22.5zm86.5 26.8q-0.1 0.1-0.1 0.1 2.5 24 0.4 47.5c-2.1 23.4-6.7 49.2-11.9 74.2q-0.1 0.6 0.4 0.3 1.2-0.8 2.1-2.3c3.2-5.7 5.3-10.4 6.9-16.7q13.3-51 2.4-103-0.1-0.3-0.2-0.1zm-19.1 20.8q0 0-0.1-0.3 0 0 0 0-0.1-0.1-0.1-0.1 0 0-0.1 0.1 0 0 0 0-1 16-4.8 30.3-5.1 19.1-8.6 29.1-8.3 23.7-13 42.1-0.8 2.9 0.9 0.4c3.5-5.5 7-11.6 9.6-17.7q10.2-23.4 13.9-48.6 2.6-17.8 2.3-35.3z"/>
	<path id="Layer" class="s2" d="m497.8 471.4q-11.6 11.3-25.9 21.1-1.2 0.8-0.2-0.3 12.8-13.7 23.2-23.7 10.3-10.1 24.4-22.6 1.1-1 0.2 0.2-10.1 14-21.7 25.3z"/>
	<path id="Layer" class="s2" d="m581.4 495.2q0.1-0.2 0.2 0.1 10.9 52-2.4 103c-1.6 6.3-3.7 11-6.9 16.7q-0.9 1.5-2.1 2.3-0.5 0.3-0.4-0.3c5.2-25 9.8-50.8 11.9-74.2q2.1-23.5-0.4-47.4 0-0.1 0.1-0.2z"/>
	<path id="Layer" class="s2" d="m548.6 653.6q-2.5 2.4-0.2-0.1 8.8-9.8 13.1-14.7 4.4-5.1 25.6-30.1 5.6-6.5 12.9-15.3 41.7-50.4 46.1-55.6 15.2-18.3 27.2-34 0.1-0.1 0.2 0l0.2 0.1q0.3 0.2 0.1 0.4-11.6 17.8-23.5 33.1-29.1 37.6-54 65.7-23.3 26.4-47.7 50.5z"/>
	<path id="Layer" class="s2" d="m562.3 516q0.3 17.5-2.3 35.3-3.7 25.2-13.9 48.6c-2.6 6.1-6.1 12.2-9.6 17.7q-1.7 2.5-0.9-0.4 4.7-18.4 13-42.1 3.5-10 8.6-29.1 3.8-14.3 4.8-30.3 0 0 0 0 0.1-0.1 0.1-0.1 0 0 0.1 0.1 0 0 0 0 0.1 0.3 0.1 0.3z"/>
	<path id="Layer" class="s1" d="m289.2 659.5c-3.4 0-6.2-2.7-6.2-6.1 0-3.5 2.8-6.2 6.2-6.2 3.4 0 6.1 2.7 6.1 6.2 0 3.4-2.7 6.1-6.1 6.1z"/>
	<path id="Layer" class="s1" d="m246.6 673.5c-3.2 0-5.8-2.6-5.8-5.9 0-3.2 2.6-5.8 5.8-5.8 3.3 0 5.9 2.6 5.9 5.8 0 3.3-2.6 5.9-5.9 5.9z"/>
	<path id="Layer" class="s1" d="m272.2 685.6c-2.4 0-4.3-1.9-4.3-4.3 0-2.4 1.9-4.3 4.3-4.3 2.4 0 4.3 1.9 4.3 4.3 0 2.4-1.9 4.3-4.3 4.3z"/>
	<path id="Layer" class="s1" d="m254.7 723.5l-0.2-0.3q-0.2-0.2-0.3-0.2-4.5-0.4-6.4-3.4-2.9-4.9-5.4-9.1-1.7-3-2-5.5 0-0.4 0.1-0.9 0.1-0.4 0.4-0.8 0.2-0.4 0.6-0.6 0.4-0.3 0.8-0.4 4.3-1 8.6 2.3 4.8 3.6 6.2 5.7 1 1.5 2.6 2.9 1.2 1.1 0.7-0.4-0.5-1.3-2.1-4.6 0-0.1 0-0.2 0.1-0.2 0.3-0.1 0.1 0 0.1 0 2.3 2.9 3.6 6.4 0 0.1 0.1 0.1 0 0.1 0.1 0.1 0.1 0 0.1 0 0.1 0 0.2 0 4.5-3.4 5.8-4.6c3.9-3.3 8.1-4.5 12.9-4.1q1.9 0.2 2.6 2.8 0.2 0.8-1.2 3-1.9 3-9.6 11.3c-1.4 1.4-3.2 2-4.9 1.7q-3-0.6-0.4 1.2 0.1 0.2 1.6 1 0.1 0.1 0.3 0.3 0.1 0.1 0.2 0.3 0 0.2 0 0.4 0 0.1 0 0.3-1.4 4.2-5.6 4.5-0.6 0.1-0.9-0.3c-2-1.9-1.9-5.2-2.5-9.2q0-0.5-0.6-0.3-0.3 0.1-0.3 0.4-0.4 4.1-2.7 7.5-0.3 0.3-0.6 0.6-0.3 0.2-0.7 0.3-0.4 0.1-0.8 0-0.4 0-0.7-0.2-3-1.6-3.6-4.9 0-0.1 0-0.2 0-0.1 0-0.2 0.1-0.2 0.1-0.3 0.1-0.1 0.2-0.2 1.2-1.2 3.2-2 0.2 0 0.1-0.1z"/>
	<path id="Layer" class="s1" d="m265.6 710.9q-0.9 1.1-1.2 1.3-0.3 0.2-0.4 0.1 0-0.1-0.1-0.1 0-0.1 0.1-0.2 0.9-1.3 1.2-1.5 0.2-0.3 1.2-1.4 0.1-0.1 0.2-0.1 0 0 0.1 0.1 0.1 0 0 0.3-0.1 0.4-1.1 1.5z"/>
	<path id="Layer" class="s1" d="m242.5 753c-2.8 0-5.1-2.2-5.1-5 0-2.8 2.3-5.1 5.1-5.1 2.8 0 5 2.3 5 5.1 0 2.8-2.2 5-5 5z"/>
	<path id="Layer" fill-rule="evenodd" class="s1" d="m382 863.6q6.2-5.2-0.4-0.6-20.1 14.1-37.4 31.5-14.5 14.6-28.5 33-16.1 21.2-24.6 39.7c-0.8 1.9-1.2 3.5-2.1 5q-0.5 0.8-0.5-0.1 0.4-6.8 2.1-15.5 2.7-14.4 10.1-26.4 10.5-17.2 26.3-32.6 0.1 0 0.1-0.2l-0.2-0.3q-0.1-0.2-0.3 0-29.3 21.7-51.6 50.1-7.9 10.1-13.4 20.9-1 1.9-0.6-0.2 1.9-10.7 4.4-18.6c4.3-13.6 12.4-26.2 21.5-36.9q13.5-15.9 31.8-31.2 38.4-32.2 82-63.5 1.4-1-0.2-0.3-2.4 1.1-5.4 2.9-34.6 20.5-63 40-38 26.1-76 55.3 0 0 0 0 0.5 0.7 0 0-0.1-0.1 0-0.1 11.1-13.6 25.2-26.7 12.7-12.1 23.9-20.9 11.6-9.1 24.7-18.2 0.2-0.1 0.2-0.2l-0.3-0.1q-0.1-0.1-0.3-0.1-0.1-0.1-0.1-0.1-0.1 0-0.2-0.1 0 0 0 0-18.1 8.7-36.1 16.8-31.6 14.1-63.5 25-0.1 0-0.1 0-0.1 0-0.1 0-0.1 0-0.1 0-0.1-0.1-0.1-0.1-0.1-0.2-0.1-0.4 0.1-0.2 0.3-0.3 19.5-13 41.7-25 31.3-17 67.8-35 43-21.2 72.5-32.9 0.5-0.2 0.8 0.2 8.3 11.5 22.4 17.9c3 1.4 5.7 2.6 8.4 2.8q1.9 0.1 0.2-0.7-26.1-11.6-27.7-40-0.2-3.1 0.9-4.5 1.8-2.4 3.5-4.1 0.1-0.2 0.4-0.3 0.3-0.1 0.5 0 0.3 0.1 0.5 0.2 0.2 0.2 0.2 0.5 4.4 15.1 15.4 26.5 7.7 8.1 12.4 12.2 0 0.1 0 0.1l0.3-0.2q0.2-0.1 0-0.3-6.9-6.6-9.5-10.7-2.5-3.8-7-11.9c-2.7-4.8-6.6-10.4-10.2-15.4-1.6-2.2-0.1-3.9 1.6-5.2q1.1-0.8 1.6-1.5 3.4-4.3 7.8-7.3 0.1-0.1 0.2-0.1 0.1 0 0.3 0 0.1 0 0.1 0.1 0.1 0 0.2 0.1 4.1 7.1 10.6 12.2 10.2 8.2 16.3 13.7c2 1.7 3.4 3.5 4.9 5.8q0.7 1 0.7-0.2c0.2-4.7-3.5-10-6.4-12.8q-5-4.7-15-12.5c-2.3-1.7-6.8-5.6-8.4-8.7q-0.2-0.3-0.2-0.6 0-0.2 0.2-0.5 0.1-0.2 0.3-0.4 0.2-0.1 0.5-0.2c11.3-2.1 22 2.2 30.3 10 7.5 7.1 7.4 18.1 3.3 27q-3.1 6.8-6.4 11-1.6 2.1-6.4 7.7-2.8 3.4-7.2 7.1-5.1 4.3-11.2 8.9-2 1.7-2.7 4.3-2.3 8.4-3.7 15.8c-1.2 6.1-3.3 13.8-4.6 18q-3.5 12.3-7.7 20.3-1.3 2.5-5.9 11.5-3.8 7.5-5.4 11.9-3.9 11.4-4.9 24.4-0.2 3.4-0.8 15.7 0 1.8-0.5 0-4.8-18.1-1-36c2.1-9.9 5.2-17.8 9.9-31.1q0.6-1.9 5.8-16.1 7.2-19.9 12.3-40.4 0-0.1 0-0.1 0 0 0-0.1 0 0-0.1 0 0 0 0 0-0.2-0.1-0.2 0.1-6.1 20.4-14.5 40.1c-2.7 6.4-5.6 12.6-9.6 17.9-3 4-6.7 9.6-9.1 13.4q-15 24.6-21.8 53.1-3.1 13-3.8 26.6-0.1 2.4-0.5 0-3.6-21.6 0.5-42 1-4.7 4-14.3 1.8-6 5.1-13.8 5.6-13 11.9-25.7 3.3-6.5 6.3-13.1 0.2-0.2-0.1-0.2h-0.2q-0.1 0-0.1 0-10.1 16.9-19.9 32.3-3.7 6-15.4 26.3c-13.5 23.6-24.3 48.4-28.3 75.2q-0.1 0.6-0.4 0.1-8.9-19.4-9.8-39.9c-0.9-20 6.6-36.8 19.3-53.4q8.9-11.6 19.6-23.1 10.3-11.1 17.7-17.2zm74.8-72.1q0.3 0 0.3 0 0.4 0.2 0.4-0.2-0.1-0.2-0.4-0.4-9.6-6.4-17.2-13.9-0.2-0.1-12.2-11.8-1-0.9-1-0.9 0 0-0.1 0.1 0 0.1 0.1 0.2 3.3 3.6 6.4 8.5 3.4 5.4 4.6 6.8 4.2 5.2 5.3 6.1 6 4.5 13.8 5.5z"/>
	<path id="Layer" class="s1" d="m290.9 773.2c-2.5 0-4.6-2.1-4.6-4.6 0-2.6 2.1-4.7 4.6-4.7 2.6 0 4.7 2.1 4.7 4.7 0 2.5-2.1 4.6-4.7 4.6z"/>
	<path id="Layer" class="s2" d="m456.8 791.5q-7.8-1-13.8-5.5-1.1-0.9-5.3-6.1-1.2-1.4-4.6-6.8-3.1-4.9-6.4-8.5-0.1-0.1-0.1-0.2 0.1 0 0.1-0.1 0 0 1 0.9 12 11.7 12.2 11.8 7.6 7.5 17.2 13.9 0.3 0.2 0.4 0.4 0 0.4-0.4 0.2 0 0-0.3 0z"/>
	<path id="Layer" class="s1" d="m304.2 783.4c-3.2 0-5.9-2.7-5.9-6 0-3.2 2.7-5.9 5.9-5.9 3.3 0 6 2.7 6 5.9 0 3.3-2.7 6-6 6z"/>
	<path id="Layer" class="s1" d="m241.6 784.5c0.2-1 0.3-2.6 1-3.7q2.9-4.4 7.6-2.3c2.3 1 3.4 3.3 2.7 5.8-0.4 1.2-1.8 2-3 2.6q-1.7 0.8 0.2 1.2c2.3 0.5 3.8 1.4 4.9 3.8q2.3 4.8 4.6 11.7 1.4 3.7-1.1 5.2-0.1 0.1-0.2 0.1-0.2 0-0.3 0.1-0.1 0-0.2 0-0.1 0-0.2 0-2.9-0.7-5.1-2.7-2.4-2.2-8.3-6.5-0.5-0.4-0.6 0.2l-0.2 1.6q0 0.6-0.3 0.9l-2.4 2.4q-0.1 0-0.1 0 0 0-0.1-0.1 0 0 0 0 0-0.1 0-0.1 1.7-2.1 1.5-4.8-0.1-0.1-0.1-0.2-0.1-0.2-0.3-0.2-0.1-0.1-0.3 0-0.1 0-0.2 0.1-5.4 6.1-11 9.7-3.6 2.3-5.9-0.9-0.3-0.5-0.3-1c0.4-4.5 3.2-9.3 6.1-15.2 1-2.2 2.4-2.7 4.5-3.3q1.3-0.4 0.2-1.2c-1.7-1.1-2.6-2.2-1.9-4.2q1-2.7 3.9-3.5 0.4 0 0.7 0 0.4 0 0.8 0.1 0.3 0.1 0.6 0.3 0.3 0.2 0.6 0.5 1.1 1.5 1.8 3.6 0.2 0.8 0.4 0z"/>
	<path id="Layer" class="s1" d="m265.8 787.9c-1.1-2.5-0.1-5.4 2.3-6.5 2.3-1 5.1 0.1 6.3 2.6 1.1 2.5 0.1 5.3-2.3 6.4-2.3 1.1-5.2-0.1-6.3-2.5z"/>
	<path id="Layer" class="s1" d="m322.5 827q2.3-1.4-0.4-1.1-0.5 0.1-13.3 1.6-9.8 1.2-25.5 0.8-0.1 0-0.1-0.1-0.1 0-0.2 0 0-0.1 0-0.2-0.1 0-0.1-0.1v-0.3q-0.1-0.5 0.4-0.6 4.4-0.6 7.7-0.9 5.1-0.5 7.5-1 17.4-4 29.7-7.5 5.8-1.7 18.8-6.8 24-9.3 51.1-16.9 4.5-1.3 10.1-4.1 0.1 0 0.2 0 0-0.1 0.1 0 0 0 0.1 0 0 0.1 0 0.1l2.6 5.6q0.1 0.2-0.1 0.3-40.9 15.3-79.5 33.4-5.5 2.6-17.8 9.1-9.1 4.7-20.4 10.1-19.9 9.4-41.6 8.2-0.1-0.1-0.9 0-0.7 0.1-0.9 0-1.2-0.7 0.2-1.1 19.4-5.5 34.2-10.1 6.1-2 10.3-3.8 7-3 9.9-4.7 10.4-6.2 10.7-6.4c2.3-1.4 5.1-2.3 7.2-3.5z"/>
	<path id="Layer" class="s1" d="m240.7 812.8c0.2-2.8 2.6-4.9 5.3-4.6 2.6 0.2 4.6 2.6 4.3 5.4-0.2 2.8-2.6 4.9-5.2 4.7-2.7-0.3-4.7-2.7-4.4-5.5z"/>
	<path id="Layer" class="s1" d="m298.9 820.1c-1.9 0-3.4-1.6-3.4-3.5 0-1.9 1.5-3.4 3.4-3.4 1.9 0 3.5 1.5 3.5 3.4 0 1.9-1.6 3.5-3.5 3.5z"/>
	<path id="Layer" class="s1" d="m277.4 836.9c-2.8 0-5.1-2.2-5.1-5 0-2.8 2.3-5 5.1-5 2.7 0 5 2.2 5 5 0 2.8-2.3 5-5 5z"/>
	<path id="Layer" class="s1" d="m300.9 832.5c2.7 4.5-3.9 9.1-6.4 3.8q-0.9-1.7 0.2-3.3c0.9-1.5 4.1-1.3 5.4-1q0.6 0 0.8 0.5z"/>
	<path id="Layer" class="s1" d="m410.3 965.3c-2.1 0-3.8-1.6-3.8-3.7 0-2.1 1.7-3.8 3.7-3.8 2.1 0 3.8 1.7 3.8 3.8 0 2.1-1.7 3.7-3.8 3.7z"/>
	<path id="Layer" class="s1" d="m361.2 969.8c-2.9 2.4-7 2-9.3-0.8-2.3-2.8-1.8-6.9 1-9.3 2.9-2.3 7-1.9 9.3 0.9 2.3 2.8 1.8 6.9-1 9.2z"/>
	<path id="Layer" class="s1" d="m391 967c-2.3 0-4.2-1.9-4.2-4.3 0-2.3 1.9-4.2 4.2-4.2 2.3 0 4.2 1.9 4.2 4.2 0 2.4-1.9 4.3-4.2 4.3z"/>
	<path id="Layer" class="s1" d="m428.2 979.9c0-2.2 1.5-4 3.5-4.1 2-0.1 3.7 1.7 3.7 3.9 0.1 2.2-1.4 4-3.4 4-2 0.1-3.7-1.6-3.8-3.8z"/>
</svg>