<svg width="49" height="48" viewBox="0 0 49 48" fill="none" xmlns="http://www.w3.org/2000/svg">
<path d="M24.6681 28C29.0801 28 32.6681 24.412 32.6681 20C32.6681 15.588 29.0801 12 24.6681 12C20.2561 12 16.6681 15.588 16.6681 20C16.6681 24.412 20.2561 28 24.6681 28ZM24.6681 16C26.8741 16 28.6681 17.794 28.6681 20C28.6681 22.206 26.8741 24 24.6681 24C22.4621 24 20.6681 22.206 20.6681 20C20.6681 17.794 22.4621 16 24.6681 16Z" fill="#3C91CC"/>
<path d="M23.5081 43.628C23.8466 43.8697 24.2522 43.9997 24.6681 43.9997C25.0841 43.9997 25.4897 43.8697 25.8281 43.628C26.4361 43.198 40.7261 32.88 40.6681 20C40.6681 11.178 33.4901 4 24.6681 4C15.8461 4 8.66814 11.178 8.66814 19.99C8.61014 32.88 22.9001 43.198 23.5081 43.628ZM24.6681 8C31.2861 8 36.6681 13.382 36.6681 20.01C36.7101 28.886 27.8921 36.856 24.6681 39.47C21.4461 36.854 12.6261 28.882 12.6681 20C12.6681 13.382 18.0501 8 24.6681 8Z" fill="#3C91CC"/>
</svg>
