<svg width="48" height="48" viewBox="0 0 48 48" fill="none" xmlns="http://www.w3.org/2000/svg">
<path d="M8.00125 42C8.16067 42.0193 8.32183 42.0193 8.48125 42L16.4812 40C16.8361 39.9157 17.1612 39.7359 17.4212 39.48L42.0012 14.8201C42.7463 14.0706 43.1644 13.0568 43.1644 12.0001C43.1644 10.9433 42.7463 9.9295 42.0012 9.18005L38.8412 6.00005C38.4698 5.62815 38.0286 5.33311 37.543 5.13181C37.0574 4.93051 36.5369 4.8269 36.0112 4.8269C35.4856 4.8269 34.9651 4.93051 34.4795 5.13181C33.9939 5.33311 33.5527 5.62815 33.1812 6.00005L8.60125 30.5801C8.34282 30.8413 8.15674 31.1652 8.06125 31.5201L6.06125 39.5201C5.98936 39.7788 5.97034 40.0494 6.0053 40.3157C6.04027 40.582 6.12851 40.8385 6.26477 41.07C6.40103 41.3014 6.5825 41.5031 6.79838 41.6629C7.01425 41.8227 7.26009 41.9373 7.52125 42C7.68067 42.0193 7.84183 42.0193 8.00125 42ZM36.0012 8.82005L39.1812 12.0001L36.0012 15.1801L32.8412 12.0001L36.0012 8.82005ZM11.8212 33.0201L30.0012 14.8201L33.1812 18.0001L14.9812 36.2001L10.7612 37.2401L11.8212 33.0201Z" fill="black"/>
</svg>
