<svg width="49" height="48" viewBox="0 0 49 48" fill="none" xmlns="http://www.w3.org/2000/svg">
<path d="M35.7447 24.5859C35.5592 24.4 35.3388 24.2525 35.0961 24.1519C34.8535 24.0513 34.5934 23.9995 34.3307 23.9995C34.0681 23.9995 33.808 24.0513 33.5654 24.1519C33.3227 24.2525 33.1023 24.4 32.9167 24.5859L29.7287 27.7739C28.2507 27.3339 25.4927 26.3339 23.7447 24.5859C21.9967 22.8379 20.9967 20.0799 20.5567 18.6019L23.7447 15.4139C23.9306 15.2283 24.0781 15.0079 24.1787 14.7653C24.2794 14.5227 24.3311 14.2626 24.3311 13.9999C24.3311 13.7372 24.2794 13.4772 24.1787 13.2345C24.0781 12.9919 23.9306 12.7715 23.7447 12.5859L15.7447 4.58591C15.5592 4.40002 15.3388 4.25255 15.0961 4.15193C14.8535 4.0513 14.5934 3.99951 14.3307 3.99951C14.0681 3.99951 13.808 4.0513 13.5654 4.15193C13.3227 4.25255 13.1023 4.40002 12.9167 4.58591L7.49275 10.0099C6.73275 10.7699 6.30475 11.8139 6.32075 12.8799C6.36675 15.7279 7.12075 25.6199 14.9167 33.4159C22.7127 41.2119 32.6047 41.9639 35.4547 42.0119H35.5107C36.5667 42.0119 37.5647 41.5959 38.3207 40.8399L43.7447 35.4159C43.9306 35.2303 44.0781 35.0099 44.1787 34.7673C44.2794 34.5247 44.3311 34.2646 44.3311 34.0019C44.3311 33.7392 44.2794 33.4792 44.1787 33.2365C44.0781 32.9939 43.9306 32.7735 43.7447 32.5879L35.7447 24.5859ZM35.4907 38.0099C32.9947 37.9679 24.4547 37.2979 17.7447 30.5859C11.0127 23.8539 10.3607 15.2839 10.3207 12.8379L14.3307 8.82791L19.5027 13.9999L16.9167 16.5859C16.6817 16.8208 16.5088 17.1106 16.4139 17.4291C16.3189 17.7475 16.3047 18.0846 16.3727 18.4099C16.4207 18.6399 17.5947 24.0939 20.9147 27.4139C24.2347 30.7339 29.6887 31.9079 29.9187 31.9559C30.2438 32.0258 30.5813 32.0128 30.9 31.9181C31.2188 31.8234 31.5086 31.65 31.7427 31.4139L34.3307 28.8279L39.5027 33.9999L35.4907 38.0099Z" fill="#3C91CC"/>
</svg>
