<svg width="48" height="48" viewBox="0 0 48 48" fill="none" xmlns="http://www.w3.org/2000/svg">
<path d="M38 16.0002H34V22.0002H28V26.0002H34V32.0002H38V26.0002H44V22.0002H38V16.0002ZM8 16.0002C7.97537 17.0575 8.16546 18.1088 8.55878 19.0905C8.9521 20.0723 9.54047 20.964 10.2883 21.7119C11.0361 22.4597 11.9279 23.0481 12.9096 23.4414C13.8914 23.8347 14.9427 24.0248 16 24.0002C17.0573 24.0248 18.1086 23.8347 19.0904 23.4414C20.0721 23.0481 20.9639 22.4597 21.7117 21.7119C22.4595 20.964 23.0479 20.0723 23.4412 19.0905C23.8345 18.1088 24.0246 17.0575 24 16.0002C24.0246 14.9429 23.8345 13.8915 23.4412 12.9098C23.0479 11.9281 22.4595 11.0363 21.7117 10.2885C20.9639 9.54064 20.0721 8.95227 19.0904 8.55895C18.1086 8.16563 17.0573 7.97554 16 8.00017C14.9427 7.97554 13.8914 8.16563 12.9096 8.55895C11.9279 8.95227 11.0361 9.54064 10.2883 10.2885C9.54047 11.0363 8.9521 11.9281 8.55878 12.9098C8.16546 13.8915 7.97537 14.9429 8 16.0002ZM20 16.0002C20.0257 16.5323 19.9399 17.0639 19.748 17.5608C19.556 18.0578 19.2623 18.5091 18.8856 18.8858C18.5089 19.2625 18.0576 19.5562 17.5606 19.7481C17.0637 19.94 16.5321 20.0259 16 20.0002C15.4679 20.0259 14.9363 19.94 14.4394 19.7481C13.9424 19.5562 13.4911 19.2625 13.1144 18.8858C12.7377 18.5091 12.444 18.0578 12.252 17.5608C12.0601 17.0639 11.9743 16.5323 12 16.0002C11.9743 15.4681 12.0601 14.9365 12.252 14.4395C12.444 13.9426 12.7377 13.4913 13.1144 13.1146C13.4911 12.7379 13.9424 12.4441 14.4394 12.2522C14.9363 12.0603 15.4679 11.9744 16 12.0002C16.5321 11.9744 17.0637 12.0603 17.5606 12.2522C18.0576 12.4441 18.5089 12.7379 18.8856 13.1146C19.2623 13.4913 19.556 13.9426 19.748 14.4395C19.9399 14.9365 20.0257 15.4681 20 16.0002ZM8 36.0002C8 34.4089 8.63214 32.8827 9.75736 31.7575C10.8826 30.6323 12.4087 30.0002 14 30.0002H18C19.5913 30.0002 21.1174 30.6323 22.2426 31.7575C23.3679 32.8827 24 34.4089 24 36.0002V38.0002H28V36.0002C28 34.6869 27.7413 33.3866 27.2388 32.1733C26.7362 30.9601 25.9997 29.8577 25.0711 28.9291C24.1425 28.0005 23.0401 27.2639 21.8268 26.7614C20.6136 26.2588 19.3132 26.0002 18 26.0002H14C11.3478 26.0002 8.8043 27.0537 6.92893 28.9291C5.05357 30.8045 4 33.348 4 36.0002V38.0002H8V36.0002Z" fill="black"/>
</svg>
