<svg width="48" height="48" viewBox="0 0 48 48" fill="none" xmlns="http://www.w3.org/2000/svg">
<path d="M24 4C12.972 4 4 12.972 4 24C4 35.028 12.972 44 24 44C35.028 44 44 35.028 44 24C44 12.972 35.028 4 24 4ZM8 24C8 22.202 8.312 20.476 8.862 18.862L16 26V30L22 36V39.862C14.122 38.872 8 32.144 8 24ZM36.66 33.746C35.354 32.694 33.374 32 32 32V30C32 28.9391 31.5786 27.9217 30.8284 27.1716C30.0783 26.4214 29.0609 26 28 26H20V20C21.0609 20 22.0783 19.5786 22.8284 18.8284C23.5786 18.0783 24 17.0609 24 16V14H26C27.0609 14 28.0783 13.5786 28.8284 12.8284C29.5786 12.0783 30 11.0609 30 10V9.178C35.856 11.556 40 17.3 40 24C39.9996 27.5294 38.8245 30.9583 36.66 33.746Z" fill="#00213D"/>
</svg>
